<svg width="50" height="50" viewBox="0 0 50 50" fill="none" xmlns="http://www.w3.org/2000/svg">
<rect width="50" height="50" rx="25" fill="#FDFDFD"/>
<path d="M32.7747 24.5249C32.0219 23.3984 29.5742 22.4998 29.5742 22.4998L32.373 18.9603C32.373 18.9603 34.1602 19.0694 35.0391 19.7116C35.2096 20.1466 35.066 20.9062 35.066 20.9062C35.066 20.9062 36.9405 21.7626 36.8961 22.5272C36.8778 22.8397 36.5137 23.177 36.5137 23.177C36.8965 23.8584 37.3943 23.6327 37.8119 25.3346C37.6582 25.5799 37.4825 25.68 37.2615 25.8335C37.2615 25.8335 37.8366 27.7901 37.0314 28.4067C36.8102 28.5762 36.3886 28.7184 36.3886 28.7184C36.3886 28.7184 35.7826 30.6187 34.7703 30.7568C34.1369 30.8432 33.5895 30.7698 33.2126 30.2578C32.8354 29.7457 33.2083 28.6342 33.2083 28.6342C33.2083 28.6342 33.7825 27.5771 33.7888 26.8666C33.7953 26.156 33.5401 25.2222 32.7747 24.5249Z" fill="url(#paint0_linear_58127_1495)"/>
<path d="M32.2133 18.2498C31.3552 17.2934 28.7876 18.2381 28.7876 18.2381C28.7876 18.2381 27.0971 19.94 26.0452 21.7969C25.696 22.8261 26.3384 22.6765 26.3384 22.6765C26.3384 22.6765 27.5358 22.5244 28.4499 22.3033C29.2918 22.8707 31.3064 21.9725 31.9066 20.9529C32.4892 19.9632 32.5242 19.2602 32.2133 18.2498Z" fill="url(#paint1_linear_58127_1495)"/>
<path d="M30.7974 31.3377C32.6468 30.8129 32.9215 29.5649 32.9215 29.5649L33.9088 30.712C33.9088 30.712 33.711 31.186 33.5256 31.4551C33.2148 31.9062 32.9357 32.0813 32.5006 32.4164C30.5142 33.5186 30.021 33.9434 28.233 33.9275C27.8055 33.6626 27.4296 33.5114 27.3189 33.0237C27.2656 32.7891 27.2972 32.6443 27.3432 32.4081C28.7044 31.7483 29.1161 32.0132 30.7974 31.3377Z" fill="url(#paint2_linear_58127_1495)"/>
<path d="M16.5022 21.5446L16.2031 21.318L16.5611 21.2839C16.5611 21.2839 17.8588 21.2301 19.5976 20.6016C21.4125 19.7219 23.036 18.9707 24.2307 18.2167C25.7619 17.5958 27.2887 16.7344 28.4318 17.8059C29.1503 18.4794 27.8177 21.728 25.8851 22.6167C24.212 23.386 22.8581 23.1376 21.0261 22.9282C19.1939 22.719 16.5022 21.5446 16.5022 21.5446Z" fill="url(#paint3_linear_58127_1495)"/>
<path d="M12.3263 21.1369L12.2988 21.0769C12.28 21.0378 12.2626 20.9953 12.2455 20.9522C12.2279 20.9093 12.211 20.8667 12.1968 20.8242C12.1819 20.7816 12.166 20.7389 12.1536 20.695C12.0995 20.5218 12.0596 20.3442 12.0352 20.1648C11.9855 19.8058 11.9892 19.4407 12.0415 19.0846C12.0954 18.7288 12.1952 18.3817 12.3377 18.0557C12.6218 17.4037 13.0766 16.8367 13.6311 16.4408C13.9088 16.2431 14.2133 16.0874 14.5327 15.9982C14.8516 15.9092 15.1828 15.8856 15.4952 15.9331C15.8076 15.9796 16.1008 16.0955 16.3438 16.2657C16.587 16.4352 16.7801 16.6602 16.8935 16.911C16.9505 17.036 16.987 17.1673 17.0022 17.2979C17.0169 17.4286 17.0095 17.5584 16.9845 17.6804C16.972 17.7414 16.9547 17.8012 16.9347 17.8572C16.9154 17.9128 16.8924 17.9693 16.8674 18.0216C16.818 18.1275 16.7573 18.225 16.6879 18.3111C16.5488 18.4839 16.3687 18.6047 16.1853 18.6615C16.0013 18.7192 15.8186 18.7162 15.6654 18.6759C15.5115 18.6365 15.3876 18.5602 15.2978 18.4781C15.2081 18.3949 15.152 18.3061 15.1172 18.2303C15.082 18.1548 15.0679 18.0919 15.0596 18.0502C15.0555 18.0293 15.0531 18.0131 15.052 18.0025C15.0538 18.0133 15.0569 18.0291 15.0615 18.0498C15.0712 18.0913 15.0873 18.1532 15.1246 18.2268C15.1613 18.3 15.2199 18.3856 15.3103 18.4639C15.4004 18.5413 15.5235 18.6099 15.6727 18.645C15.8214 18.6802 15.9971 18.6784 16.1709 18.6187C16.3446 18.5599 16.5118 18.4412 16.6402 18.2737C16.704 18.1898 16.7597 18.0956 16.8046 17.993C16.8494 17.8904 16.8873 17.7799 16.9067 17.6652C16.9477 17.4352 16.9137 17.182 16.8032 16.9517C16.6929 16.7207 16.5088 16.5139 16.2778 16.3597C16.047 16.205 15.7702 16.1015 15.4765 16.0638C15.1826 16.0256 14.8728 16.0531 14.5749 16.1431C14.426 16.1888 14.2793 16.2472 14.1374 16.3195C13.9957 16.3923 13.8584 16.4771 13.7273 16.5723C13.2007 16.9552 12.7722 17.5017 12.5006 18.1258C12.3652 18.4382 12.2705 18.7706 12.2196 19.1107C12.1703 19.451 12.1678 19.7988 12.2159 20.1398C12.2393 20.31 12.2786 20.4783 12.3287 20.6422C12.3399 20.6836 12.3556 20.7238 12.3695 20.7644C12.3829 20.8052 12.3984 20.845 12.4144 20.8836C12.4295 20.9226 12.4452 20.9618 12.4647 21.0022L12.4922 21.0621C12.4966 21.0712 12.5021 21.0843 12.5053 21.0899L12.5201 21.1187C12.6751 21.4278 12.8592 21.7211 13.0838 21.9766C13.1378 22.0425 13.1987 22.1015 13.2567 22.1629C13.3189 22.2203 13.3786 22.2799 13.4445 22.3324C13.5079 22.3882 13.5761 22.437 13.6427 22.4877C13.7124 22.5343 13.7804 22.5828 13.853 22.6239C13.9236 22.6681 13.9983 22.7051 14.0713 22.744C14.1469 22.7785 14.221 22.8154 14.2981 22.8447C14.3741 22.877 14.4524 22.9027 14.5297 22.9303C14.6085 22.9537 14.686 22.9798 14.7656 22.9987C15.3998 23.1619 16.0471 23.1652 16.65 23.1161C16.8011 23.104 16.9501 23.0867 17.0965 23.0681C17.2424 23.0488 17.3857 23.0272 17.5282 23.0039C17.8136 22.9572 18.0937 22.9267 18.3615 22.9078C18.8979 22.8696 19.3905 22.8725 19.8256 22.8911C20.0874 22.9037 20.3276 22.9226 20.5458 22.9434C20.1941 22.8641 19.8658 22.777 19.5631 22.6907C19.0561 22.5451 18.6199 22.3994 18.2641 22.2722C18.0119 22.1823 17.8015 22.1001 17.6332 22.0316C17.4445 21.9715 17.2346 21.9006 17.0135 21.8186C16.8817 21.7689 16.7457 21.7168 16.6101 21.6564C16.5424 21.6261 16.4746 21.5938 16.4075 21.5588C16.3404 21.5215 16.2735 21.4868 16.211 21.4256C16.1963 21.4082 16.1785 21.3899 16.1712 21.3532L16.1706 21.35C16.1708 21.3524 16.1701 21.3426 16.1698 21.3432L16.1697 21.3397L16.1697 21.3325C16.1709 21.3224 16.1724 21.3099 16.1775 21.3003C16.1817 21.2901 16.1894 21.2808 16.1979 21.2731C16.2066 21.2668 16.2162 21.2612 16.2242 21.2589C16.2581 21.2485 16.2804 21.253 16.3018 21.2559C16.323 21.2593 16.3429 21.2644 16.3621 21.2699C16.4024 21.2819 16.4398 21.2953 16.4768 21.3089L16.4762 21.3067L16.4744 21.2999C16.4728 21.2905 16.4709 21.2772 16.4736 21.2672C16.475 21.2563 16.4804 21.2456 16.4863 21.2356C16.493 21.2273 16.5009 21.2194 16.5081 21.2154C16.5384 21.1966 16.5609 21.1954 16.5826 21.1925C16.6042 21.1906 16.6245 21.19 16.6442 21.1906C16.7238 21.1938 16.7946 21.2032 16.8688 21.2089C16.9037 21.2119 16.9377 21.2142 16.9725 21.2173C16.9925 21.2151 17.0133 21.2127 17.036 21.2098C17.2367 21.1858 17.5305 21.1416 17.9011 21.0688C17.994 21.0523 18.0911 21.0317 18.193 21.0093C18.2948 20.9868 18.402 20.966 18.511 20.9371C18.7296 20.8799 18.9617 20.8011 19.2046 20.7047C19.6916 20.5129 20.2222 20.2507 20.7958 19.9548C21.3688 19.6577 21.9806 19.3175 22.6349 18.9677C22.9617 18.7925 23.2983 18.6136 23.6462 18.4364C23.9938 18.2588 24.3527 18.0833 24.7249 17.9181C25.0971 17.753 25.4822 17.5963 25.8855 17.467C26.0871 17.4023 26.2931 17.3453 26.5048 17.3001C26.7162 17.2552 26.9338 17.223 27.1563 17.2153C27.3782 17.2075 27.6072 17.2232 27.831 17.2847C28.0542 17.3449 28.2717 17.4552 28.4474 17.6137C28.4698 17.634 28.4896 17.6523 28.513 17.676L28.5413 17.7051L28.5727 17.7408C28.6123 17.7877 28.648 17.8361 28.6801 17.8877C28.7435 17.9913 28.7905 18.1043 28.8194 18.22C28.8782 18.453 28.8703 18.6899 28.8329 18.9136C28.7948 19.1381 28.725 19.3515 28.6423 19.5564C28.5587 19.7614 28.4608 19.9583 28.3543 20.1483C28.1406 20.5287 27.8948 20.8849 27.6355 21.2248C27.5057 21.3946 27.3727 21.5608 27.2354 21.7215L27.1311 21.8433C27.097 21.8822 27.062 21.9215 27.0233 21.9617C26.9479 22.041 26.8708 22.1155 26.7899 22.1867C26.7548 22.2175 26.7188 22.2476 26.683 22.2767C26.6761 22.2867 26.6687 22.2979 26.6589 22.3124C26.6281 22.3552 26.5835 22.4185 26.5214 22.4955C26.4898 22.5336 26.4547 22.5756 26.4167 22.6215C26.3781 22.6672 26.3341 22.714 26.288 22.7653C26.2413 22.8164 26.1891 22.8676 26.1356 22.9237C26.0815 22.9794 26.0202 23.033 25.9591 23.0921C25.8334 23.2069 25.6934 23.3277 25.5371 23.4457C25.4608 23.5076 25.3774 23.5633 25.2938 23.6237C25.2114 23.6855 25.1208 23.7391 25.0304 23.7961C24.9848 23.8244 24.9397 23.8538 24.8927 23.8812C24.8453 23.9077 24.7974 23.9345 24.7491 23.9615C24.7008 23.9884 24.6526 24.0154 24.6039 24.0426C24.5545 24.0685 24.5032 24.0913 24.4522 24.116C24.2503 24.2165 24.0371 24.3015 23.8232 24.3828C23.7144 24.4182 23.6053 24.4539 23.4966 24.4897C23.3945 24.5229 23.2818 24.5556 23.1847 24.593C22.9845 24.6677 22.7874 24.752 22.6098 24.8528C22.4322 24.9537 22.2687 25.0655 22.1266 25.1873C21.9852 25.3097 21.8637 25.4389 21.7639 25.5686C21.5659 25.8299 21.4576 26.088 21.4021 26.2732C21.3751 26.3661 21.3581 26.4409 21.3498 26.4928C21.3409 26.5445 21.3394 26.5727 21.3394 26.5727C21.3394 26.5727 21.3364 26.5446 21.3371 26.4919C21.3378 26.4392 21.3409 26.3613 21.3568 26.2636C21.3721 26.1656 21.3994 26.047 21.4472 25.916C21.4945 25.7852 21.5599 25.64 21.6541 25.4947C21.7467 25.3485 21.865 25.2001 22.0089 25.0621C22.152 24.9237 22.3188 24.7924 22.5052 24.6802C22.6918 24.5674 22.8916 24.4669 23.1068 24.3861C23.2167 24.3424 23.3186 24.3119 23.4295 24.2745C23.5341 24.239 23.6388 24.2036 23.7438 24.1678C23.9516 24.0916 24.1587 24.0121 24.355 23.9169C24.4043 23.894 24.454 23.8719 24.5029 23.8482C24.5507 23.8236 24.5988 23.7993 24.6462 23.7747C24.6937 23.7502 24.7413 23.7261 24.7879 23.702C24.8345 23.6769 24.8791 23.6496 24.9245 23.6241C25.0149 23.5722 25.1038 23.5214 25.1878 23.467C25.2722 23.4133 25.3576 23.3638 25.4348 23.3081C25.5929 23.2009 25.7394 23.0943 25.8719 22.9924C26.0033 22.8896 26.122 22.7918 26.2252 22.7026C26.2762 22.6571 26.3236 22.6148 26.3678 22.5755C26.4111 22.5352 26.4508 22.4981 26.4866 22.4645C26.5216 22.4303 26.5532 22.3997 26.5804 22.3728C26.607 22.3456 26.6299 22.3223 26.6485 22.3036C26.6491 22.3029 26.6495 22.3027 26.6497 22.302C26.3612 22.5308 26.0426 22.7133 25.7138 22.8518C25.5761 22.9099 25.4367 22.9602 25.2963 23.0043C25.294 23.0059 25.2921 23.0073 25.2898 23.009C25.1867 23.0818 25.0695 23.1636 24.9374 23.2474C24.8051 23.3299 24.6606 23.4188 24.5016 23.5034C24.3426 23.5876 24.1709 23.6704 23.9879 23.7448C23.8047 23.8188 23.6097 23.8833 23.4114 23.9382C23.2133 23.9941 23.0134 24.0426 22.8213 24.1037C22.629 24.1643 22.444 24.2387 22.2677 24.3277L22.2054 24.3595L22.1397 24.3969L22.1067 24.4155L22.0785 24.4342L22.0222 24.4711C21.9476 24.5266 21.8743 24.583 21.8098 24.6479C21.6773 24.7736 21.5698 24.9179 21.477 25.0606C21.3839 25.2038 21.3135 25.3514 21.251 25.489C21.1894 25.6273 21.1435 25.7589 21.1038 25.8764C21.0654 25.9942 21.0365 26.0988 21.0136 26.1857C20.9693 26.3593 20.9515 26.4615 20.9515 26.4615C20.9515 26.4615 20.9461 26.3578 20.9627 26.1773C20.9706 26.087 20.9847 25.9773 21.0085 25.8528C21.0311 25.7279 21.066 25.5884 21.1147 25.4386C21.1629 25.2886 21.2293 25.1297 21.3159 24.9681C21.3597 24.8874 21.4087 24.8066 21.4659 24.7281C21.4933 24.6878 21.525 24.6501 21.5552 24.6105C21.5888 24.5733 21.62 24.5338 21.6564 24.4983C21.7256 24.4231 21.8068 24.3568 21.8907 24.2917C21.9133 24.2761 21.9359 24.2606 21.9585 24.2451L21.9928 24.2219L22.0253 24.2026L22.0908 24.1647L22.1639 24.1267C22.35 24.0304 22.5502 23.9506 22.7533 23.8888C22.9567 23.8269 23.1605 23.7811 23.3556 23.7323C23.5511 23.6833 23.7401 23.6294 23.9192 23.5659C24.0992 23.5041 24.2705 23.4343 24.4299 23.3611C24.5895 23.2884 24.7397 23.215 24.876 23.1439C24.904 23.1288 24.9313 23.1145 24.9581 23.1C24.8196 23.1335 24.681 23.1615 24.5433 23.1841C24.2123 23.2392 23.8841 23.2669 23.5637 23.2768C23.4597 23.3139 23.3396 23.3512 23.2047 23.3856C23.0821 23.4191 22.9471 23.4459 22.8063 23.476C22.6658 23.5064 22.5194 23.5361 22.3738 23.5772C22.2281 23.6178 22.0831 23.6713 21.9424 23.74C21.8723 23.7745 21.8024 23.8119 21.7344 23.854C21.6672 23.8948 21.5963 23.9403 21.5361 23.9858C21.5028 24.011 21.468 24.0361 21.4414 24.0602L21.3984 24.0968L21.3561 24.1372C21.3271 24.1634 21.3006 24.192 21.2743 24.221C21.2469 24.2486 21.2221 24.2795 21.1971 24.3088C21.0978 24.4292 21.012 24.5589 20.9384 24.6907C20.8642 24.8223 20.8024 24.9561 20.7505 25.086C20.6979 25.2158 20.6538 25.3415 20.618 25.4595C20.5824 25.5776 20.5514 25.6867 20.5285 25.7848C20.5053 25.8825 20.4859 25.9688 20.4722 26.04C20.4439 26.1825 20.4324 26.2653 20.4324 26.2653C20.4324 26.2653 20.4262 26.1819 20.431 26.0356C20.4339 25.9624 20.4382 25.8733 20.4492 25.7719C20.4607 25.6701 20.4749 25.5554 20.4995 25.4315C20.5242 25.3077 20.555 25.1736 20.5986 25.0339C20.6429 24.895 20.697 24.7496 20.7664 24.6041C20.8369 24.459 20.9224 24.3138 21.0275 24.1773C21.0541 24.1436 21.0801 24.1091 21.1097 24.0764C21.138 24.0434 21.1678 24.0112 21.1994 23.9806L21.2462 23.9339L21.2974 23.8888C21.3323 23.8567 21.3649 23.8322 21.3981 23.8069C21.5399 23.7001 21.6871 23.6114 21.8436 23.5365C22 23.4633 22.163 23.4087 22.3215 23.3732C22.4799 23.3365 22.6335 23.315 22.777 23.2979C22.8398 23.2898 22.9002 23.2824 22.9597 23.2749C22.6699 23.2649 22.3875 23.2429 22.1144 23.2125C22.0983 23.2193 22.0805 23.2269 22.0609 23.2349C22.0093 23.2573 21.9452 23.2802 21.8725 23.3088C21.7997 23.335 21.7172 23.3644 21.6268 23.3965C21.5368 23.4273 21.4402 23.4604 21.3413 23.4972C21.2428 23.5347 21.1441 23.577 21.0479 23.6317C21.024 23.6458 21 23.6605 20.9757 23.6748C20.9517 23.6906 20.928 23.706 20.9038 23.7224C20.8797 23.7392 20.8556 23.7559 20.8314 23.7733C20.8083 23.7901 20.7851 23.8074 20.7617 23.8245C20.7374 23.8438 20.7128 23.8638 20.6888 23.8837L20.6269 23.9406C20.5864 23.981 20.546 24.0251 20.5089 24.0706C20.3596 24.2538 20.2523 24.4733 20.1769 24.6888C20.1388 24.7968 20.1092 24.9044 20.0837 25.0078C20.0587 25.111 20.0421 25.2106 20.0268 25.3025C19.9978 25.487 19.9844 25.6441 19.9778 25.7535C19.9705 25.8635 19.9701 25.9273 19.9701 25.9273C19.9701 25.9273 19.956 25.8654 19.9415 25.7549C19.9348 25.6996 19.9282 25.6321 19.9233 25.5546C19.9195 25.4771 19.9176 25.3889 19.9191 25.2931C19.921 25.197 19.9291 25.0929 19.9421 24.9828C19.955 24.8727 19.9769 24.7568 20.0072 24.6383C20.069 24.4024 20.1724 24.1532 20.3354 23.9374C20.3759 23.8831 20.4209 23.8329 20.4677 23.7832C20.4932 23.7586 20.5183 23.7347 20.5436 23.7103C20.5676 23.69 20.5917 23.6702 20.6158 23.6504L20.6282 23.6402L20.638 23.633L20.6953 23.59C20.7208 23.571 20.7475 23.5524 20.7737 23.5347C20.8273 23.4995 20.8816 23.465 20.9385 23.436C21.0517 23.377 21.1686 23.3352 21.2779 23.3061C21.3875 23.2763 21.4901 23.2566 21.585 23.2401C21.6803 23.2239 21.7672 23.2119 21.8444 23.2009C21.875 23.1973 21.903 23.1939 21.9303 23.1908C21.7112 23.1627 21.4976 23.1304 21.2911 23.0946C21.193 23.0776 21.0967 23.0596 21.0015 23.0412C20.9823 23.0397 20.9634 23.0378 20.9435 23.0361C20.6334 23.0119 20.2559 22.9914 19.8227 22.9861C19.3902 22.9791 18.9016 22.9884 18.3727 23.0398C18.1081 23.0653 17.8354 23.1023 17.5532 23.1556C17.4822 23.1676 17.4107 23.1799 17.3382 23.1921C17.2649 23.2027 17.1914 23.2149 17.1173 23.2249C16.9687 23.2451 16.8176 23.2634 16.664 23.2767C16.3563 23.3042 16.0383 23.318 15.7124 23.3045C15.3871 23.2901 15.0532 23.252 14.7222 23.1677C14.6391 23.149 14.5575 23.122 14.475 23.0983C14.3938 23.07 14.3111 23.0439 14.231 23.0095C14.1496 22.9787 14.0716 22.9402 13.992 22.9035C13.9148 22.8626 13.8356 22.8237 13.7607 22.777C13.684 22.7338 13.6119 22.6823 13.5381 22.6336C13.4672 22.5804 13.3951 22.5289 13.3282 22.4702C13.2588 22.4148 13.1954 22.3519 13.1296 22.2912C13.0681 22.2269 13.0039 22.1644 12.9468 22.0954C12.7096 21.8267 12.5167 21.5209 12.3556 21.2005L12.3404 21.1708C12.3346 21.1548 12.3316 21.1475 12.3263 21.1369ZM16.2631 21.3357C16.2635 21.3344 16.264 21.3332 16.2631 21.3325L16.2631 21.3357ZM16.5657 21.28C16.5655 21.2787 16.5659 21.2774 16.5649 21.2774L16.5657 21.28ZM24.5047 22.9631C24.8806 22.8929 25.2582 22.7887 25.6191 22.6326C25.9796 22.4762 26.3226 22.2662 26.62 21.9984C26.6942 21.9314 26.766 21.8605 26.8337 21.7874C26.8666 21.7522 26.9008 21.7132 26.9354 21.6731L27.0341 21.5549C27.1665 21.3946 27.2971 21.2317 27.4234 21.0652C27.6756 20.7317 27.9134 20.3835 28.1169 20.0177C28.3181 19.6525 28.4909 19.2651 28.5613 18.8677C28.5957 18.6698 28.6006 18.4696 28.5546 18.2858C28.5323 18.1938 28.4957 18.1072 28.4478 18.0277C28.4238 17.9884 28.3958 17.9502 28.3666 17.9149L28.3452 17.8902L28.3175 17.8614C28.3033 17.8469 28.2839 17.8284 28.2665 17.8129C28.1235 17.6832 27.9489 17.5934 27.7598 17.541C27.5705 17.4882 27.3682 17.4723 27.1661 17.4787C26.7602 17.4933 26.3546 17.5877 25.9635 17.7075C25.5721 17.8285 25.192 17.9776 24.8234 18.1365C24.0866 18.4564 23.389 18.8067 22.7304 19.1448C22.0725 19.484 21.449 19.8056 20.8662 20.0902C20.2842 20.3752 19.7381 20.6156 19.2395 20.793C18.9901 20.8815 18.7529 20.9531 18.5283 21.0035C18.4161 21.0288 18.3083 21.0465 18.2055 21.0658C18.1026 21.0852 18.0045 21.1027 17.9108 21.1166C17.5374 21.1774 17.2417 21.2074 17.0396 21.2233C17.1276 21.23 17.215 21.2366 17.3009 21.2412C17.3706 21.2461 17.4394 21.2483 17.5064 21.251C17.5738 21.2534 17.6396 21.2577 17.7035 21.2582C17.8313 21.2583 17.9529 21.2646 18.0647 21.2602C18.1765 21.2579 18.2794 21.2574 18.37 21.2496C18.4606 21.2428 18.5406 21.2418 18.6046 21.23C18.7341 21.2126 18.8086 21.2034 18.8086 21.2034C18.8086 21.2034 18.7359 21.2203 18.6071 21.2476C18.5433 21.2638 18.4634 21.2704 18.3728 21.2834C18.3272 21.2887 18.2793 21.2977 18.2279 21.3007C18.1767 21.3041 18.1229 21.3083 18.0667 21.3122C17.9543 21.3224 17.8322 21.3225 17.7031 21.3261C17.6387 21.3277 17.5722 21.326 17.5043 21.3258C17.4365 21.3256 17.367 21.3241 17.2967 21.3211C17.1561 21.316 17.0102 21.3093 16.8627 21.2974C16.7897 21.2921 16.7135 21.2832 16.6436 21.2809C16.6259 21.2804 16.6092 21.2808 16.5931 21.2826C16.5842 21.2833 16.5749 21.2852 16.5687 21.2873C16.572 21.2907 16.5792 21.297 16.5876 21.3026C16.6411 21.3341 16.7149 21.3538 16.7843 21.3715C16.8553 21.3886 16.9273 21.4025 16.9992 21.4149C17.1431 21.4393 17.2862 21.4599 17.4252 21.4766C17.7029 21.5109 17.9633 21.5363 18.1866 21.5583C18.6337 21.6001 18.9318 21.6281 18.9318 21.6281C18.9318 21.6281 18.8567 21.6288 18.7258 21.6266C18.5949 21.6234 18.4075 21.6211 18.1826 21.6106C17.958 21.6005 17.696 21.5844 17.4158 21.5564C17.3077 21.5452 17.196 21.5332 17.0834 21.517C17.1155 21.5269 17.148 21.5366 17.1794 21.5463C17.2438 21.5655 17.3065 21.5865 17.3682 21.6034C17.492 21.6359 17.6076 21.6726 17.7171 21.6968C17.8259 21.7229 17.9253 21.7486 18.015 21.764C18.1042 21.7804 18.1819 21.7997 18.2471 21.8048C18.3766 21.8208 18.4514 21.8309 18.4514 21.8309C18.4514 21.8309 18.377 21.8288 18.2455 21.8223C18.1795 21.8217 18.1008 21.808 18.01 21.7975C17.9647 21.7911 17.9159 21.7877 17.8652 21.7776C17.8148 21.768 17.7617 21.7582 17.7063 21.7479C17.5949 21.7291 17.4766 21.6984 17.3509 21.6692C17.2882 21.6544 17.2246 21.6358 17.159 21.6183C17.0936 21.6012 17.0267 21.5822 16.9599 21.5611C16.825 21.5207 16.686 21.4772 16.5464 21.4283C16.4774 21.4048 16.4059 21.3764 16.3392 21.3567C16.3224 21.3517 16.3057 21.3481 16.29 21.3455C16.281 21.3438 16.2717 21.3437 16.2651 21.3438C16.2673 21.3484 16.2726 21.3559 16.2794 21.3634C16.3231 21.4074 16.3892 21.4456 16.4517 21.4798C16.516 21.5143 16.5819 21.5459 16.6482 21.5764C16.7813 21.636 16.914 21.6928 17.044 21.7442C17.3035 21.848 17.5489 21.9386 17.7587 22.0165C18.1801 22.1705 18.461 22.2729 18.461 22.2729C18.461 22.2729 18.4166 22.2619 18.3376 22.2402C18.6865 22.3504 19.106 22.4737 19.5899 22.5942C20.0993 22.7208 20.6789 22.8438 21.3164 22.9399C21.9536 23.034 22.651 23.0974 23.3848 23.0775C23.7523 23.0663 24.1283 23.0326 24.5047 22.9631Z" fill="#D3E3FF"/>
<path d="M31.2121 18.5757C31.1172 18.5383 31.0187 18.5082 30.9212 18.4843C30.8237 18.4593 30.7267 18.4406 30.6347 18.4236C30.5423 18.4079 30.4542 18.3937 30.3722 18.3825C30.2902 18.3713 30.2146 18.3637 30.1475 18.3556C30.0801 18.349 30.0216 18.3427 29.9732 18.3382C29.8761 18.3298 29.8203 18.3248 29.8203 18.3248C29.8203 18.3248 29.875 18.314 29.9725 18.3015C30.021 18.2948 30.0804 18.2894 30.1484 18.2834C30.2164 18.2768 30.2934 18.2736 30.3777 18.271C30.5464 18.2655 30.7444 18.2693 30.9571 18.2979C31.0636 18.313 31.1739 18.3337 31.2857 18.3681C31.3969 18.4022 31.5108 18.4488 31.6173 18.5243C31.6706 18.5616 31.7207 18.609 31.7626 18.666C31.8048 18.7224 31.836 18.7908 31.8524 18.8606C31.8558 18.8778 31.8593 18.8965 31.8617 18.9126L31.8675 18.9526C31.871 18.9814 31.875 19.0105 31.8772 19.0379C31.8814 19.0933 31.8849 19.1481 31.8857 19.2017C31.8868 19.3091 31.8805 19.4129 31.8674 19.5102C31.8561 19.6078 31.8352 19.6988 31.8141 19.7819C31.7907 19.8644 31.7659 19.9391 31.7384 20.0032C31.7116 20.0675 31.684 20.1216 31.6601 20.1658C31.6362 20.2099 31.6139 20.2426 31.5985 20.2648C31.5839 20.2872 31.5747 20.2988 31.5747 20.2988C31.5747 20.2988 31.5747 20.284 31.5759 20.2574C31.576 20.2305 31.5809 20.1925 31.5823 20.1434C31.5832 20.1192 31.5859 20.0923 31.588 20.0633C31.5891 20.0343 31.59 20.0029 31.5928 19.97C31.5959 19.9044 31.5994 19.8304 31.6034 19.7491C31.6094 19.5885 31.6136 19.4033 31.6097 19.2062C31.6085 19.157 31.6079 19.1068 31.6047 19.0565C31.6037 19.0316 31.6025 19.0072 31.6012 18.9819L31.5983 18.9416C31.5974 18.9313 31.5958 18.923 31.5949 18.9138C31.5827 18.8423 31.5382 18.7759 31.4678 18.7174C31.3963 18.6599 31.3063 18.6135 31.2121 18.5757Z" fill="#D3E3FF"/>
<path d="M22.9648 19.3758C23.1716 19.2384 23.4751 19.0537 23.8538 18.8579C24.0431 18.76 24.2507 18.6584 24.474 18.5578C24.6976 18.4586 24.9369 18.3599 25.188 18.2677C25.4394 18.1748 25.7036 18.0895 25.9776 18.0197C26.2521 17.9498 26.5363 17.8934 26.8287 17.8703C26.9748 17.8585 27.1233 17.8577 27.2724 17.8709C27.4212 17.8853 27.5718 17.9141 27.7166 17.9726C27.8607 18.0305 27.9983 18.1221 28.0996 18.2464C28.2015 18.3699 28.2629 18.5194 28.2915 18.6637C28.2992 18.7002 28.3047 18.7362 28.3084 18.7719L28.3102 18.789L28.3111 18.8012L28.3132 18.8262C28.3136 18.8469 28.3144 18.8694 28.3136 18.8875C28.3117 18.9638 28.3005 19.0359 28.2848 19.1039C28.2533 19.2408 28.2052 19.3649 28.1497 19.4793C28.0402 19.709 27.9078 19.9034 27.7799 20.0768C27.7165 20.164 27.6519 20.2442 27.5887 20.319C27.5256 20.3939 27.4666 20.4647 27.4071 20.5282C27.3475 20.5916 27.292 20.6506 27.2403 20.7051C27.1879 20.7591 27.1386 20.8069 27.0938 20.8505C27.0048 20.9373 26.9327 21.0033 26.8838 21.0489C26.8347 21.094 26.8098 21.1194 26.8098 21.1194C26.8098 21.1194 26.8252 21.0871 26.8601 21.0299C26.8944 20.9726 26.9471 20.89 27.0161 20.7874C27.0848 20.6854 27.1686 20.5608 27.2643 20.4188C27.3115 20.3481 27.3621 20.2727 27.4155 20.1934C27.4669 20.1135 27.5211 20.0298 27.578 19.9421C27.6338 19.8546 27.6888 19.7622 27.7433 19.6656C27.7988 19.57 27.8511 19.4689 27.9001 19.3653C27.9476 19.2608 27.9924 19.1531 28.0203 19.0429C28.0343 18.9883 28.0439 18.9327 28.0465 18.8797C28.0476 18.8654 28.0469 18.8556 28.0472 18.8436L28.0462 18.8197L28.0457 18.8083L28.0455 18.8058L28.0449 18.8005C28.0418 18.7714 28.0385 18.7427 28.0331 18.7142C28.0125 18.6006 27.9695 18.4936 27.8998 18.4053C27.8305 18.3168 27.7336 18.2472 27.62 18.199C27.3914 18.1017 27.114 18.0856 26.8423 18.0977C26.5686 18.1108 26.2927 18.156 26.0245 18.2158C25.7562 18.2762 25.4947 18.3505 25.2432 18.4297C24.9922 18.5096 24.7523 18.5964 24.5268 18.6854C24.3007 18.7725 24.0897 18.8616 23.8965 18.9486C23.5102 19.1217 23.1959 19.2836 22.9805 19.4044C22.8725 19.4643 22.7891 19.5149 22.7327 19.5493C22.6767 19.5847 22.6465 19.6034 22.6465 19.6034C22.6465 19.6034 22.6744 19.5821 22.7276 19.5422C22.7822 19.501 22.8617 19.4446 22.9648 19.3758Z" fill="#D3E3FF"/>
<path d="M34.1126 19.7503C34.0268 19.6959 33.9356 19.6474 33.8445 19.6051C33.7535 19.5622 33.6621 19.5255 33.575 19.4915C33.4873 19.4583 33.4036 19.428 33.3253 19.4014C33.2471 19.3751 33.1741 19.353 33.1102 19.3326C33.0452 19.3132 32.9887 19.2964 32.9424 19.2827C32.8487 19.2559 32.7949 19.2408 32.7949 19.2408C32.7949 19.2408 32.8508 19.2406 32.9487 19.2465C32.9978 19.2493 33.0567 19.2553 33.1246 19.262C33.1926 19.2688 33.2689 19.2796 33.3524 19.2931C33.519 19.3197 33.7123 19.3608 33.9164 19.4293C34.0179 19.4645 34.1227 19.5054 34.2253 19.5604C34.3281 19.6149 34.431 19.682 34.5209 19.7768C34.566 19.8237 34.6059 19.8796 34.6359 19.9434C34.6662 20.0071 34.6835 20.0796 34.6865 20.1514C34.6866 20.1692 34.6865 20.1876 34.686 20.2041L34.6837 20.2444C34.6816 20.2734 34.6798 20.3022 34.677 20.3296C34.6708 20.3849 34.6631 20.439 34.6535 20.492C34.6337 20.5978 34.6078 20.6983 34.5763 20.7915C34.5466 20.8852 34.5081 20.9705 34.4717 21.0477C34.4331 21.1244 34.394 21.1928 34.3552 21.2507C34.3166 21.3086 34.2788 21.3569 34.247 21.3953C34.2153 21.4341 34.1869 21.462 34.1676 21.4811C34.1489 21.5004 34.1376 21.5099 34.1376 21.5099C34.1376 21.5099 34.1403 21.4954 34.1465 21.4694C34.1519 21.4429 34.1637 21.4066 34.1745 21.3587C34.1801 21.3346 34.1877 21.3095 34.1954 21.2814C34.202 21.2532 34.209 21.2224 34.2178 21.1906C34.2334 21.1266 34.2514 21.0548 34.2707 20.9762C34.3075 20.8199 34.3475 20.6388 34.3815 20.4443C34.3897 20.3955 34.3988 20.3463 34.4055 20.2963C34.4092 20.2716 34.4127 20.2475 34.4165 20.2228L34.4213 20.1828C34.4225 20.1726 34.4225 20.1644 34.4235 20.1548C34.4256 20.082 34.3945 20.0086 34.3362 19.9381C34.2776 19.8683 34.1973 19.8054 34.1126 19.7503Z" fill="#D3E3FF"/>
<path d="M35.9047 23.3628C35.8312 23.427 35.7583 23.4832 35.6882 23.5313C35.6523 23.5544 35.6195 23.5784 35.5859 23.5977C35.5523 23.617 35.521 23.6357 35.4906 23.6521C35.4299 23.685 35.3752 23.7095 35.3295 23.7292C35.2843 23.749 35.2471 23.7609 35.2221 23.7695C35.1968 23.7777 35.1836 23.7821 35.1836 23.7821C35.1836 23.7821 35.1945 23.7728 35.2141 23.7555C35.2337 23.7379 35.2648 23.7157 35.3012 23.6833C35.3195 23.6673 35.3407 23.6509 35.3629 23.6325C35.3847 23.6133 35.4082 23.5923 35.4338 23.5712C35.4841 23.5275 35.5391 23.4769 35.5997 23.4226C35.6576 23.3655 35.7227 23.307 35.7866 23.2399C35.8506 23.1728 35.9182 23.1029 35.9846 23.0274C36.0178 22.9895 36.0518 22.9512 36.0839 22.9111C36.1008 22.8913 36.1162 22.8716 36.1322 22.8521L36.1569 22.8199C36.1637 22.8109 36.1691 22.8021 36.1756 22.7934C36.2208 22.7216 36.2336 22.63 36.2179 22.5338C36.2023 22.4375 36.1638 22.3407 36.118 22.2479C36.0714 22.1555 36.0155 22.0671 35.9573 21.9844C35.8997 21.901 35.8396 21.8227 35.7802 21.7502C35.7205 21.678 35.6626 21.6104 35.6077 21.549C35.4976 21.4268 35.4018 21.3272 35.3335 21.2585C35.2657 21.1897 35.2252 21.1513 35.2252 21.1513C35.2252 21.1513 35.2715 21.1817 35.3495 21.2401C35.4272 21.2986 35.5367 21.3844 35.6607 21.4963C35.7855 21.6077 35.9242 21.7455 36.0586 21.9089C36.1245 21.9914 36.1895 22.0805 36.2466 22.1785C36.304 22.2763 36.3531 22.3843 36.3773 22.5053C36.3896 22.5655 36.394 22.6296 36.3868 22.6941C36.3798 22.759 36.3585 22.8239 36.3262 22.8812C36.2607 22.9857 36.1938 23.0665 36.1225 23.1478C36.0522 23.2267 35.9791 23.2992 35.9047 23.3628Z" fill="#D3E3FF"/>
<path d="M20.7348 21.9552C21.0481 21.8034 21.1778 21.4285 21.0247 21.118C20.8716 20.8074 20.4935 20.6788 20.1803 20.8306C19.867 20.9824 19.7373 21.3573 19.8904 21.6678C20.0435 21.9784 20.4216 22.107 20.7348 21.9552Z" fill="#204E7C"/>
<path d="M27.083 32.6019C27.0918 32.5646 27.0983 32.5269 27.116 32.4919C27.1244 32.4746 27.1305 32.4558 27.1408 32.4402L27.1723 32.3929C27.1826 32.3762 27.1952 32.3634 27.2078 32.3503L27.2456 32.3105C27.2725 32.2879 27.3005 32.2666 27.3281 32.2466L27.371 32.2213L27.3926 32.2087L27.4034 32.2025L27.4089 32.1993L27.4119 32.1979C27.4147 32.1965 27.4089 32.1993 27.4193 32.1942L27.4957 32.1598C27.5487 32.1381 27.6126 32.1128 27.6659 32.0961C27.721 32.0776 27.7764 32.0599 27.831 32.0446C27.8859 32.0282 27.9407 32.0133 27.9955 31.9984C28.2146 31.94 28.4326 31.8888 28.6504 31.8372L29.3014 31.6829C29.7336 31.5778 30.1628 31.4638 30.5812 31.3216C30.6865 31.2873 30.7897 31.249 30.8936 31.2119C30.9958 31.1715 31.099 31.1331 31.1992 31.0887C31.3008 31.0471 31.399 30.9984 31.498 30.9515C31.5947 30.901 31.6923 30.8512 31.7847 30.7942C31.9711 30.682 32.1495 30.5578 32.3078 30.4124C32.4643 30.2658 32.5997 30.098 32.6958 29.9089C32.7077 29.8853 32.7223 29.8626 32.7317 29.8381L32.7604 29.7641L32.7891 29.6902L32.8165 29.6103L32.9256 29.2958C32.9524 29.2136 32.9824 29.132 33.0131 29.0505C33.018 29.0302 33.0235 29.0093 33.0297 28.9864C33.0586 28.891 33.0978 28.7759 33.1499 28.6484C33.2017 28.5215 33.2597 28.3779 33.3233 28.2218C33.3548 28.144 33.3861 28.0627 33.4169 27.9785C33.4321 27.9366 33.4478 27.8934 33.4634 27.8502C33.4778 27.8065 33.4928 27.7622 33.5078 27.7173C33.565 27.5369 33.6139 27.3448 33.6492 27.1445C33.6805 26.9553 33.6904 26.7588 33.6848 26.561C33.676 26.5266 33.6678 26.4924 33.6617 26.4592C33.6542 26.4222 33.6462 26.3863 33.6394 26.3514C33.6339 26.3165 33.6287 26.2829 33.6238 26.2502C33.6192 26.2178 33.6146 26.1869 33.6102 26.1571C33.6072 26.127 33.6046 26.0987 33.6015 26.0717C33.5986 26.041 33.5959 26.0124 33.5934 25.9856C33.5858 25.9577 33.5774 25.9302 33.5688 25.9023L33.5175 25.7506C33.4987 25.7008 33.4754 25.6525 33.4541 25.6033L33.4483 25.5893C33.4037 25.528 33.3608 25.4659 33.3157 25.4048C33.2218 25.2768 33.1248 25.1519 33.0253 25.0292C32.9264 24.9057 32.8219 24.7874 32.7157 24.6709C32.6088 24.5549 32.5003 24.4411 32.3862 24.3326C32.361 24.3076 32.3352 24.2835 32.3091 24.2595C32.2205 24.1942 32.1564 24.134 32.1102 24.0955C32.0615 24.0529 32.0355 24.0304 32.0355 24.0304C32.0355 24.0304 32.0548 24.0424 32.0911 24.065C32.0729 24.0489 32.0544 24.0335 32.0362 24.0173C31.9869 23.9756 31.9368 23.9352 31.8862 23.8952C31.8415 23.9275 31.7847 23.9662 31.7202 24.0112C31.6418 24.0656 31.5519 24.1279 31.4639 24.1981C31.4417 24.2154 31.42 24.234 31.398 24.2519C31.3773 24.2711 31.3549 24.2891 31.3344 24.3091C31.2924 24.3478 31.2533 24.3892 31.2173 24.4316C31.1806 24.4738 31.1505 24.5189 31.1218 24.5639C31.0966 24.6106 31.0715 24.6564 31.0554 24.7049C31.0368 24.7526 31.0254 24.8014 31.0163 24.8494C31.0083 24.8976 31.0025 24.9452 31.001 24.9902C30.9984 25.0129 30.9998 25.0345 30.9994 25.0556C30.9996 25.0768 30.9983 25.0969 30.9995 25.1161C31.0027 25.1537 31.0011 25.1891 31.0042 25.2172C31.0076 25.245 31.008 25.2687 31.0095 25.2843C31.0102 25.3002 31.0104 25.3088 31.0104 25.3088C31.0104 25.3088 31.0051 25.3022 30.9947 25.2904C30.9851 25.2783 30.9696 25.2604 30.9522 25.2357C30.9343 25.2118 30.9167 25.1802 30.8962 25.1438C30.8853 25.1257 30.8779 25.1049 30.8683 25.083C30.859 25.0611 30.8491 25.038 30.8423 25.0127C30.8263 24.9625 30.8142 24.9058 30.8086 24.8434C30.8042 24.7814 30.8048 24.7139 30.8182 24.6454C30.823 24.6105 30.833 24.5766 30.8443 24.5421C30.8542 24.5073 30.8698 24.4743 30.885 24.4405C30.9178 24.3748 30.9589 24.3126 31.0056 24.2564C31.0536 24.2016 31.1051 24.1501 31.1608 24.1079C31.2156 24.064 31.2729 24.0271 31.3301 23.9963C31.4441 23.9334 31.557 23.8935 31.6551 23.8678C31.7131 23.8524 31.7654 23.8428 31.8108 23.836C31.7635 23.7994 31.7163 23.7629 31.6679 23.7272C31.4895 23.5985 31.3052 23.4777 31.1159 23.3664C31.0752 23.3953 31.0264 23.4286 30.9723 23.4666C30.8938 23.5209 30.8041 23.5833 30.7159 23.6534C30.6937 23.6708 30.6722 23.6894 30.6502 23.7073C30.6293 23.7264 30.6069 23.7445 30.5865 23.7645C30.5446 23.8031 30.5053 23.8446 30.4693 23.887C30.4326 23.9292 30.4026 23.9742 30.3739 24.0192C30.3488 24.066 30.3236 24.1117 30.3075 24.1603C30.2889 24.2079 30.2776 24.2567 30.2685 24.3048C30.2604 24.353 30.2546 24.4006 30.2532 24.4456C30.2505 24.4682 30.252 24.4899 30.2516 24.511C30.2518 24.5322 30.2504 24.5522 30.2516 24.5714C30.2548 24.6091 30.2533 24.6445 30.2563 24.6725C30.2598 24.7003 30.2602 24.724 30.2617 24.7396C30.2624 24.7555 30.2624 24.7641 30.2624 24.7641C30.2624 24.7641 30.2572 24.7575 30.2467 24.7458C30.2372 24.7337 30.2217 24.7158 30.2044 24.6911C30.1864 24.6672 30.1688 24.6356 30.1483 24.5991C30.1373 24.5811 30.1301 24.5602 30.1204 24.5384C30.1111 24.5165 30.1012 24.4933 30.0944 24.4681C30.0783 24.4179 30.0663 24.3612 30.0602 24.2989C30.0559 24.237 30.0565 24.1695 30.0699 24.1009C30.0748 24.066 30.0847 24.0322 30.096 23.9977C30.106 23.9629 30.1215 23.9299 30.1367 23.8961C30.1694 23.8304 30.2106 23.7682 30.2573 23.712C30.3052 23.6571 30.3566 23.6053 30.4125 23.5635C30.4673 23.5196 30.5247 23.4831 30.5817 23.4519C30.6959 23.389 30.8086 23.349 30.9068 23.3234C30.9409 23.3144 30.9725 23.3078 31.0024 23.3019C30.9597 23.2778 30.9171 23.2537 30.874 23.2308C30.7041 23.1423 30.5305 23.0621 30.3539 22.9879C30.3211 23.0089 30.2857 23.0316 30.2475 23.0563C30.1527 23.1169 30.0429 23.1865 29.93 23.2625C29.8177 23.3399 29.7013 23.4232 29.5974 23.5154C29.5446 23.5603 29.497 23.6093 29.4516 23.6578C29.4399 23.6695 29.4307 23.6832 29.4199 23.6955C29.4097 23.7081 29.3976 23.7201 29.389 23.7328C29.3705 23.7587 29.3511 23.7838 29.3352 23.8099C29.3004 23.8613 29.2765 23.9146 29.2542 23.9672C29.245 23.9934 29.2365 24.02 29.2283 24.0458C29.2227 24.072 29.2155 24.0978 29.2115 24.1232C29.2078 24.1489 29.2047 24.1738 29.2014 24.1973C29.2006 24.2216 29.1995 24.2445 29.1985 24.2664C29.1975 24.3101 29.2004 24.3494 29.201 24.3827C29.2056 24.415 29.2068 24.4415 29.2091 24.4596C29.2105 24.4783 29.2113 24.4881 29.2113 24.4881C29.2113 24.4881 29.2054 24.4802 29.1946 24.4656C29.1843 24.4509 29.1673 24.429 29.1486 24.3994C29.133 24.3688 29.1107 24.3318 29.0936 24.2856C29.0851 24.2622 29.0773 24.2371 29.0683 24.2104C29.0619 24.183 29.0568 24.1539 29.0513 24.123C29.0469 24.092 29.0466 24.0591 29.0444 24.0246C29.0449 23.9903 29.0484 23.9549 29.0519 23.9181C29.0642 23.8461 29.0831 23.7692 29.1178 23.697C29.1496 23.623 29.194 23.5537 29.2444 23.4886C29.2951 23.4237 29.353 23.3642 29.4141 23.3101C29.4763 23.2571 29.5402 23.2078 29.6071 23.1657C29.6399 23.1436 29.6733 23.124 29.7073 23.1054C29.7402 23.0859 29.7742 23.0694 29.8076 23.0528C29.9368 22.9901 30.0617 22.9458 30.1721 22.9148C30.1203 22.8951 30.0683 22.875 30.0159 22.8561C29.8511 22.7976 29.6833 22.7477 29.5142 22.7034C29.4696 22.7327 29.4182 22.7658 29.3612 22.8021C29.2664 22.8628 29.1564 22.9323 29.0436 23.0084C28.9314 23.0857 28.8149 23.1691 28.711 23.2612C28.6583 23.3061 28.6106 23.3552 28.5652 23.4036C28.5536 23.4153 28.5444 23.429 28.5335 23.4414C28.5233 23.4539 28.5112 23.4658 28.5027 23.4787C28.4841 23.5045 28.4647 23.5297 28.4488 23.5556C28.4141 23.6071 28.3901 23.6604 28.3678 23.713C28.3587 23.7393 28.3502 23.7658 28.3419 23.7917C28.3363 23.8178 28.329 23.8437 28.3251 23.869C28.3214 23.8947 28.3183 23.9197 28.315 23.9431C28.3141 23.9675 28.3131 23.9903 28.312 24.0122C28.3111 24.0559 28.314 24.0952 28.3145 24.1286C28.3192 24.1609 28.3204 24.1872 28.3227 24.2054C28.3242 24.224 28.325 24.2339 28.325 24.2339C28.325 24.2339 28.3191 24.2261 28.3082 24.2114C28.2978 24.1966 28.2809 24.1748 28.2623 24.1452C28.2467 24.1147 28.2243 24.0776 28.2071 24.0315C28.1987 24.0081 28.1909 23.9829 28.1819 23.9562C28.1755 23.9288 28.1704 23.8997 28.165 23.8688C28.1604 23.8379 28.1601 23.805 28.158 23.7704C28.1584 23.736 28.1621 23.7008 28.1656 23.664C28.1779 23.5924 28.1968 23.515 28.2314 23.4427C28.2633 23.3688 28.3076 23.2996 28.3581 23.2343C28.4088 23.1696 28.4666 23.11 28.5277 23.056C28.5898 23.0029 28.6538 22.9537 28.7208 22.9115C28.7535 22.8895 28.7869 22.8697 28.8209 22.8513C28.8539 22.8317 28.8878 22.8153 28.9211 22.7986C29.0546 22.734 29.184 22.6884 29.2965 22.6574C29.3014 22.656 29.306 22.6549 29.3105 22.6536C29.2446 22.6387 29.1782 22.6247 29.1117 22.6116C28.8624 22.5619 28.6098 22.5282 28.3561 22.5092C28.3437 22.5174 28.3308 22.5256 28.318 22.5338C28.2231 22.5945 28.1133 22.6641 28.0004 22.7402C27.8882 22.8174 27.7717 22.9009 27.6678 22.9929C27.6151 23.0379 27.5674 23.0869 27.522 23.1354C27.5104 23.1472 27.5012 23.1608 27.4903 23.1731C27.4801 23.1857 27.4685 23.1974 27.4595 23.2104C27.4409 23.2363 27.4216 23.2615 27.4056 23.2875C27.3709 23.3388 27.347 23.3922 27.3246 23.4448C27.3155 23.471 27.3066 23.4978 27.2988 23.5234C27.2931 23.5496 27.2859 23.5754 27.282 23.6008C27.2782 23.6265 27.2752 23.6514 27.2718 23.6749C27.271 23.6992 27.2699 23.7221 27.2689 23.744C27.2679 23.7877 27.2708 23.8269 27.2714 23.8603C27.276 23.8926 27.2772 23.919 27.2795 23.9372C27.281 23.9558 27.2818 23.9657 27.2818 23.9657C27.2818 23.9657 27.2759 23.9579 27.2651 23.9433C27.2547 23.9284 27.2377 23.9066 27.2191 23.877C27.2034 23.8464 27.1811 23.8094 27.164 23.7633C27.1555 23.7399 27.1477 23.7147 27.1387 23.6881C27.1325 23.661 27.1273 23.6314 27.1218 23.6006C27.1173 23.5697 27.117 23.5367 27.1148 23.5022C27.1153 23.4678 27.1189 23.4325 27.1223 23.3957C27.1348 23.3241 27.1536 23.2468 27.1882 23.1745C27.22 23.1007 27.2644 23.0313 27.3149 22.9661C27.3655 22.9014 27.4234 22.8418 27.4846 22.7878C27.5467 22.7347 27.6106 22.6854 27.6776 22.6433C27.7104 22.6213 27.7438 22.6016 27.7778 22.5831C27.8106 22.5635 27.8446 22.547 27.878 22.5304C27.9066 22.5165 27.9347 22.5038 27.9631 22.4917C27.88 22.4907 27.7965 22.491 27.7131 22.4927C27.6352 22.4949 27.5575 22.4985 27.4801 22.5039C27.4038 22.5094 27.3235 22.5173 27.2532 22.5279L26.9004 22.5804L27.3201 22.1338C27.3778 22.0686 27.4378 22.005 27.4939 21.9387C27.5505 21.8725 27.6088 21.8076 27.6639 21.7403C27.7198 21.6735 27.7752 21.6059 27.8286 21.5372C27.8834 21.4695 27.935 21.3992 27.988 21.3297C28.0397 21.2599 28.0905 21.189 28.1411 21.1177C28.1902 21.0455 28.2408 20.9746 28.2885 20.9017C28.3376 20.8296 28.3837 20.7553 28.4305 20.6818C28.4757 20.6069 28.5218 20.5327 28.5645 20.457C28.6089 20.3816 28.6496 20.3049 28.692 20.2284C28.7334 20.1513 28.7739 20.0742 28.8128 19.9958C28.8516 19.9174 28.8892 19.8387 28.9248 19.7589C28.9959 19.5992 29.0648 19.4381 29.1234 19.2728C29.1822 19.108 29.2386 18.9413 29.2757 18.7691C29.2666 18.8565 29.2509 18.9435 29.2341 19.03C29.2168 19.1167 29.197 19.2026 29.174 19.288C29.1284 19.4587 29.0759 19.6281 29.0142 19.7944C28.9834 19.8776 28.9513 19.9602 28.9178 20.0421C28.8838 20.1242 28.8484 20.2054 28.812 20.2867C28.7748 20.3673 28.7367 20.4473 28.6962 20.5265C28.657 20.6061 28.6144 20.6842 28.5726 20.763C28.4867 20.9186 28.3975 21.0727 28.3017 21.223C28.2534 21.2977 28.2045 21.3723 28.1546 21.4459C28.1034 21.519 28.0536 21.593 28.0004 21.6641C27.9484 21.7366 27.8948 21.8078 27.8402 21.8781C27.7865 21.9494 27.7302 22.0184 27.6741 22.0878C27.6304 22.1416 27.5845 22.1944 27.5393 22.2474C27.5944 22.2425 27.6494 22.2386 27.7044 22.2355C27.8677 22.2265 28.0314 22.2265 28.1947 22.2329C28.521 22.2452 28.8462 22.2824 29.1671 22.343C29.2836 22.366 29.3992 22.3934 29.5145 22.423C29.5168 22.4224 29.5185 22.422 29.5208 22.4214C29.5527 22.4132 29.5864 22.4044 29.6213 22.3951C29.6562 22.3848 29.6924 22.3728 29.7302 22.3612C29.7681 22.3494 29.8072 22.3371 29.8482 22.3243C29.8889 22.3112 29.9301 22.2949 29.9728 22.2797C30.0157 22.2635 30.0603 22.2489 30.1051 22.2303C30.1495 22.2113 30.1949 22.1919 30.2419 22.1717C30.2888 22.1525 30.3358 22.1292 30.3833 22.1056C30.431 22.0816 30.481 22.0603 30.5285 22.0317C30.5766 22.0043 30.626 21.9764 30.676 21.948C30.7243 21.9169 30.7733 21.8851 30.8237 21.853C30.8729 21.8195 30.9212 21.7834 30.9711 21.748C31.0209 21.7126 31.067 21.6709 31.1166 21.6321C31.3082 21.4701 31.49 21.2767 31.647 21.055C31.804 20.8334 31.937 20.5847 32.0363 20.3179C32.0887 20.1857 32.1264 20.0468 32.1636 19.9077C32.1971 19.7678 32.2227 19.6251 32.2412 19.4813C32.2586 19.3376 32.269 19.1931 32.2706 19.0489C32.27 18.9769 32.2695 18.9049 32.2649 18.8333C32.2636 18.7974 32.2605 18.7628 32.2572 18.7282C32.2546 18.6938 32.2513 18.6589 32.2458 18.6218L32.2386 18.5667L32.237 18.5528L32.2362 18.5461C32.2368 18.5493 32.2356 18.5438 32.2356 18.5428L32.2312 18.5205C32.229 18.5053 32.2251 18.4914 32.2208 18.4772C32.2171 18.4627 32.2129 18.449 32.2073 18.4354C32.1876 18.3809 32.1585 18.3314 32.1204 18.2872C32.0448 18.1987 31.9341 18.1344 31.8143 18.0891C31.6933 18.0445 31.5638 18.0182 31.4345 17.9995C31.305 17.9814 31.1756 17.9729 31.0481 17.9705C30.7942 17.9665 30.5509 17.9811 30.3269 18.0022C29.8786 18.0465 29.5058 18.1106 29.2454 18.158C28.9849 18.2064 28.8369 18.239 28.8369 18.239C28.8369 18.239 28.872 18.225 28.9394 18.2015C29.0067 18.1786 29.1053 18.1435 29.2327 18.1052C29.3598 18.0664 29.5149 18.0208 29.6951 17.9762C29.875 17.9311 30.0798 17.8843 30.3061 17.8468C30.5325 17.8084 30.7803 17.7748 31.0467 17.7667C31.1799 17.7622 31.3178 17.764 31.4603 17.7759C31.6026 17.7878 31.749 17.814 31.896 17.8623C32.0417 17.9123 32.1929 17.989 32.3126 18.1183C32.3718 18.1821 32.4206 18.2592 32.4535 18.3415C32.4626 18.3621 32.4692 18.3827 32.4752 18.4043C32.482 18.4254 32.4874 18.4467 32.4913 18.4682L32.5 18.5108L32.5008 18.5176L32.5029 18.5313L32.5105 18.5861C32.5161 18.6216 32.5201 18.6608 32.5241 18.7001C32.5281 18.7394 32.532 18.7787 32.534 18.8169C32.5396 18.894 32.5414 18.9715 32.5426 19.0488C32.5427 19.204 32.533 19.3592 32.5159 19.514C32.496 19.6682 32.467 19.8216 32.43 19.9724C32.3905 20.1223 32.3456 20.2708 32.287 20.4131C32.2606 20.4854 32.2262 20.554 32.1965 20.6239C32.1604 20.6912 32.1293 20.7602 32.0899 20.8251C32.071 20.8577 32.0522 20.8902 32.0334 20.9227C32.0137 20.9546 31.9926 20.9858 31.9725 21.0168C31.933 21.0803 31.8879 21.1388 31.8441 21.1976C31.6686 21.4328 31.4602 21.6295 31.247 21.7913C31.0335 21.9538 30.8128 22.0796 30.6005 22.1723C30.3885 22.266 30.1876 22.3353 30.0058 22.3798C29.9605 22.3909 29.9171 22.4039 29.8745 22.4134C29.832 22.4217 29.7905 22.4301 29.7513 22.4379C29.7159 22.4444 29.682 22.4516 29.6494 22.4573C29.8049 22.501 29.9591 22.5504 30.1103 22.6053C30.2636 22.6612 30.4155 22.7215 30.5629 22.7904C30.7107 22.8591 30.8556 22.9335 30.9977 23.0132C31.0901 23.0655 31.1812 23.1211 31.2712 23.1777C31.368 23.1908 31.4765 23.2029 31.5965 23.2108C31.7667 23.222 31.9585 23.2206 32.1643 23.1998C32.3698 23.1774 32.5894 23.1315 32.8097 23.0528C33.03 22.9739 33.2488 22.8588 33.4563 22.7123C33.6635 22.5655 33.8553 22.3841 34.0289 22.1804C34.2025 21.9767 34.3569 21.7507 34.4912 21.5122C34.6269 21.2744 34.7436 21.025 34.8401 20.7722C34.8887 20.6459 34.9317 20.5186 34.9726 20.3925C34.9838 20.358 34.9902 20.3335 34.9977 20.305L35.0059 20.2634L35.0113 20.2221C35.0165 20.1672 35.0136 20.1136 35.0024 20.0616C34.9805 19.9578 34.9228 19.8626 34.8468 19.7803C34.7712 19.6969 34.6776 19.6268 34.5804 19.566C34.4824 19.5056 34.3802 19.4555 34.2783 19.4112C34.1771 19.3662 34.0755 19.3279 33.9767 19.2939C33.7787 19.2276 33.5922 19.1771 33.4258 19.1361C33.2591 19.0968 33.1119 19.0659 32.9902 19.043C32.747 18.9971 32.6059 18.9774 32.6059 18.9774C32.6059 18.9774 32.6414 18.9765 32.7084 18.9771C32.7752 18.9782 32.8729 18.9797 32.9976 18.988C33.122 18.9959 33.2732 19.008 33.446 19.0316C33.6191 19.0546 33.8132 19.0872 34.0235 19.141C34.2331 19.1946 34.4597 19.2649 34.686 19.3866C34.7984 19.4481 34.9122 19.5218 35.0137 19.6216C35.1149 19.7206 35.203 19.8514 35.242 20.0055C35.2618 20.0819 35.2685 20.1621 35.2641 20.2405L35.2586 20.2992L35.249 20.3568C35.241 20.3937 35.231 20.4346 35.2221 20.4655C35.1849 20.5994 35.1403 20.7325 35.0913 20.8651C35.0887 20.8725 35.0852 20.8798 35.0826 20.8872C35.1349 20.908 35.1983 20.9334 35.2726 20.9665C35.3835 21.0156 35.5174 21.0769 35.6668 21.156C35.8164 21.2346 35.9834 21.3286 36.1574 21.4464C36.3316 21.5634 36.5142 21.7028 36.6846 21.8828C36.7683 21.9744 36.8491 22.0758 36.9162 22.1943C36.9838 22.3116 37.031 22.4541 37.034 22.6069C37.0381 22.7599 36.9877 22.9158 36.9057 23.043L36.8751 23.0913C36.8643 23.1078 36.8553 23.1188 36.8451 23.1334C36.8255 23.1602 36.8054 23.1872 36.7856 23.2146C36.7476 23.2656 36.7078 23.3159 36.6681 23.3657C36.7076 23.3979 36.7555 23.4378 36.8107 23.4874C36.8904 23.5582 36.9861 23.6461 37.0898 23.7536C37.1938 23.8603 37.3082 23.985 37.4206 24.132C37.534 24.2785 37.6492 24.4456 37.7396 24.6464C37.784 24.747 37.8236 24.8555 37.8432 24.9763C37.8637 25.096 37.8607 25.2314 37.8137 25.362C37.768 25.4931 37.6746 25.6085 37.5662 25.6895C37.4689 25.7627 37.3739 25.827 37.273 25.8912C37.2959 25.9406 37.3225 26.0051 37.3487 26.085C37.3822 26.1883 37.4179 26.316 37.4454 26.4654C37.4734 26.6148 37.4972 26.7848 37.5057 26.9725C37.5142 27.1597 37.5139 27.365 37.4836 27.5816C37.4686 27.6895 37.4477 27.801 37.4164 27.9134C37.3846 28.0259 37.3436 28.1404 37.2815 28.2509C37.221 28.3611 37.1415 28.4694 37.0347 28.5588C36.9289 28.6482 36.7938 28.7137 36.6526 28.7395C36.634 28.7423 36.6191 28.7454 36.5977 28.7477L36.5522 28.7524L36.5064 28.7574L36.4559 28.7599C36.4336 28.7616 36.4122 28.7618 36.3907 28.7621C36.3818 28.7898 36.3719 28.8196 36.36 28.8528C36.3298 28.9371 36.2931 29.0398 36.2443 29.1551C36.1954 29.2704 36.1394 29.4003 36.0699 29.5383C36.0007 29.6767 35.9194 29.824 35.8223 29.9748C35.7256 30.1254 35.6133 30.2796 35.477 30.4266C35.3404 30.5721 35.1789 30.714 34.9741 30.8117C34.8723 30.8601 34.7581 30.8951 34.6389 30.906C34.6091 30.9093 34.5788 30.9102 34.5489 30.91C34.5193 30.9101 34.4967 30.9093 34.4692 30.9085C34.4161 30.9072 34.3636 30.9036 34.3104 30.8999C34.1938 30.8913 34.0758 30.8768 33.9589 30.852C33.9418 30.8496 33.9241 30.847 33.9066 30.8437C33.891 30.9058 33.8684 30.9621 33.8457 31.0198L33.8002 31.1182L33.7487 31.2134C33.7323 31.2458 33.7113 31.2752 33.6928 31.3061C33.6733 31.3364 33.6557 31.3684 33.6346 31.3974C33.5918 31.4552 33.5533 31.5166 33.5071 31.5717C33.461 31.6271 33.4185 31.6854 33.3695 31.7381C33.3208 31.7913 33.2729 31.8449 33.2238 31.8973L33.069 32.0475C33.0436 32.0731 33.0169 32.0972 32.9894 32.1203L32.9077 32.1909C32.801 32.2879 32.6854 32.3729 32.5722 32.4618C32.5161 32.5073 32.4556 32.5458 32.3973 32.5878L32.2205 32.7112C32.0994 32.7882 31.9769 32.8634 31.8548 32.9393L31.4786 33.1497C31.3489 33.2177 31.2245 33.2794 31.097 33.3448C30.9692 33.4082 30.8362 33.4672 30.7055 33.528C30.5732 33.5855 30.4394 33.6387 30.3061 33.6931L30.1023 33.767L30.0003 33.8036C29.9662 33.8156 29.9316 33.8257 29.8972 33.8369L29.6895 33.9018L29.4785 33.9578C29.4089 33.9779 29.3364 33.9901 29.2655 34.0067C29.1946 34.0232 29.1219 34.035 29.0496 34.0467C28.9051 34.0719 28.7571 34.0842 28.6085 34.0906C28.5332 34.0909 28.4583 34.0921 28.3819 34.0859C28.3442 34.0844 28.3048 34.0785 28.2665 34.0747C28.2251 34.0678 28.1919 34.064 28.1395 34.0492L28.1191 34.0433L28.1004 34.029C27.9146 33.8876 27.745 33.7393 27.5824 33.5739C27.5017 33.4915 27.4241 33.4049 27.3517 33.3113C27.2798 33.2174 27.2122 33.1179 27.1592 33.0031C27.134 32.9446 27.1096 32.8848 27.097 32.8165C27.0742 32.7507 27.0723 32.6759 27.083 32.6019ZM36.6296 22.9764C36.6392 22.9635 36.6515 22.949 36.659 22.9382L36.6824 22.9034C36.7461 22.811 36.7825 22.7099 36.7841 22.6059C36.786 22.5016 36.7562 22.3954 36.707 22.2956C36.6582 22.1956 36.5927 22.1023 36.5226 22.0153C36.3767 21.8443 36.2145 21.6965 36.0563 21.5701C35.7377 21.3186 35.4453 21.1367 35.2402 21.0122C35.1726 20.9718 35.1141 20.9375 35.0659 20.9095C34.9707 21.1586 34.8594 21.4064 34.7248 21.6436C34.5816 21.8952 34.4152 22.1356 34.224 22.3504C34.034 22.5666 33.8167 22.7544 33.5867 22.9071C33.3566 23.0609 33.1088 23.1703 32.8668 23.2424C32.6244 23.316 32.386 23.3456 32.168 23.352C32.0589 23.3556 31.9545 23.3522 31.8557 23.3452C31.7572 23.336 31.6639 23.3257 31.5776 23.3111C31.527 23.3031 31.4794 23.2941 31.4331 23.2845C31.5585 23.3692 31.6791 23.4608 31.7977 23.5545C31.8555 23.6007 31.9122 23.648 31.9682 23.6962C31.9914 23.7099 32.0145 23.7236 32.0385 23.7379C32.1044 23.7797 32.1707 23.828 32.2416 23.876C32.3861 23.9693 32.5302 24.0877 32.6848 24.2107C32.7584 24.2767 32.8337 24.3451 32.9112 24.4149C32.9513 24.4483 32.9856 24.4888 33.0223 24.5269C33.0277 24.5324 33.033 24.538 33.0384 24.5436C33.0636 24.5532 33.0886 24.5624 33.1152 24.5704C33.1614 24.5841 33.2087 24.5979 33.2569 24.6122C33.4513 24.6629 33.6656 24.6989 33.8924 24.703C34.1189 24.7067 34.3566 24.6734 34.5921 24.6045C34.8287 24.5371 35.0578 24.422 35.278 24.2848C35.4983 24.1465 35.7051 23.978 35.8991 23.7949C36.094 23.6125 36.2754 23.4132 36.443 23.2077C36.4855 23.1566 36.526 23.1044 36.5665 23.0533C36.5887 23.0287 36.6091 23.0025 36.6296 22.9764ZM37.3358 25.5291C37.359 25.5137 37.3875 25.4958 37.4052 25.4827C37.4859 25.4268 37.5455 25.3571 37.5785 25.2751C37.6454 25.1102 37.608 24.9031 37.5405 24.7215C37.5066 24.6301 37.4648 24.542 37.4206 24.4586C37.377 24.3745 37.3301 24.2949 37.2823 24.2198C37.0898 23.92 36.8987 23.6854 36.7632 23.5231C36.7169 23.4677 36.6767 23.4216 36.6443 23.3839C36.6182 23.4164 36.5915 23.4486 36.5649 23.4809C36.5785 23.4992 36.6058 23.5368 36.6436 23.5928C36.6977 23.6734 36.773 23.7896 36.8533 23.9358C36.9345 24.0816 37.0203 24.2569 37.0938 24.4548C37.129 24.5542 37.1608 24.6594 37.1827 24.7703C37.2047 24.8813 37.2155 24.9992 37.1987 25.1212C37.1907 25.1821 37.1732 25.2441 37.1452 25.3029C37.1173 25.3617 37.0757 25.416 37.026 25.4599C36.9299 25.5375 36.8399 25.5924 36.7457 25.6461C36.6523 25.698 36.5595 25.743 36.4683 25.7785C36.3777 25.8154 36.2902 25.845 36.2079 25.8677C36.1664 25.8781 36.1275 25.8898 36.0895 25.897C36.0515 25.9043 36.0154 25.9121 35.9811 25.9175C35.9129 25.9293 35.8531 25.9348 35.8034 25.9381C35.754 25.9421 35.7151 25.9412 35.6885 25.9413C35.662 25.9409 35.6476 25.9408 35.6476 25.9408C35.6476 25.9408 35.6608 25.9353 35.6855 25.9259C35.7101 25.9155 35.7463 25.9047 35.7914 25.8858C35.8143 25.8769 35.839 25.8679 35.8663 25.8577C35.8933 25.8467 35.9224 25.8341 35.9536 25.8224C36.0158 25.7974 36.0847 25.7676 36.1592 25.7355C36.2327 25.7004 36.3139 25.6662 36.3965 25.6236C36.4791 25.581 36.5662 25.5367 36.6538 25.4867C36.6973 25.4615 36.7421 25.4368 36.7858 25.4089C36.8087 25.3958 36.8296 25.3821 36.8511 25.3686L36.8847 25.3462C36.8941 25.3402 36.9022 25.3337 36.9109 25.3275C36.9776 25.2743 37.0196 25.1918 37.0364 25.0957C37.0532 25 37.049 24.8957 37.036 24.7931C37.0222 24.6904 36.9986 24.5894 36.9713 24.4923C36.9443 24.3949 36.9136 24.3014 36.881 24.2135C36.8484 24.1255 36.8159 24.0431 36.7842 23.9673C36.7204 23.8161 36.6628 23.6909 36.6209 23.6038C36.5925 23.5443 36.5721 23.5029 36.5615 23.4825C36.4152 23.6593 36.2586 23.8318 36.0893 23.9943C35.8832 24.1873 35.6614 24.367 35.4192 24.5119C35.1792 24.6588 34.9198 24.7718 34.6568 24.8388C34.3942 24.908 34.1287 24.9273 33.882 24.909C33.6494 24.893 33.4345 24.841 33.2432 24.776C33.2769 24.8171 33.3106 24.8584 33.3446 24.9004C33.412 24.9903 33.4761 25.0849 33.538 25.1821C33.5663 25.2325 33.595 25.2832 33.6234 25.3335C33.6372 25.3594 33.6529 25.3839 33.6654 25.4103L33.7014 25.4906C33.7248 25.5444 33.7505 25.5976 33.7719 25.6523L33.8298 25.8196C33.8302 25.8214 33.831 25.8231 33.8314 25.825C33.8997 25.8783 33.9733 25.9317 34.0536 25.9833C34.2027 26.0774 34.3733 26.1621 34.5622 26.2237C34.7511 26.2852 34.9586 26.319 35.1741 26.323C35.3899 26.3277 35.6131 26.2953 35.8353 26.2411C36.0571 26.185 36.2779 26.1044 36.4914 26.0055C36.7059 25.9086 36.9142 25.7939 37.1128 25.6702C37.1628 25.6394 37.2117 25.6074 37.2602 25.5758C37.287 25.5603 37.3117 25.5448 37.3358 25.5291ZM36.4321 28.4932L36.4736 28.4919L36.5191 28.4876L36.5648 28.4834C36.5733 28.4828 36.5888 28.4798 36.6003 28.4783C36.6994 28.4628 36.7905 28.4238 36.8692 28.3627C36.948 28.3021 37.0139 28.2213 37.0678 28.1317C37.1745 27.9517 37.2396 27.7456 37.2794 27.5462C37.3179 27.3465 37.3392 27.1514 37.3458 26.9712C37.3516 26.7903 37.3494 26.6235 37.3379 26.4764C37.3263 26.3289 37.3107 26.2005 37.2908 26.0957C37.2763 26.0173 37.261 25.952 37.2472 25.9012C37.1645 25.9539 37.0792 26.005 36.9928 26.0545C37.0049 26.1498 37.0199 26.2831 37.0267 26.4436C37.0347 26.6096 37.0337 26.8045 37.011 27.0144C36.9985 27.1191 36.98 27.2274 36.9501 27.3365C36.9203 27.4456 36.8779 27.5561 36.8083 27.6586C36.7738 27.7094 36.7309 27.7577 36.6797 27.7983C36.6283 27.839 36.5669 27.8692 36.5027 27.887C36.3816 27.9142 36.2768 27.9244 36.1683 27.9311C36.0617 27.9365 35.958 27.9364 35.8607 27.9287C35.763 27.922 35.6711 27.9105 35.5874 27.8947C35.5456 27.886 35.5055 27.8795 35.4676 27.8693C35.4302 27.859 35.3946 27.8503 35.3614 27.8404C35.2955 27.821 35.2388 27.7997 35.1931 27.7811C35.1473 27.7631 35.1124 27.7453 35.0886 27.7335C35.0648 27.7216 35.0525 27.7154 35.0525 27.7154C35.0525 27.7154 35.0665 27.7167 35.0931 27.7186C35.1194 27.7201 35.1574 27.7261 35.206 27.7291C35.2305 27.7309 35.2566 27.734 35.2857 27.7367C35.3147 27.7384 35.3463 27.7399 35.3794 27.7437C35.446 27.7486 35.5215 27.7517 35.6027 27.756C35.6843 27.7572 35.7721 27.7614 35.8655 27.7594C35.9586 27.7576 36.0563 27.756 36.1571 27.7493C36.2075 27.7463 36.2587 27.7429 36.3104 27.7376C36.3367 27.7355 36.3614 27.7327 36.3873 27.7299L36.4277 27.7245C36.4388 27.7232 36.449 27.7208 36.4599 27.7191C36.5431 27.7006 36.6179 27.645 36.6755 27.5662C36.7333 27.4879 36.7759 27.3919 36.8099 27.2945C36.8436 27.1963 36.8671 27.0953 36.8856 26.9963C36.9049 26.8969 36.9189 26.7996 36.929 26.7067C36.9388 26.6139 36.9468 26.5251 36.952 26.4431C36.9612 26.2921 36.9654 26.1644 36.9669 26.0696C36.8512 26.1348 36.7328 26.1973 36.6108 26.2539C36.3833 26.3575 36.1452 26.444 35.9008 26.4988C35.6574 26.5548 35.4081 26.5769 35.1678 26.5631C34.9275 26.5513 34.6975 26.496 34.4943 26.4148C34.3926 26.3741 34.2965 26.328 34.2083 26.2761C34.1204 26.2236 34.0394 26.1677 33.9646 26.1109C33.9392 26.0916 33.9153 26.0722 33.8918 26.0526C33.9248 26.2049 33.9461 26.3595 33.9501 26.5132C33.954 26.6273 33.9491 26.7401 33.9384 26.8507C33.9441 26.8622 33.9491 26.8734 33.9543 26.8852C33.9934 26.9665 34.0402 27.0477 34.0893 27.1306C34.1151 27.1715 34.1411 27.2129 34.1676 27.255C34.1962 27.2955 34.2254 27.3369 34.2547 27.3787C34.2863 27.4187 34.318 27.4594 34.3507 27.5005C34.3854 27.5397 34.4201 27.5798 34.4558 27.619C34.5293 27.6963 34.6056 27.7738 34.69 27.8453C34.8577 27.9895 35.0487 28.1167 35.2559 28.2192C35.4623 28.3226 35.6865 28.4007 35.9156 28.4469C36.0301 28.4708 36.1462 28.4868 36.262 28.4917C36.3189 28.4946 36.3783 28.4964 36.4321 28.4932ZM34.8588 30.5746C35.0216 30.5032 35.1709 30.3887 35.3016 30.2623C35.4339 30.1361 35.5493 29.9977 35.6538 29.8621C35.7579 29.7256 35.8501 29.5909 35.9325 29.4635C36.0138 29.336 36.0873 29.2175 36.1488 29.1102C36.2105 29.0031 36.2643 28.9094 36.306 28.8306C36.3198 28.8056 36.3318 28.7829 36.3435 28.761C36.3122 28.7609 36.2813 28.7607 36.25 28.7595C36.1504 28.7564 36.051 28.7466 35.9528 28.7305C35.9209 28.8147 35.8774 28.9218 35.8206 29.044C35.7869 29.1184 35.7466 29.1969 35.7021 29.2795C35.6577 29.3621 35.6089 29.4483 35.5522 29.5343C35.4964 29.6209 35.4349 29.7086 35.3666 29.7937C35.2969 29.8783 35.2208 29.9611 35.1347 30.0364C35.0911 30.0748 35.0474 30.1082 34.9963 30.1436L34.9622 30.1653L34.9212 30.1882C34.894 30.2018 34.8677 30.2151 34.8396 30.2257C34.7289 30.2697 34.6114 30.2885 34.5005 30.2873C34.3894 30.2867 34.2844 30.2663 34.1896 30.2385C34.0941 30.2115 34.0101 30.1723 33.9351 30.1334C33.8606 30.0938 33.7966 30.0505 33.7413 30.0111C33.6876 29.97 33.6418 29.9332 33.6068 29.8998C33.5713 29.8672 33.5451 29.8401 33.528 29.8209C33.5108 29.8018 33.5016 29.7916 33.5016 29.7916C33.5016 29.7916 33.514 29.7977 33.5367 29.8096C33.5595 29.8214 33.5923 29.8391 33.6348 29.8608C33.6776 29.8817 33.728 29.9082 33.788 29.934C33.8467 29.9616 33.9145 29.9888 33.9885 30.0149C34.0621 30.0424 34.1439 30.0638 34.2295 30.0823C34.3154 30.1002 34.4068 30.1089 34.4992 30.1068C34.5914 30.1044 34.6852 30.0884 34.7737 30.0557C34.7958 30.0475 34.818 30.0382 34.8391 30.028L34.8691 30.013L34.9042 29.9924C34.9425 29.9682 34.9865 29.9378 35.0254 29.9061C35.1051 29.8421 35.1792 29.7685 35.2476 29.6917C35.3173 29.6157 35.3821 29.5358 35.4416 29.4566C35.5008 29.377 35.5568 29.298 35.608 29.2218C35.6593 29.1456 35.7055 29.0718 35.7484 29.0037C35.8159 28.8941 35.8722 28.7981 35.9156 28.7216C35.8971 28.7184 35.8788 28.7156 35.8605 28.7117C35.7322 28.6879 35.6065 28.6527 35.4847 28.6085C35.423 28.5885 35.3638 28.5622 35.3043 28.5382C35.2462 28.5109 35.1874 28.4854 35.1312 28.4547C34.9038 28.338 34.7002 28.1884 34.5235 28.0237C34.4346 27.9422 34.3541 27.855 34.2792 27.7666C34.2432 27.7215 34.2087 27.6757 34.1745 27.6312C34.1427 27.5845 34.1114 27.5387 34.0805 27.4936C34.0522 27.4467 34.024 27.4009 33.9963 27.3553C33.9712 27.3085 33.9466 27.2628 33.9223 27.2177C33.912 27.1957 33.9025 27.1744 33.8924 27.1528C33.8904 27.1634 33.8883 27.1747 33.8863 27.1853C33.8545 27.3391 33.8096 27.4844 33.7601 27.6224C33.7901 27.5906 33.8211 27.5597 33.8542 27.5311C33.8175 27.5682 33.7833 27.6071 33.7512 27.6481C33.7347 27.6937 33.7177 27.7382 33.7004 27.7822C33.6286 27.9666 33.5444 28.132 33.4662 28.2834C33.3951 28.4216 33.3246 28.5448 33.2624 28.6569C33.2446 28.7311 33.225 28.8155 33.2061 28.9101C33.1829 29.0307 33.161 29.1664 33.1476 29.3139C33.1356 29.4612 33.1331 29.6207 33.158 29.7805C33.1832 29.9397 33.2391 30.0989 33.3423 30.227C33.4441 30.3556 33.592 30.4513 33.764 30.513C33.9359 30.5763 34.1281 30.6071 34.3243 30.6241C34.3731 30.6284 34.4231 30.631 34.4722 30.6338C34.4955 30.6352 34.5244 30.6364 34.5456 30.6368C34.5664 30.6374 34.5874 30.6374 34.6085 30.6353C34.6933 30.6324 34.7772 30.609 34.8588 30.5746ZM27.7592 33.3738C27.7697 33.3742 27.7825 33.3751 27.7998 33.3759C27.8208 33.3769 27.8462 33.3784 27.8764 33.3794C27.9066 33.3812 27.9409 33.3834 27.9798 33.3818C28.0185 33.3813 28.0614 33.3809 28.1078 33.3803C28.1544 33.3801 28.2046 33.3746 28.2584 33.3714C28.2853 33.3696 28.3128 33.3674 28.3412 33.3654C28.3696 33.3617 28.3986 33.3579 28.4285 33.3541C28.4882 33.346 28.5513 33.3409 28.6161 33.3277C28.7464 33.3069 28.8866 33.277 29.0332 33.2411C29.1799 33.2045 29.3331 33.1604 29.4903 33.1096C29.5686 33.0844 29.6486 33.0582 29.7283 33.0282C29.8084 33.0001 29.8889 32.9698 29.9698 32.9382C30.132 32.8769 30.2943 32.8074 30.4551 32.736C30.5356 32.7006 30.616 32.6636 30.6961 32.6274C30.7752 32.589 30.8547 32.5526 30.9326 32.5138C31.0877 32.436 31.2416 32.3609 31.3876 32.2825C31.5341 32.2049 31.6746 32.1286 31.8077 32.055C31.94 31.9802 32.065 31.9099 32.1797 31.8427C32.4087 31.7087 32.5986 31.5943 32.7303 31.5126C32.8625 31.4312 32.937 31.3835 32.937 31.3835C32.937 31.3835 32.8692 31.4407 32.746 31.5351C32.6226 31.6295 32.4435 31.7606 32.2217 31.9093C32.1112 31.9837 31.9898 32.0623 31.8598 32.1432C31.7294 32.2232 31.5917 32.3073 31.446 32.3885C31.3735 32.4298 31.2993 32.4708 31.2235 32.5117C31.1481 32.5533 31.0707 32.5929 30.9927 32.6327C30.9144 32.6727 30.8345 32.7104 30.7548 32.7495C30.6743 32.787 30.5935 32.8252 30.5119 32.8617C30.3478 32.9326 30.183 33.0012 30.0177 33.0625C29.9766 33.0779 29.9354 33.0933 29.8946 33.1085C29.8532 33.1225 29.8117 33.136 29.7711 33.1495C29.6894 33.1774 29.6075 33.2018 29.5269 33.2256C29.3661 33.2741 29.2079 33.3111 29.0567 33.3416C28.9054 33.3722 28.7609 33.3934 28.6272 33.4064C28.5607 33.4152 28.496 33.417 28.4346 33.4208C28.4041 33.4223 28.3745 33.4235 28.3453 33.4249C28.3165 33.4247 28.288 33.4242 28.2608 33.4242C28.2062 33.4226 28.1553 33.4255 28.1081 33.4204C28.0609 33.4163 28.0176 33.4128 27.9791 33.4096C27.9401 33.4076 27.9058 33.4014 27.8755 33.3962C27.8458 33.3913 27.8201 33.387 27.7995 33.3837C27.7845 33.3813 27.7728 33.3793 27.7631 33.3775C27.7662 33.3805 27.7688 33.3838 27.7716 33.3865C27.9147 33.534 28.0738 33.6746 28.2348 33.8001C28.2531 33.8039 28.2772 33.808 28.2973 33.8114C28.3297 33.8147 28.3611 33.8202 28.3945 33.8213C28.4603 33.8266 28.5277 33.826 28.5951 33.8264C28.7305 33.8208 28.8675 33.8103 29.0039 33.7895C29.0721 33.7799 29.1406 33.7701 29.2082 33.7551C29.2759 33.7406 29.3443 33.7303 29.4117 33.7119L29.6142 33.6616L29.8154 33.6022C29.8489 33.5921 29.8823 33.583 29.9158 33.5719L30.0149 33.5376L30.2137 33.4692C30.3444 33.418 30.476 33.3686 30.6055 33.3149C30.7337 33.2584 30.863 33.2064 30.9912 33.1467C31.1188 33.0859 31.2506 33.0246 31.3741 32.9637L31.748 32.7677L32.1122 32.555L32.2891 32.4413C32.3474 32.4025 32.4085 32.3672 32.4646 32.3248C32.5779 32.2423 32.6945 32.1634 32.8015 32.0734L32.8836 32.0077C32.9113 31.986 32.9384 31.9638 32.9636 31.9399L33.1198 31.8001C33.1699 31.7519 33.2186 31.7018 33.2688 31.6526C33.3192 31.6037 33.3627 31.5496 33.4098 31.4982C33.4573 31.4467 33.497 31.3898 33.5411 31.3359C33.5633 31.3088 33.5814 31.2792 33.6015 31.2511C33.6208 31.2225 33.6424 31.1946 33.6594 31.1646L33.713 31.0756L33.7616 30.9838C33.7868 30.9308 33.8123 30.8753 33.8293 30.8212C33.7748 30.8064 33.7209 30.7888 33.6675 30.7689C33.5646 30.7288 33.465 30.6778 33.374 30.613C33.2835 30.548 33.2036 30.4682 33.1394 30.3797C33.0107 30.2009 32.9559 29.994 32.9425 29.8076C32.9394 29.7629 32.9382 29.7187 32.9386 29.6757L32.9226 29.7288L32.8663 29.8934C32.8567 29.9209 32.8421 29.9464 32.8303 29.9724C32.7333 30.1838 32.5919 30.3724 32.43 30.5363C32.2662 30.6997 32.0819 30.8379 31.8887 30.96C31.7925 31.0224 31.6929 31.0773 31.593 31.1328C31.4918 31.1845 31.3911 31.2373 31.2872 31.2837C31.0813 31.3793 30.871 31.464 30.6583 31.5402C30.2325 31.6925 29.7986 31.8158 29.3643 31.9291C29.1471 31.9861 28.9296 32.0402 28.7126 32.0925C28.4954 32.1453 28.2789 32.1974 28.0664 32.2556C28.0134 32.27 27.9601 32.2847 27.9084 32.3006C27.856 32.3159 27.8046 32.3326 27.7539 32.3496C27.7278 32.3577 27.704 32.3667 27.6811 32.3756C27.6575 32.385 27.6357 32.3916 27.6102 32.4034L27.5377 32.4365C27.5368 32.4369 27.5369 32.4369 27.5377 32.4365L27.5349 32.4379L27.5313 32.4402L27.5243 32.4446L27.5096 32.4533L27.4803 32.4699C27.406 32.5192 27.3672 32.5778 27.3542 32.645C27.3538 32.6493 27.3533 32.6537 27.3529 32.658C27.3679 32.6573 27.3846 32.6568 27.4032 32.6559C27.4473 32.6539 27.501 32.6543 27.5624 32.6499C27.624 32.6445 27.693 32.6391 27.7682 32.6342C27.8059 32.6327 27.8447 32.6271 27.8853 32.6221C27.9258 32.6178 27.9671 32.6131 28.0104 32.6083C28.0962 32.6014 28.1857 32.5829 28.2793 32.5717C28.3725 32.5611 28.4675 32.5384 28.5652 32.5241C28.6627 32.5084 28.7604 32.486 28.8589 32.4673C28.9573 32.447 29.0554 32.4255 29.1519 32.4036C29.2474 32.3787 29.3432 32.3607 29.4346 32.3358C29.5261 32.3123 29.6142 32.2899 29.698 32.2686C29.782 32.2463 29.8609 32.2253 29.9341 32.2061C30.0804 32.1657 30.2018 32.1318 30.2871 32.1083C30.3727 32.0841 30.4213 32.0702 30.4213 32.0702C30.4213 32.0702 30.4099 32.0762 30.3892 32.0872C30.3678 32.0981 30.3369 32.1146 30.297 32.1334C30.2171 32.1722 30.1011 32.2243 29.9594 32.2803C29.8884 32.3081 29.8114 32.3383 29.7287 32.3662C29.6462 32.3955 29.5591 32.425 29.4671 32.4518C29.3761 32.4806 29.2809 32.506 29.1839 32.532C29.0864 32.5559 28.987 32.5791 28.8876 32.6014C28.7871 32.6191 28.6872 32.6405 28.5875 32.6547C28.538 32.6625 28.4885 32.6692 28.4398 32.6755C28.391 32.6828 28.3425 32.6875 28.2947 32.6914C28.199 32.6996 28.1073 32.71 28.0192 32.7105C27.9314 32.7123 27.8484 32.7169 27.7715 32.7129C27.6947 32.7101 27.625 32.7061 27.5626 32.7023C27.5008 32.6987 27.4468 32.6882 27.4027 32.6831C27.384 32.6805 27.3675 32.6783 27.3525 32.6759C27.3504 32.7394 27.3711 32.8145 27.4042 32.889C27.4171 32.9184 27.4331 32.9476 27.45 32.9766C27.4589 32.9769 27.469 32.9776 27.4821 32.9784C27.5232 32.9794 27.5834 32.9858 27.66 32.9853C27.7368 32.9848 27.8297 32.9859 27.936 32.9777C27.9624 32.976 27.9898 32.9745 28.0183 32.9729C28.0465 32.9709 28.0753 32.9666 28.105 32.9634C28.1644 32.956 28.2265 32.9528 28.2911 32.9414C28.4206 32.9229 28.5598 32.8971 28.7061 32.866C28.8524 32.8338 29.0049 32.7944 29.1619 32.7497C29.3191 32.7052 29.4795 32.6529 29.6419 32.597C29.8042 32.5422 29.9673 32.4795 30.1295 32.4151C30.2111 32.3838 30.2911 32.3495 30.3716 32.3171C30.4515 32.2824 30.5308 32.2486 30.6099 32.2143C30.7664 32.1435 30.9217 32.0754 31.0687 32.0042C31.3648 31.8636 31.6379 31.7252 31.8701 31.603C32.3349 31.3583 32.6392 31.1823 32.6392 31.1823C32.6392 31.1823 32.5696 31.2359 32.4437 31.3239C32.3178 31.412 32.1352 31.534 31.9099 31.6712C31.7975 31.7399 31.6743 31.8128 31.5425 31.8869C31.4106 31.9606 31.2707 32.038 31.1234 32.112C30.9763 32.1873 30.8232 32.263 30.6651 32.3346C30.5859 32.3694 30.5059 32.4051 30.4253 32.4406C30.344 32.4744 30.2633 32.5095 30.1814 32.5421C30.0169 32.6061 29.8513 32.6679 29.6857 32.7223C29.6442 32.7358 29.6032 32.7496 29.562 32.7629C29.5207 32.7748 29.4795 32.7871 29.4384 32.7995C29.3569 32.8246 29.2751 32.845 29.1947 32.8662C29.0343 32.9083 28.8766 32.94 28.7264 32.9665C28.6517 32.9804 28.5778 32.9887 28.5069 32.9991C28.4359 33.0091 28.3664 33.0128 28.3003 33.0193C28.2341 33.0265 28.17 33.0266 28.1097 33.0293C28.0794 33.0303 28.0499 33.0319 28.0214 33.0314C27.9928 33.0305 27.9649 33.0303 27.938 33.0296C27.8299 33.0301 27.7362 33.019 27.6594 33.0121C27.6206 33.0094 27.5867 33.003 27.557 32.9981C27.5273 32.9931 27.5025 32.9884 27.4819 32.9852C27.4707 32.9834 27.4617 32.9816 27.4533 32.9802C27.486 33.0361 27.5234 33.0912 27.5642 33.1447C27.6228 33.2251 27.6893 33.3008 27.7592 33.3738Z" fill="#D3E3FF"/>
<path d="M21.0712 21.1094L21.072 21.111L21.0734 21.1139L21.076 21.1202L21.0811 21.1326L21.0911 21.1572C21.0987 21.1734 21.1034 21.1905 21.1086 21.2072C21.1205 21.2406 21.1266 21.2759 21.1318 21.3104C21.1407 21.3804 21.1396 21.4512 21.1269 21.5189C21.1135 21.5865 21.0908 21.6508 21.0593 21.7099C21.0264 21.7681 20.9878 21.8209 20.9419 21.865C20.8951 21.9096 20.8479 21.9451 20.7912 21.9747C20.7622 21.9917 20.7399 21.9985 20.7157 22.0088C20.698 22.0168 20.6871 22.0185 20.673 22.0233C20.6596 22.0273 20.6465 22.0321 20.6329 22.0346C20.5248 22.059 20.4208 22.055 20.3319 22.035C20.2422 22.0144 20.1677 21.9777 20.1076 21.9382C20.0476 21.8986 20.0034 21.8539 19.9708 21.8158C19.9549 21.796 19.9402 21.7786 19.9298 21.7618C19.9188 21.7457 19.9095 21.732 19.9034 21.7197C19.9095 21.732 19.9201 21.7451 19.9319 21.7608C19.9425 21.7771 19.9567 21.7946 19.9743 21.8125C20.009 21.8486 20.0555 21.8897 20.1179 21.9204C20.1797 21.9521 20.2557 21.9753 20.3392 21.978C20.4223 21.981 20.5113 21.9618 20.5919 21.9212C20.6021 21.9168 20.6114 21.9097 20.6215 21.9043C20.63 21.8986 20.6435 21.8926 20.6481 21.8873C20.6685 21.8724 20.6927 21.8571 20.7056 21.8427C20.7365 21.816 20.767 21.7768 20.792 21.7403C20.8169 21.7022 20.8353 21.6602 20.8499 21.618C20.8637 21.5752 20.8709 21.5306 20.8746 21.486C20.8766 21.4413 20.8727 21.3969 20.8648 21.3539C20.8588 21.3324 20.855 21.3109 20.8469 21.2903C20.8432 21.2799 20.8404 21.269 20.8352 21.2594L20.8283 21.2444L20.825 21.2368L20.8233 21.2332L20.8223 21.2311C20.8094 21.2084 20.7949 21.1787 20.7859 21.1688C20.7769 21.1538 20.7614 21.1369 20.7484 21.1188C20.7187 21.0859 20.6857 21.0561 20.6492 21.03C20.6117 21.0059 20.5719 20.9835 20.5291 20.9686C20.4866 20.9541 20.4419 20.9427 20.3964 20.9389C20.3513 20.9358 20.3047 20.9349 20.2599 20.944C20.2369 20.9464 20.2154 20.9538 20.1931 20.9595L20.189 20.9605L20.1867 20.9611C20.1923 20.9579 20.1867 20.9611 20.188 20.9605L20.1791 20.9643L20.161 20.9715C20.1501 20.9764 20.1364 20.9809 20.1271 20.986C20.0902 21.0038 20.0496 21.0265 20.0168 21.0546C19.9825 21.0819 19.9542 21.114 19.9287 21.1467C19.8797 21.2138 19.8514 21.2875 19.8384 21.3548C19.8242 21.4228 19.8288 21.4842 19.8362 21.5335C19.8397 21.5582 19.8449 21.5801 19.8515 21.5988C19.8571 21.6174 19.8619 21.6334 19.8676 21.6459C19.8615 21.6337 19.8554 21.6182 19.8494 21.5998C19.8424 21.5813 19.8372 21.5595 19.8316 21.5347C19.8212 21.4853 19.8128 21.4237 19.8176 21.3521C19.823 21.2808 19.8396 21.2001 19.8779 21.1174C19.8985 21.0769 19.9211 21.0344 19.953 20.995C19.9829 20.9536 20.0201 20.9177 20.0658 20.8803C20.147 20.815 20.263 20.7598 20.3885 20.7438C20.4518 20.7349 20.5178 20.7375 20.5841 20.7471C20.65 20.759 20.716 20.7804 20.7777 20.812C20.8396 20.8436 20.8963 20.8869 20.9465 20.9368C20.9706 20.9628 20.9939 20.9881 21.0163 21.022C21.0277 21.0379 21.0393 21.0551 21.0447 21.0662L21.0663 21.1036C21.0738 21.1148 21.0695 21.1061 21.0712 21.1094Z" fill="#D3E3FF"/>
<path d="M20.1265 21.408C20.2504 21.3479 20.3996 21.3988 20.4601 21.5216C20.5207 21.6443 20.469 21.7924 20.3456 21.8523C20.2218 21.9123 20.0725 21.8615 20.012 21.7388C19.951 21.6162 20.0027 21.468 20.1265 21.408Z" fill="#D3E3FF"/>
<defs>
<linearGradient id="paint0_linear_58127_1495" x1="21.6576" y1="19.843" x2="42.6332" y2="29.1608" gradientUnits="userSpaceOnUse">
<stop stop-color="#FDAC34"/>
<stop offset="1" stop-color="#FF900E"/>
</linearGradient>
<linearGradient id="paint1_linear_58127_1495" x1="20.9637" y1="18.5623" x2="39.0279" y2="17.9251" gradientUnits="userSpaceOnUse">
<stop stop-color="#FDAC34"/>
<stop offset="1" stop-color="#FF900E"/>
</linearGradient>
<linearGradient id="paint2_linear_58127_1495" x1="31.2633" y1="17.5166" x2="23.4371" y2="27.449" gradientUnits="userSpaceOnUse">
<stop stop-color="#FDAC34"/>
<stop offset="1" stop-color="#FF900E"/>
</linearGradient>
<linearGradient id="paint3_linear_58127_1495" x1="24.3919" y1="25.7973" x2="38.1272" y2="21.8431" gradientUnits="userSpaceOnUse">
<stop stop-color="#FDAC34"/>
<stop offset="1" stop-color="#FF9412"/>
</linearGradient>
</defs>
</svg>
