<svg width="179" height="66" viewBox="0 0 179 66" fill="none" xmlns="http://www.w3.org/2000/svg">
<path d="M0 33C0 14.7746 14.7746 0 33 0H146C164.225 0 179 14.7746 179 33C179 51.2254 164.225 66 146 66H33C14.7746 66 0 51.2254 0 33Z" fill="#F8F8F8"/>
<rect x="8" y="8" width="50" height="50" rx="25" fill="#FDFDFD"/>
<path d="M40.7747 32.5249C40.0219 31.3984 37.5742 30.4998 37.5742 30.4998L40.373 26.9603C40.373 26.9603 42.1602 27.0694 43.0391 27.7116C43.2096 28.1466 43.066 28.9062 43.066 28.9062C43.066 28.9062 44.9405 29.7626 44.8961 30.5272C44.8778 30.8397 44.5137 31.177 44.5137 31.177C44.8965 31.8584 45.3943 31.6327 45.8119 33.3346C45.6582 33.5799 45.4825 33.68 45.2615 33.8335C45.2615 33.8335 45.8366 35.7901 45.0314 36.4067C44.8102 36.5762 44.3886 36.7184 44.3886 36.7184C44.3886 36.7184 43.7826 38.6187 42.7703 38.7568C42.1369 38.8432 41.5895 38.7698 41.2126 38.2578C40.8354 37.7457 41.2083 36.6342 41.2083 36.6342C41.2083 36.6342 41.7825 35.5771 41.7888 34.8666C41.7953 34.156 41.5401 33.2222 40.7747 32.5249Z" fill="url(#paint0_linear_58127_1494)"/>
<path d="M40.2133 26.2498C39.3552 25.2934 36.7876 26.2381 36.7876 26.2381C36.7876 26.2381 35.0971 27.94 34.0452 29.7969C33.696 30.8261 34.3384 30.6765 34.3384 30.6765C34.3384 30.6765 35.5358 30.5244 36.4499 30.3033C37.2918 30.8707 39.3064 29.9725 39.9066 28.9529C40.4892 27.9632 40.5242 27.2602 40.2133 26.2498Z" fill="url(#paint1_linear_58127_1494)"/>
<path d="M38.7974 39.3377C40.6468 38.8129 40.9215 37.5649 40.9215 37.5649L41.9088 38.712C41.9088 38.712 41.711 39.186 41.5256 39.4551C41.2148 39.9062 40.9357 40.0813 40.5006 40.4164C38.5142 41.5186 38.021 41.9434 36.233 41.9275C35.8055 41.6626 35.4296 41.5114 35.3189 41.0237C35.2656 40.7891 35.2972 40.6443 35.3432 40.4081C36.7044 39.7483 37.1161 40.0132 38.7974 39.3377Z" fill="url(#paint2_linear_58127_1494)"/>
<path d="M24.5022 29.5446L24.2031 29.318L24.5611 29.2839C24.5611 29.2839 25.8588 29.2301 27.5976 28.6016C29.4125 27.7219 31.036 26.9707 32.2307 26.2167C33.7619 25.5958 35.2887 24.7344 36.4318 25.8059C37.1503 26.4794 35.8177 29.728 33.8851 30.6167C32.212 31.386 30.8581 31.1376 29.0261 30.9282C27.1939 30.719 24.5022 29.5446 24.5022 29.5446Z" fill="url(#paint3_linear_58127_1494)"/>
<path d="M20.3263 29.1369L20.2988 29.0769C20.28 29.0378 20.2626 28.9953 20.2455 28.9522C20.2279 28.9093 20.211 28.8667 20.1968 28.8242C20.1819 28.7816 20.166 28.7389 20.1536 28.695C20.0995 28.5218 20.0596 28.3442 20.0352 28.1648C19.9855 27.8058 19.9892 27.4407 20.0415 27.0846C20.0954 26.7288 20.1952 26.3817 20.3377 26.0557C20.6218 25.4037 21.0766 24.8367 21.6311 24.4408C21.9088 24.2431 22.2133 24.0874 22.5327 23.9982C22.8516 23.9092 23.1828 23.8856 23.4952 23.9331C23.8076 23.9796 24.1008 24.0955 24.3438 24.2657C24.587 24.4352 24.7801 24.6602 24.8935 24.911C24.9505 25.036 24.987 25.1673 25.0022 25.2979C25.0169 25.4286 25.0095 25.5584 24.9845 25.6804C24.972 25.7414 24.9547 25.8012 24.9347 25.8572C24.9154 25.9128 24.8924 25.9693 24.8674 26.0216C24.818 26.1275 24.7573 26.225 24.6879 26.3111C24.5488 26.4839 24.3687 26.6047 24.1853 26.6615C24.0013 26.7192 23.8186 26.7162 23.6654 26.6759C23.5115 26.6365 23.3876 26.5602 23.2978 26.4781C23.2081 26.3949 23.152 26.3061 23.1172 26.2303C23.082 26.1548 23.0679 26.0919 23.0596 26.0502C23.0555 26.0293 23.0531 26.0131 23.052 26.0025C23.0538 26.0133 23.0569 26.0291 23.0615 26.0498C23.0712 26.0913 23.0873 26.1532 23.1246 26.2268C23.1613 26.3 23.2199 26.3856 23.3103 26.4639C23.4004 26.5413 23.5235 26.6099 23.6727 26.645C23.8214 26.6802 23.9971 26.6784 24.1709 26.6187C24.3446 26.5599 24.5118 26.4412 24.6402 26.2737C24.704 26.1898 24.7597 26.0956 24.8046 25.993C24.8494 25.8904 24.8873 25.7799 24.9067 25.6652C24.9477 25.4352 24.9137 25.182 24.8032 24.9517C24.6929 24.7207 24.5088 24.5139 24.2778 24.3597C24.047 24.205 23.7702 24.1015 23.4765 24.0638C23.1826 24.0256 22.8728 24.0531 22.5749 24.1431C22.426 24.1888 22.2793 24.2472 22.1374 24.3195C21.9957 24.3923 21.8584 24.4771 21.7273 24.5723C21.2007 24.9552 20.7722 25.5017 20.5006 26.1258C20.3652 26.4382 20.2705 26.7706 20.2196 27.1107C20.1703 27.451 20.1678 27.7988 20.2159 28.1398C20.2393 28.31 20.2786 28.4783 20.3287 28.6422C20.3399 28.6836 20.3556 28.7238 20.3695 28.7644C20.3829 28.8052 20.3984 28.845 20.4144 28.8836C20.4295 28.9226 20.4452 28.9618 20.4647 29.0022L20.4922 29.0621C20.4966 29.0712 20.5021 29.0843 20.5053 29.0899L20.5201 29.1187C20.6751 29.4278 20.8592 29.7211 21.0838 29.9766C21.1378 30.0425 21.1987 30.1015 21.2567 30.1629C21.3189 30.2203 21.3786 30.2799 21.4445 30.3324C21.5079 30.3882 21.5761 30.437 21.6427 30.4877C21.7124 30.5343 21.7804 30.5828 21.853 30.6239C21.9236 30.6681 21.9983 30.7051 22.0713 30.744C22.1469 30.7785 22.221 30.8154 22.2981 30.8447C22.3741 30.877 22.4524 30.9027 22.5297 30.9303C22.6085 30.9537 22.686 30.9798 22.7656 30.9987C23.3998 31.1619 24.0471 31.1652 24.65 31.1161C24.8011 31.104 24.9501 31.0867 25.0965 31.0681C25.2424 31.0488 25.3857 31.0272 25.5282 31.0039C25.8136 30.9572 26.0937 30.9267 26.3615 30.9078C26.8979 30.8696 27.3905 30.8725 27.8256 30.8911C28.0874 30.9037 28.3276 30.9226 28.5458 30.9434C28.1941 30.8641 27.8658 30.777 27.5631 30.6907C27.0561 30.5451 26.6199 30.3994 26.2641 30.2722C26.0119 30.1823 25.8015 30.1001 25.6332 30.0316C25.4445 29.9715 25.2346 29.9006 25.0135 29.8186C24.8817 29.7689 24.7457 29.7168 24.6101 29.6564C24.5424 29.6261 24.4746 29.5938 24.4075 29.5588C24.3404 29.5215 24.2735 29.4868 24.211 29.4256C24.1963 29.4082 24.1785 29.3899 24.1712 29.3532L24.1706 29.35C24.1708 29.3524 24.1701 29.3426 24.1698 29.3432L24.1697 29.3397L24.1697 29.3325C24.1709 29.3224 24.1724 29.3099 24.1775 29.3003C24.1817 29.2901 24.1894 29.2808 24.1979 29.2731C24.2066 29.2668 24.2162 29.2612 24.2242 29.2589C24.2581 29.2485 24.2804 29.253 24.3018 29.2559C24.323 29.2593 24.3429 29.2644 24.3621 29.2699C24.4024 29.2819 24.4398 29.2953 24.4768 29.3089L24.4762 29.3067L24.4744 29.2999C24.4728 29.2905 24.4709 29.2772 24.4736 29.2672C24.475 29.2563 24.4804 29.2456 24.4863 29.2356C24.493 29.2273 24.5009 29.2194 24.5081 29.2154C24.5384 29.1966 24.5609 29.1954 24.5826 29.1925C24.6042 29.1906 24.6245 29.19 24.6442 29.1906C24.7238 29.1938 24.7946 29.2032 24.8688 29.2089C24.9037 29.2119 24.9377 29.2142 24.9725 29.2173C24.9925 29.2151 25.0133 29.2127 25.036 29.2098C25.2367 29.1858 25.5305 29.1416 25.9011 29.0688C25.994 29.0523 26.0911 29.0317 26.193 29.0093C26.2948 28.9868 26.402 28.966 26.511 28.9371C26.7296 28.8799 26.9617 28.8011 27.2046 28.7047C27.6916 28.5129 28.2222 28.2507 28.7958 27.9548C29.3688 27.6577 29.9806 27.3175 30.6349 26.9677C30.9617 26.7925 31.2983 26.6136 31.6462 26.4364C31.9938 26.2588 32.3527 26.0833 32.7249 25.9181C33.0971 25.753 33.4822 25.5963 33.8855 25.467C34.0871 25.4023 34.2931 25.3453 34.5048 25.3001C34.7162 25.2552 34.9338 25.223 35.1563 25.2153C35.3782 25.2075 35.6072 25.2232 35.831 25.2847C36.0542 25.3449 36.2717 25.4552 36.4474 25.6137C36.4698 25.634 36.4896 25.6523 36.513 25.676L36.5413 25.7051L36.5727 25.7408C36.6123 25.7877 36.648 25.8361 36.6801 25.8877C36.7435 25.9913 36.7905 26.1043 36.8194 26.22C36.8782 26.453 36.8703 26.6899 36.8329 26.9136C36.7948 27.1381 36.725 27.3515 36.6423 27.5564C36.5587 27.7614 36.4608 27.9583 36.3543 28.1483C36.1406 28.5287 35.8948 28.8849 35.6355 29.2248C35.5057 29.3946 35.3727 29.5608 35.2354 29.7215L35.1311 29.8433C35.097 29.8822 35.062 29.9215 35.0233 29.9617C34.9479 30.041 34.8708 30.1155 34.7899 30.1867C34.7548 30.2175 34.7188 30.2476 34.683 30.2767C34.6761 30.2867 34.6687 30.2979 34.6589 30.3124C34.6281 30.3552 34.5835 30.4185 34.5214 30.4955C34.4898 30.5336 34.4547 30.5756 34.4167 30.6215C34.3781 30.6672 34.3341 30.714 34.288 30.7653C34.2413 30.8164 34.1891 30.8676 34.1356 30.9237C34.0815 30.9794 34.0202 31.033 33.9591 31.0921C33.8334 31.2069 33.6934 31.3277 33.5371 31.4457C33.4608 31.5076 33.3774 31.5633 33.2938 31.6237C33.2114 31.6855 33.1208 31.7391 33.0304 31.7961C32.9848 31.8244 32.9397 31.8538 32.8927 31.8812C32.8453 31.9077 32.7974 31.9345 32.7491 31.9615C32.7008 31.9884 32.6526 32.0154 32.6039 32.0426C32.5545 32.0685 32.5032 32.0913 32.4522 32.116C32.2503 32.2165 32.0371 32.3015 31.8232 32.3828C31.7144 32.4182 31.6053 32.4539 31.4966 32.4897C31.3945 32.5229 31.2818 32.5556 31.1847 32.593C30.9845 32.6677 30.7874 32.752 30.6098 32.8528C30.4322 32.9537 30.2687 33.0655 30.1266 33.1873C29.9852 33.3097 29.8637 33.4389 29.7639 33.5686C29.5659 33.8299 29.4576 34.088 29.4021 34.2732C29.3751 34.3661 29.3581 34.4409 29.3498 34.4928C29.3409 34.5445 29.3394 34.5727 29.3394 34.5727C29.3394 34.5727 29.3364 34.5446 29.3371 34.4919C29.3378 34.4392 29.3409 34.3613 29.3568 34.2636C29.3721 34.1656 29.3994 34.047 29.4472 33.916C29.4945 33.7852 29.5599 33.64 29.6541 33.4947C29.7467 33.3485 29.865 33.2001 30.0089 33.0621C30.152 32.9237 30.3188 32.7924 30.5052 32.6802C30.6918 32.5674 30.8916 32.4669 31.1068 32.3861C31.2167 32.3424 31.3186 32.3119 31.4295 32.2745C31.5341 32.239 31.6388 32.2036 31.7438 32.1678C31.9516 32.0916 32.1587 32.0121 32.355 31.9169C32.4043 31.894 32.454 31.8719 32.5029 31.8482C32.5507 31.8236 32.5988 31.7993 32.6462 31.7747C32.6937 31.7502 32.7413 31.7261 32.7879 31.702C32.8345 31.6769 32.8791 31.6496 32.9245 31.6241C33.0149 31.5722 33.1038 31.5214 33.1878 31.467C33.2722 31.4133 33.3576 31.3638 33.4348 31.3081C33.5929 31.2009 33.7394 31.0943 33.8719 30.9924C34.0033 30.8896 34.122 30.7918 34.2252 30.7026C34.2762 30.6571 34.3236 30.6148 34.3678 30.5755C34.4111 30.5352 34.4508 30.4981 34.4866 30.4645C34.5216 30.4303 34.5532 30.3997 34.5804 30.3728C34.607 30.3456 34.6299 30.3223 34.6485 30.3036C34.6491 30.3029 34.6495 30.3027 34.6497 30.302C34.3612 30.5308 34.0426 30.7133 33.7138 30.8518C33.5761 30.9099 33.4367 30.9602 33.2963 31.0043C33.294 31.0059 33.2921 31.0073 33.2898 31.009C33.1867 31.0818 33.0695 31.1636 32.9374 31.2474C32.8051 31.3299 32.6606 31.4188 32.5016 31.5034C32.3426 31.5876 32.1709 31.6704 31.9879 31.7448C31.8047 31.8188 31.6097 31.8833 31.4114 31.9382C31.2133 31.9941 31.0134 32.0426 30.8213 32.1037C30.629 32.1643 30.444 32.2387 30.2677 32.3277L30.2054 32.3595L30.1397 32.3969L30.1067 32.4155L30.0785 32.4342L30.0222 32.4711C29.9476 32.5266 29.8743 32.583 29.8098 32.6479C29.6773 32.7736 29.5698 32.9179 29.477 33.0606C29.3839 33.2038 29.3135 33.3514 29.251 33.489C29.1894 33.6273 29.1435 33.7589 29.1038 33.8764C29.0654 33.9942 29.0365 34.0988 29.0136 34.1857C28.9693 34.3593 28.9515 34.4615 28.9515 34.4615C28.9515 34.4615 28.9461 34.3578 28.9627 34.1773C28.9706 34.087 28.9847 33.9773 29.0085 33.8528C29.0311 33.7279 29.066 33.5884 29.1147 33.4386C29.1629 33.2886 29.2293 33.1297 29.3159 32.9681C29.3597 32.8874 29.4087 32.8066 29.4659 32.7281C29.4933 32.6878 29.525 32.6501 29.5552 32.6105C29.5888 32.5733 29.62 32.5338 29.6564 32.4983C29.7256 32.4231 29.8068 32.3568 29.8907 32.2917C29.9133 32.2761 29.9359 32.2606 29.9585 32.2451L29.9928 32.2219L30.0253 32.2026L30.0908 32.1647L30.1639 32.1267C30.35 32.0304 30.5502 31.9506 30.7533 31.8888C30.9567 31.8269 31.1605 31.7811 31.3556 31.7323C31.5511 31.6833 31.7401 31.6294 31.9192 31.5659C32.0992 31.5041 32.2705 31.4343 32.4299 31.3611C32.5895 31.2884 32.7397 31.215 32.876 31.1439C32.904 31.1288 32.9313 31.1145 32.9581 31.1C32.8196 31.1335 32.681 31.1615 32.5433 31.1841C32.2123 31.2392 31.8841 31.2669 31.5637 31.2768C31.4597 31.3139 31.3396 31.3512 31.2047 31.3856C31.0821 31.4191 30.9471 31.4459 30.8063 31.476C30.6658 31.5064 30.5194 31.5361 30.3738 31.5772C30.2281 31.6178 30.0831 31.6713 29.9424 31.74C29.8723 31.7745 29.8024 31.8119 29.7344 31.854C29.6672 31.8948 29.5963 31.9403 29.5361 31.9858C29.5028 32.011 29.468 32.0361 29.4414 32.0602L29.3984 32.0968L29.3561 32.1372C29.3271 32.1634 29.3006 32.192 29.2743 32.221C29.2469 32.2486 29.2221 32.2795 29.1971 32.3088C29.0978 32.4292 29.012 32.5589 28.9384 32.6907C28.8642 32.8223 28.8024 32.9561 28.7505 33.086C28.6979 33.2158 28.6538 33.3415 28.618 33.4595C28.5824 33.5776 28.5514 33.6867 28.5285 33.7848C28.5053 33.8825 28.4859 33.9688 28.4722 34.04C28.4439 34.1825 28.4324 34.2653 28.4324 34.2653C28.4324 34.2653 28.4262 34.1819 28.431 34.0356C28.4339 33.9624 28.4382 33.8733 28.4492 33.7719C28.4607 33.6701 28.4749 33.5554 28.4995 33.4315C28.5242 33.3077 28.555 33.1736 28.5986 33.0339C28.6429 32.895 28.697 32.7496 28.7664 32.6041C28.8369 32.459 28.9224 32.3138 29.0275 32.1773C29.0541 32.1436 29.0801 32.1091 29.1097 32.0764C29.138 32.0434 29.1678 32.0112 29.1994 31.9806L29.2462 31.9339L29.2974 31.8888C29.3323 31.8567 29.3649 31.8322 29.3981 31.8069C29.5399 31.7001 29.6871 31.6114 29.8436 31.5365C30 31.4633 30.163 31.4087 30.3215 31.3732C30.4799 31.3365 30.6335 31.315 30.777 31.2979C30.8398 31.2898 30.9002 31.2824 30.9597 31.2749C30.6699 31.2649 30.3875 31.2429 30.1144 31.2125C30.0983 31.2193 30.0805 31.2269 30.0609 31.2349C30.0093 31.2573 29.9452 31.2802 29.8725 31.3088C29.7997 31.335 29.7172 31.3644 29.6268 31.3965C29.5368 31.4273 29.4402 31.4604 29.3413 31.4972C29.2428 31.5347 29.1441 31.577 29.0479 31.6317C29.024 31.6458 29 31.6605 28.9757 31.6748C28.9517 31.6906 28.928 31.706 28.9038 31.7224C28.8797 31.7392 28.8556 31.7559 28.8314 31.7733C28.8083 31.7901 28.7851 31.8074 28.7617 31.8245C28.7374 31.8438 28.7128 31.8638 28.6888 31.8837L28.6269 31.9406C28.5864 31.981 28.546 32.0251 28.5089 32.0706C28.3596 32.2538 28.2523 32.4733 28.1769 32.6888C28.1388 32.7968 28.1092 32.9044 28.0837 33.0078C28.0587 33.111 28.0421 33.2106 28.0268 33.3025C27.9978 33.487 27.9844 33.6441 27.9778 33.7535C27.9705 33.8635 27.9701 33.9273 27.9701 33.9273C27.9701 33.9273 27.956 33.8654 27.9415 33.7549C27.9348 33.6996 27.9282 33.6321 27.9233 33.5546C27.9195 33.4771 27.9176 33.3889 27.9191 33.2931C27.921 33.197 27.9291 33.0929 27.9421 32.9828C27.955 32.8727 27.9769 32.7568 28.0072 32.6383C28.069 32.4024 28.1724 32.1532 28.3354 31.9374C28.3759 31.8831 28.4209 31.8329 28.4677 31.7832C28.4932 31.7586 28.5183 31.7347 28.5436 31.7103C28.5676 31.69 28.5917 31.6702 28.6158 31.6504L28.6282 31.6402L28.638 31.633L28.6953 31.59C28.7208 31.571 28.7475 31.5524 28.7737 31.5347C28.8273 31.4995 28.8816 31.465 28.9385 31.436C29.0517 31.377 29.1686 31.3352 29.2779 31.3061C29.3875 31.2763 29.4901 31.2566 29.585 31.2401C29.6803 31.2239 29.7672 31.2119 29.8444 31.2009C29.875 31.1973 29.903 31.1939 29.9303 31.1908C29.7112 31.1627 29.4976 31.1304 29.2911 31.0946C29.193 31.0776 29.0967 31.0596 29.0015 31.0412C28.9823 31.0397 28.9634 31.0378 28.9435 31.0361C28.6334 31.0119 28.2559 30.9914 27.8227 30.9861C27.3902 30.9791 26.9016 30.9884 26.3727 31.0398C26.1081 31.0653 25.8354 31.1023 25.5532 31.1556C25.4822 31.1676 25.4107 31.1799 25.3382 31.1921C25.2649 31.2027 25.1914 31.2149 25.1173 31.2249C24.9687 31.2451 24.8176 31.2634 24.664 31.2767C24.3563 31.3042 24.0383 31.318 23.7124 31.3045C23.3871 31.2901 23.0532 31.252 22.7222 31.1677C22.6391 31.149 22.5575 31.122 22.475 31.0983C22.3938 31.07 22.3111 31.0439 22.231 31.0095C22.1496 30.9787 22.0716 30.9402 21.992 30.9035C21.9148 30.8626 21.8356 30.8237 21.7607 30.777C21.684 30.7338 21.6119 30.6823 21.5381 30.6336C21.4672 30.5804 21.3951 30.5289 21.3282 30.4702C21.2588 30.4148 21.1954 30.3519 21.1296 30.2912C21.0681 30.2269 21.0039 30.1644 20.9468 30.0954C20.7096 29.8267 20.5167 29.5209 20.3556 29.2005L20.3404 29.1708C20.3346 29.1548 20.3316 29.1475 20.3263 29.1369ZM24.2631 29.3357C24.2635 29.3344 24.264 29.3332 24.2631 29.3325L24.2631 29.3357ZM24.5657 29.28C24.5655 29.2787 24.5659 29.2774 24.5649 29.2774L24.5657 29.28ZM32.5047 30.9631C32.8806 30.8929 33.2582 30.7887 33.6191 30.6326C33.9796 30.4762 34.3226 30.2662 34.62 29.9984C34.6942 29.9314 34.766 29.8605 34.8337 29.7874C34.8666 29.7522 34.9008 29.7132 34.9354 29.6731L35.0341 29.5549C35.1665 29.3946 35.2971 29.2317 35.4234 29.0652C35.6756 28.7317 35.9134 28.3835 36.1169 28.0177C36.3181 27.6525 36.4909 27.2651 36.5613 26.8677C36.5957 26.6698 36.6006 26.4696 36.5546 26.2858C36.5323 26.1938 36.4957 26.1072 36.4478 26.0277C36.4238 25.9884 36.3958 25.9502 36.3666 25.9149L36.3452 25.8902L36.3175 25.8614C36.3033 25.8469 36.2839 25.8284 36.2665 25.8129C36.1235 25.6832 35.9489 25.5934 35.7598 25.541C35.5705 25.4882 35.3682 25.4723 35.1661 25.4787C34.7602 25.4933 34.3546 25.5877 33.9635 25.7075C33.5721 25.8285 33.192 25.9776 32.8234 26.1365C32.0866 26.4564 31.389 26.8067 30.7304 27.1448C30.0725 27.484 29.449 27.8056 28.8662 28.0902C28.2842 28.3752 27.7381 28.6156 27.2395 28.793C26.9901 28.8815 26.7529 28.9531 26.5283 29.0035C26.4161 29.0288 26.3083 29.0465 26.2055 29.0658C26.1026 29.0852 26.0045 29.1027 25.9108 29.1166C25.5374 29.1774 25.2417 29.2074 25.0396 29.2233C25.1276 29.23 25.215 29.2366 25.3009 29.2412C25.3706 29.2461 25.4394 29.2483 25.5064 29.251C25.5738 29.2534 25.6396 29.2577 25.7035 29.2582C25.8313 29.2583 25.9529 29.2646 26.0647 29.2602C26.1765 29.2579 26.2794 29.2574 26.37 29.2496C26.4606 29.2428 26.5406 29.2418 26.6046 29.23C26.7341 29.2126 26.8086 29.2034 26.8086 29.2034C26.8086 29.2034 26.7359 29.2203 26.6071 29.2476C26.5433 29.2638 26.4634 29.2704 26.3728 29.2834C26.3272 29.2887 26.2793 29.2977 26.2279 29.3007C26.1767 29.3041 26.1229 29.3083 26.0667 29.3122C25.9543 29.3224 25.8322 29.3225 25.7031 29.3261C25.6387 29.3277 25.5722 29.326 25.5043 29.3258C25.4365 29.3256 25.367 29.3241 25.2967 29.3211C25.1561 29.316 25.0102 29.3093 24.8627 29.2974C24.7897 29.2921 24.7135 29.2832 24.6436 29.2809C24.6259 29.2804 24.6092 29.2808 24.5931 29.2826C24.5842 29.2833 24.5749 29.2852 24.5687 29.2873C24.572 29.2907 24.5792 29.297 24.5876 29.3026C24.6411 29.3341 24.7149 29.3538 24.7843 29.3715C24.8553 29.3886 24.9273 29.4025 24.9992 29.4149C25.1431 29.4393 25.2862 29.4599 25.4252 29.4766C25.7029 29.5109 25.9633 29.5363 26.1866 29.5583C26.6337 29.6001 26.9318 29.6281 26.9318 29.6281C26.9318 29.6281 26.8567 29.6288 26.7258 29.6266C26.5949 29.6234 26.4075 29.6211 26.1826 29.6106C25.958 29.6005 25.696 29.5844 25.4158 29.5564C25.3077 29.5452 25.196 29.5332 25.0834 29.517C25.1155 29.5269 25.148 29.5366 25.1794 29.5463C25.2438 29.5655 25.3065 29.5865 25.3682 29.6034C25.492 29.6359 25.6076 29.6726 25.7171 29.6968C25.8259 29.7229 25.9253 29.7486 26.015 29.764C26.1042 29.7804 26.1819 29.7997 26.2471 29.8048C26.3766 29.8208 26.4514 29.8309 26.4514 29.8309C26.4514 29.8309 26.377 29.8288 26.2455 29.8223C26.1795 29.8217 26.1008 29.808 26.01 29.7975C25.9647 29.7911 25.9159 29.7877 25.8652 29.7776C25.8148 29.768 25.7617 29.7582 25.7063 29.7479C25.5949 29.7291 25.4766 29.6984 25.3509 29.6692C25.2882 29.6544 25.2246 29.6358 25.159 29.6183C25.0936 29.6012 25.0267 29.5822 24.9599 29.5611C24.825 29.5207 24.686 29.4772 24.5464 29.4283C24.4774 29.4048 24.4059 29.3764 24.3392 29.3567C24.3224 29.3517 24.3057 29.3481 24.29 29.3455C24.281 29.3438 24.2717 29.3437 24.2651 29.3438C24.2673 29.3484 24.2726 29.3559 24.2794 29.3634C24.3231 29.4074 24.3892 29.4456 24.4517 29.4798C24.516 29.5143 24.5819 29.5459 24.6482 29.5764C24.7813 29.636 24.914 29.6928 25.044 29.7442C25.3035 29.848 25.5489 29.9386 25.7587 30.0165C26.1801 30.1705 26.461 30.2729 26.461 30.2729C26.461 30.2729 26.4166 30.2619 26.3376 30.2402C26.6865 30.3504 27.106 30.4737 27.5899 30.5942C28.0993 30.7208 28.6789 30.8438 29.3164 30.9399C29.9536 31.034 30.651 31.0974 31.3848 31.0775C31.7523 31.0663 32.1283 31.0326 32.5047 30.9631Z" fill="#D3E3FF"/>
<path d="M39.2121 26.5757C39.1172 26.5383 39.0187 26.5082 38.9212 26.4843C38.8237 26.4593 38.7267 26.4406 38.6347 26.4236C38.5423 26.4079 38.4542 26.3937 38.3722 26.3825C38.2902 26.3713 38.2146 26.3637 38.1475 26.3556C38.0801 26.349 38.0216 26.3427 37.9732 26.3382C37.8761 26.3298 37.8203 26.3248 37.8203 26.3248C37.8203 26.3248 37.875 26.314 37.9725 26.3015C38.021 26.2948 38.0804 26.2894 38.1484 26.2834C38.2164 26.2768 38.2934 26.2736 38.3777 26.271C38.5464 26.2655 38.7444 26.2693 38.9571 26.2979C39.0636 26.313 39.1739 26.3337 39.2857 26.3681C39.3969 26.4022 39.5108 26.4488 39.6173 26.5243C39.6706 26.5616 39.7207 26.609 39.7626 26.666C39.8048 26.7224 39.836 26.7908 39.8524 26.8606C39.8558 26.8778 39.8593 26.8965 39.8617 26.9126L39.8675 26.9526C39.871 26.9814 39.875 27.0105 39.8772 27.0379C39.8814 27.0933 39.8849 27.1481 39.8857 27.2017C39.8868 27.3091 39.8805 27.4129 39.8674 27.5102C39.8561 27.6078 39.8352 27.6988 39.8141 27.7819C39.7907 27.8644 39.7659 27.9391 39.7384 28.0032C39.7116 28.0675 39.684 28.1216 39.6601 28.1658C39.6362 28.2099 39.6139 28.2426 39.5985 28.2648C39.5839 28.2872 39.5747 28.2988 39.5747 28.2988C39.5747 28.2988 39.5747 28.284 39.5759 28.2574C39.576 28.2305 39.5809 28.1925 39.5823 28.1434C39.5832 28.1192 39.5859 28.0923 39.588 28.0633C39.5891 28.0343 39.59 28.0029 39.5928 27.97C39.5959 27.9044 39.5994 27.8304 39.6034 27.7491C39.6094 27.5885 39.6136 27.4033 39.6097 27.2062C39.6085 27.157 39.6079 27.1068 39.6047 27.0565C39.6037 27.0316 39.6025 27.0072 39.6012 26.9819L39.5983 26.9416C39.5974 26.9313 39.5958 26.923 39.5949 26.9138C39.5827 26.8423 39.5382 26.7759 39.4678 26.7174C39.3963 26.6599 39.3063 26.6135 39.2121 26.5757Z" fill="#D3E3FF"/>
<path d="M30.9648 27.3758C31.1716 27.2384 31.4751 27.0537 31.8538 26.8579C32.0431 26.76 32.2507 26.6584 32.474 26.5578C32.6976 26.4586 32.9369 26.3599 33.188 26.2677C33.4394 26.1748 33.7036 26.0895 33.9776 26.0197C34.2521 25.9498 34.5363 25.8934 34.8287 25.8703C34.9748 25.8585 35.1233 25.8577 35.2724 25.8709C35.4212 25.8853 35.5718 25.9141 35.7166 25.9726C35.8607 26.0305 35.9983 26.1221 36.0996 26.2464C36.2015 26.3699 36.2629 26.5194 36.2915 26.6637C36.2992 26.7002 36.3047 26.7362 36.3084 26.7719L36.3102 26.789L36.3111 26.8012L36.3132 26.8262C36.3136 26.8469 36.3144 26.8694 36.3136 26.8875C36.3117 26.9638 36.3005 27.0359 36.2848 27.1039C36.2533 27.2408 36.2052 27.3649 36.1497 27.4793C36.0402 27.709 35.9078 27.9034 35.7799 28.0768C35.7165 28.164 35.6519 28.2442 35.5887 28.319C35.5256 28.3939 35.4666 28.4647 35.4071 28.5282C35.3475 28.5916 35.292 28.6506 35.2403 28.7051C35.1879 28.7591 35.1386 28.8069 35.0938 28.8505C35.0048 28.9373 34.9327 29.0033 34.8838 29.0489C34.8347 29.094 34.8098 29.1194 34.8098 29.1194C34.8098 29.1194 34.8252 29.0871 34.8601 29.0299C34.8944 28.9726 34.9471 28.89 35.0161 28.7874C35.0848 28.6854 35.1686 28.5608 35.2643 28.4188C35.3115 28.3481 35.3621 28.2727 35.4155 28.1934C35.4669 28.1135 35.5211 28.0298 35.578 27.9421C35.6338 27.8546 35.6888 27.7622 35.7433 27.6656C35.7988 27.57 35.8511 27.4689 35.9001 27.3653C35.9476 27.2608 35.9924 27.1531 36.0203 27.0429C36.0343 26.9883 36.0439 26.9327 36.0465 26.8797C36.0476 26.8654 36.0469 26.8556 36.0472 26.8436L36.0462 26.8197L36.0457 26.8083L36.0455 26.8058L36.0449 26.8005C36.0418 26.7714 36.0385 26.7427 36.0331 26.7142C36.0125 26.6006 35.9695 26.4936 35.8998 26.4053C35.8305 26.3168 35.7336 26.2472 35.62 26.199C35.3914 26.1017 35.114 26.0856 34.8423 26.0977C34.5686 26.1108 34.2927 26.156 34.0245 26.2158C33.7562 26.2762 33.4947 26.3505 33.2432 26.4297C32.9922 26.5096 32.7523 26.5964 32.5268 26.6854C32.3007 26.7725 32.0897 26.8616 31.8965 26.9486C31.5102 27.1217 31.1959 27.2836 30.9805 27.4044C30.8725 27.4643 30.7891 27.5149 30.7327 27.5493C30.6767 27.5847 30.6465 27.6034 30.6465 27.6034C30.6465 27.6034 30.6744 27.5821 30.7276 27.5422C30.7822 27.501 30.8617 27.4446 30.9648 27.3758Z" fill="#D3E3FF"/>
<path d="M42.1126 27.7503C42.0268 27.6959 41.9356 27.6474 41.8445 27.6051C41.7535 27.5622 41.6621 27.5255 41.575 27.4915C41.4873 27.4583 41.4036 27.428 41.3253 27.4014C41.2471 27.3751 41.1741 27.353 41.1102 27.3326C41.0452 27.3132 40.9887 27.2964 40.9424 27.2827C40.8487 27.2559 40.7949 27.2408 40.7949 27.2408C40.7949 27.2408 40.8508 27.2406 40.9487 27.2465C40.9978 27.2493 41.0567 27.2553 41.1246 27.262C41.1926 27.2688 41.2689 27.2796 41.3524 27.2931C41.519 27.3197 41.7123 27.3608 41.9164 27.4293C42.0179 27.4645 42.1227 27.5054 42.2253 27.5604C42.3281 27.6149 42.431 27.682 42.5209 27.7768C42.566 27.8237 42.6059 27.8796 42.6359 27.9434C42.6662 28.0071 42.6835 28.0796 42.6865 28.1514C42.6866 28.1692 42.6865 28.1876 42.686 28.2041L42.6837 28.2444C42.6816 28.2734 42.6798 28.3022 42.677 28.3296C42.6708 28.3849 42.6631 28.439 42.6535 28.492C42.6337 28.5978 42.6078 28.6983 42.5763 28.7915C42.5466 28.8852 42.5081 28.9705 42.4717 29.0477C42.4331 29.1244 42.394 29.1928 42.3552 29.2507C42.3166 29.3086 42.2788 29.3569 42.247 29.3953C42.2153 29.4341 42.1869 29.462 42.1676 29.4811C42.1489 29.5004 42.1376 29.5099 42.1376 29.5099C42.1376 29.5099 42.1403 29.4954 42.1465 29.4694C42.1519 29.4429 42.1637 29.4066 42.1745 29.3587C42.1801 29.3346 42.1877 29.3095 42.1954 29.2814C42.202 29.2532 42.209 29.2224 42.2178 29.1906C42.2334 29.1266 42.2514 29.0548 42.2707 28.9762C42.3075 28.8199 42.3475 28.6388 42.3815 28.4443C42.3897 28.3955 42.3988 28.3463 42.4055 28.2963C42.4092 28.2716 42.4127 28.2475 42.4165 28.2228L42.4213 28.1828C42.4225 28.1726 42.4225 28.1644 42.4235 28.1548C42.4256 28.082 42.3945 28.0086 42.3362 27.9381C42.2776 27.8683 42.1973 27.8054 42.1126 27.7503Z" fill="#D3E3FF"/>
<path d="M43.9047 31.3628C43.8312 31.427 43.7583 31.4832 43.6882 31.5313C43.6523 31.5544 43.6195 31.5784 43.5859 31.5977C43.5523 31.617 43.521 31.6357 43.4906 31.6521C43.4299 31.685 43.3752 31.7095 43.3295 31.7292C43.2843 31.749 43.2471 31.7609 43.2221 31.7695C43.1968 31.7777 43.1836 31.7821 43.1836 31.7821C43.1836 31.7821 43.1945 31.7728 43.2141 31.7555C43.2337 31.7379 43.2648 31.7157 43.3012 31.6833C43.3195 31.6673 43.3407 31.6509 43.3629 31.6325C43.3847 31.6133 43.4082 31.5923 43.4338 31.5712C43.4841 31.5275 43.5391 31.4769 43.5997 31.4226C43.6576 31.3655 43.7227 31.307 43.7866 31.2399C43.8506 31.1728 43.9182 31.1029 43.9846 31.0274C44.0178 30.9895 44.0518 30.9512 44.0839 30.9111C44.1008 30.8913 44.1162 30.8716 44.1322 30.8521L44.1569 30.8199C44.1637 30.8109 44.1691 30.8021 44.1756 30.7934C44.2208 30.7216 44.2336 30.63 44.2179 30.5338C44.2023 30.4375 44.1638 30.3407 44.118 30.2479C44.0714 30.1555 44.0155 30.0671 43.9573 29.9844C43.8997 29.901 43.8396 29.8227 43.7802 29.7502C43.7205 29.678 43.6626 29.6104 43.6077 29.549C43.4976 29.4268 43.4018 29.3272 43.3335 29.2585C43.2657 29.1897 43.2252 29.1513 43.2252 29.1513C43.2252 29.1513 43.2715 29.1817 43.3495 29.2401C43.4272 29.2986 43.5367 29.3844 43.6607 29.4963C43.7855 29.6077 43.9242 29.7455 44.0586 29.9089C44.1245 29.9914 44.1895 30.0805 44.2466 30.1785C44.304 30.2763 44.3531 30.3843 44.3773 30.5053C44.3896 30.5655 44.394 30.6296 44.3868 30.6941C44.3798 30.759 44.3585 30.8239 44.3262 30.8812C44.2607 30.9857 44.1938 31.0665 44.1225 31.1478C44.0522 31.2267 43.9791 31.2992 43.9047 31.3628Z" fill="#D3E3FF"/>
<path d="M28.7348 29.9552C29.0481 29.8034 29.1778 29.4285 29.0247 29.118C28.8716 28.8074 28.4935 28.6788 28.1803 28.8306C27.867 28.9824 27.7373 29.3573 27.8904 29.6678C28.0435 29.9784 28.4216 30.107 28.7348 29.9552Z" fill="#204E7C"/>
<path d="M35.083 40.6019C35.0918 40.5646 35.0983 40.5269 35.116 40.4919C35.1244 40.4746 35.1305 40.4558 35.1408 40.4402L35.1723 40.3929C35.1826 40.3762 35.1952 40.3634 35.2078 40.3503L35.2456 40.3105C35.2725 40.2879 35.3005 40.2666 35.3281 40.2466L35.371 40.2213L35.3926 40.2087L35.4034 40.2025L35.4089 40.1993L35.4119 40.1979C35.4147 40.1965 35.4089 40.1993 35.4193 40.1942L35.4957 40.1598C35.5487 40.1381 35.6126 40.1128 35.6659 40.0961C35.721 40.0776 35.7764 40.0599 35.831 40.0446C35.8859 40.0282 35.9407 40.0133 35.9955 39.9984C36.2146 39.94 36.4326 39.8888 36.6504 39.8372L37.3014 39.6829C37.7336 39.5778 38.1628 39.4638 38.5812 39.3216C38.6865 39.2873 38.7897 39.249 38.8936 39.2119C38.9958 39.1715 39.099 39.1331 39.1992 39.0887C39.3008 39.0471 39.399 38.9984 39.498 38.9515C39.5947 38.901 39.6923 38.8512 39.7847 38.7942C39.9711 38.682 40.1495 38.5578 40.3078 38.4124C40.4643 38.2658 40.5997 38.098 40.6958 37.9089C40.7077 37.8853 40.7223 37.8626 40.7317 37.8381L40.7604 37.7641L40.7891 37.6902L40.8165 37.6103L40.9256 37.2958C40.9524 37.2136 40.9824 37.132 41.0131 37.0505C41.018 37.0302 41.0235 37.0093 41.0297 36.9864C41.0586 36.891 41.0978 36.7759 41.1499 36.6484C41.2017 36.5215 41.2597 36.3779 41.3233 36.2218C41.3548 36.144 41.3861 36.0627 41.4169 35.9785C41.4321 35.9366 41.4478 35.8934 41.4634 35.8502C41.4778 35.8065 41.4928 35.7622 41.5078 35.7173C41.565 35.5369 41.6139 35.3448 41.6492 35.1445C41.6805 34.9553 41.6904 34.7588 41.6848 34.561C41.676 34.5266 41.6678 34.4924 41.6617 34.4592C41.6542 34.4222 41.6462 34.3863 41.6394 34.3514C41.6339 34.3165 41.6287 34.2829 41.6238 34.2502C41.6192 34.2178 41.6146 34.1869 41.6102 34.1571C41.6072 34.127 41.6046 34.0987 41.6015 34.0717C41.5986 34.041 41.5959 34.0124 41.5934 33.9856C41.5858 33.9577 41.5774 33.9302 41.5688 33.9023L41.5175 33.7506C41.4987 33.7008 41.4754 33.6525 41.4541 33.6033L41.4483 33.5893C41.4037 33.528 41.3608 33.4659 41.3157 33.4048C41.2218 33.2768 41.1248 33.1519 41.0253 33.0292C40.9264 32.9057 40.8219 32.7874 40.7157 32.6709C40.6088 32.5549 40.5003 32.4411 40.3862 32.3326C40.361 32.3076 40.3352 32.2835 40.3091 32.2595C40.2205 32.1942 40.1564 32.134 40.1102 32.0955C40.0615 32.0529 40.0355 32.0304 40.0355 32.0304C40.0355 32.0304 40.0548 32.0424 40.0911 32.065C40.0729 32.0489 40.0544 32.0335 40.0362 32.0173C39.9869 31.9756 39.9368 31.9352 39.8862 31.8952C39.8415 31.9275 39.7847 31.9662 39.7202 32.0112C39.6418 32.0656 39.5519 32.1279 39.4639 32.1981C39.4417 32.2154 39.42 32.234 39.398 32.2519C39.3773 32.2711 39.3549 32.2891 39.3344 32.3091C39.2924 32.3478 39.2533 32.3892 39.2173 32.4316C39.1806 32.4738 39.1505 32.5189 39.1218 32.5639C39.0966 32.6106 39.0715 32.6564 39.0554 32.7049C39.0368 32.7526 39.0254 32.8014 39.0163 32.8494C39.0083 32.8976 39.0025 32.9452 39.001 32.9902C38.9984 33.0129 38.9998 33.0345 38.9994 33.0556C38.9996 33.0768 38.9983 33.0969 38.9995 33.1161C39.0027 33.1537 39.0011 33.1891 39.0042 33.2172C39.0076 33.245 39.008 33.2687 39.0095 33.2843C39.0102 33.3002 39.0104 33.3088 39.0104 33.3088C39.0104 33.3088 39.0051 33.3022 38.9947 33.2904C38.9851 33.2783 38.9696 33.2604 38.9522 33.2357C38.9343 33.2118 38.9167 33.1802 38.8962 33.1438C38.8853 33.1257 38.8779 33.1049 38.8683 33.083C38.859 33.0611 38.8491 33.038 38.8423 33.0127C38.8263 32.9625 38.8142 32.9058 38.8086 32.8434C38.8042 32.7814 38.8048 32.7139 38.8182 32.6454C38.823 32.6105 38.833 32.5766 38.8443 32.5421C38.8542 32.5073 38.8698 32.4743 38.885 32.4405C38.9178 32.3748 38.9589 32.3126 39.0056 32.2564C39.0536 32.2016 39.1051 32.1501 39.1608 32.1079C39.2156 32.064 39.2729 32.0271 39.3301 31.9963C39.4441 31.9334 39.557 31.8935 39.6551 31.8678C39.7131 31.8524 39.7654 31.8428 39.8108 31.836C39.7635 31.7994 39.7163 31.7629 39.6679 31.7272C39.4895 31.5985 39.3052 31.4777 39.1159 31.3664C39.0752 31.3953 39.0264 31.4286 38.9723 31.4666C38.8938 31.5209 38.8041 31.5833 38.7159 31.6534C38.6937 31.6708 38.6722 31.6894 38.6502 31.7073C38.6293 31.7264 38.6069 31.7445 38.5865 31.7645C38.5446 31.8031 38.5053 31.8446 38.4693 31.887C38.4326 31.9292 38.4026 31.9742 38.3739 32.0192C38.3488 32.066 38.3236 32.1117 38.3075 32.1603C38.2889 32.2079 38.2776 32.2567 38.2685 32.3048C38.2604 32.353 38.2546 32.4006 38.2532 32.4456C38.2505 32.4682 38.252 32.4899 38.2516 32.511C38.2518 32.5322 38.2504 32.5522 38.2516 32.5714C38.2548 32.6091 38.2533 32.6445 38.2563 32.6725C38.2598 32.7003 38.2602 32.724 38.2617 32.7396C38.2624 32.7555 38.2624 32.7641 38.2624 32.7641C38.2624 32.7641 38.2572 32.7575 38.2467 32.7458C38.2372 32.7337 38.2217 32.7158 38.2044 32.6911C38.1864 32.6672 38.1688 32.6356 38.1483 32.5991C38.1373 32.5811 38.1301 32.5602 38.1204 32.5384C38.1111 32.5165 38.1012 32.4933 38.0944 32.4681C38.0783 32.4179 38.0663 32.3612 38.0602 32.2989C38.0559 32.237 38.0565 32.1695 38.0699 32.1009C38.0748 32.066 38.0847 32.0322 38.096 31.9977C38.106 31.9629 38.1215 31.9299 38.1367 31.8961C38.1694 31.8304 38.2106 31.7682 38.2573 31.712C38.3052 31.6571 38.3566 31.6053 38.4125 31.5635C38.4673 31.5196 38.5247 31.4831 38.5817 31.4519C38.6959 31.389 38.8086 31.349 38.9068 31.3234C38.9409 31.3144 38.9725 31.3078 39.0024 31.3019C38.9597 31.2778 38.9171 31.2537 38.874 31.2308C38.7041 31.1423 38.5305 31.0621 38.3539 30.9879C38.3211 31.0089 38.2857 31.0316 38.2475 31.0563C38.1527 31.1169 38.0429 31.1865 37.93 31.2625C37.8177 31.3399 37.7013 31.4232 37.5974 31.5154C37.5446 31.5603 37.497 31.6093 37.4516 31.6578C37.4399 31.6695 37.4307 31.6832 37.4199 31.6955C37.4097 31.7081 37.3976 31.7201 37.389 31.7328C37.3705 31.7587 37.3511 31.7838 37.3352 31.8099C37.3004 31.8613 37.2765 31.9146 37.2542 31.9672C37.245 31.9934 37.2365 32.02 37.2283 32.0458C37.2227 32.072 37.2155 32.0978 37.2115 32.1232C37.2078 32.1489 37.2047 32.1738 37.2014 32.1973C37.2006 32.2216 37.1995 32.2445 37.1985 32.2664C37.1975 32.3101 37.2004 32.3494 37.201 32.3827C37.2056 32.415 37.2068 32.4415 37.2091 32.4596C37.2105 32.4783 37.2113 32.4881 37.2113 32.4881C37.2113 32.4881 37.2054 32.4802 37.1946 32.4656C37.1843 32.4509 37.1673 32.429 37.1486 32.3994C37.133 32.3688 37.1107 32.3318 37.0936 32.2856C37.0851 32.2622 37.0773 32.2371 37.0683 32.2104C37.0619 32.183 37.0568 32.1539 37.0513 32.123C37.0469 32.092 37.0466 32.0591 37.0444 32.0246C37.0449 31.9903 37.0484 31.9549 37.0519 31.9181C37.0642 31.8461 37.0831 31.7692 37.1178 31.697C37.1496 31.623 37.194 31.5537 37.2444 31.4886C37.2951 31.4237 37.353 31.3642 37.4141 31.3101C37.4763 31.2571 37.5402 31.2078 37.6071 31.1657C37.6399 31.1436 37.6733 31.124 37.7073 31.1054C37.7402 31.0859 37.7742 31.0694 37.8076 31.0528C37.9368 30.9901 38.0617 30.9458 38.1721 30.9148C38.1203 30.8951 38.0683 30.875 38.0159 30.8561C37.8511 30.7976 37.6833 30.7477 37.5142 30.7034C37.4696 30.7327 37.4182 30.7658 37.3612 30.8021C37.2664 30.8628 37.1564 30.9323 37.0436 31.0084C36.9314 31.0857 36.8149 31.1691 36.711 31.2612C36.6583 31.3061 36.6106 31.3552 36.5652 31.4036C36.5536 31.4153 36.5444 31.429 36.5335 31.4414C36.5233 31.4539 36.5112 31.4658 36.5027 31.4787C36.4841 31.5045 36.4647 31.5297 36.4488 31.5556C36.4141 31.6071 36.3901 31.6604 36.3678 31.713C36.3587 31.7393 36.3502 31.7658 36.3419 31.7917C36.3363 31.8178 36.329 31.8437 36.3251 31.869C36.3214 31.8947 36.3183 31.9197 36.315 31.9431C36.3141 31.9675 36.3131 31.9903 36.312 32.0122C36.3111 32.0559 36.314 32.0952 36.3145 32.1286C36.3192 32.1609 36.3204 32.1872 36.3227 32.2054C36.3242 32.224 36.325 32.2339 36.325 32.2339C36.325 32.2339 36.3191 32.2261 36.3082 32.2114C36.2978 32.1966 36.2809 32.1748 36.2623 32.1452C36.2467 32.1147 36.2243 32.0776 36.2071 32.0315C36.1987 32.0081 36.1909 31.9829 36.1819 31.9562C36.1755 31.9288 36.1704 31.8997 36.165 31.8688C36.1604 31.8379 36.1601 31.805 36.158 31.7704C36.1584 31.736 36.1621 31.7008 36.1656 31.664C36.1779 31.5924 36.1968 31.515 36.2314 31.4427C36.2633 31.3688 36.3076 31.2996 36.3581 31.2343C36.4088 31.1696 36.4666 31.11 36.5277 31.056C36.5898 31.0029 36.6538 30.9537 36.7208 30.9115C36.7535 30.8895 36.7869 30.8697 36.8209 30.8513C36.8539 30.8317 36.8878 30.8153 36.9211 30.7986C37.0546 30.734 37.184 30.6884 37.2965 30.6574C37.3014 30.656 37.306 30.6549 37.3105 30.6536C37.2446 30.6387 37.1782 30.6247 37.1117 30.6116C36.8624 30.5619 36.6098 30.5282 36.3561 30.5092C36.3437 30.5174 36.3308 30.5256 36.318 30.5338C36.2231 30.5945 36.1133 30.6641 36.0004 30.7402C35.8882 30.8174 35.7717 30.9009 35.6678 30.9929C35.6151 31.0379 35.5674 31.0869 35.522 31.1354C35.5104 31.1472 35.5012 31.1608 35.4903 31.1731C35.4801 31.1857 35.4685 31.1974 35.4595 31.2104C35.4409 31.2363 35.4216 31.2615 35.4056 31.2875C35.3709 31.3388 35.347 31.3922 35.3246 31.4448C35.3155 31.471 35.3066 31.4978 35.2988 31.5234C35.2931 31.5496 35.2859 31.5754 35.282 31.6008C35.2782 31.6265 35.2752 31.6514 35.2718 31.6749C35.271 31.6992 35.2699 31.7221 35.2689 31.744C35.2679 31.7877 35.2708 31.8269 35.2714 31.8603C35.276 31.8926 35.2772 31.919 35.2795 31.9372C35.281 31.9558 35.2818 31.9657 35.2818 31.9657C35.2818 31.9657 35.2759 31.9579 35.2651 31.9433C35.2547 31.9284 35.2377 31.9066 35.2191 31.877C35.2034 31.8464 35.1811 31.8094 35.164 31.7633C35.1555 31.7399 35.1477 31.7147 35.1387 31.6881C35.1325 31.661 35.1273 31.6314 35.1218 31.6006C35.1173 31.5697 35.117 31.5367 35.1148 31.5022C35.1153 31.4678 35.1189 31.4325 35.1223 31.3957C35.1348 31.3241 35.1536 31.2468 35.1882 31.1745C35.22 31.1007 35.2644 31.0313 35.3149 30.9661C35.3655 30.9014 35.4234 30.8418 35.4846 30.7878C35.5467 30.7347 35.6106 30.6854 35.6776 30.6433C35.7104 30.6213 35.7438 30.6016 35.7778 30.5831C35.8106 30.5635 35.8446 30.547 35.878 30.5304C35.9066 30.5165 35.9347 30.5038 35.9631 30.4917C35.88 30.4907 35.7965 30.491 35.7131 30.4927C35.6352 30.4949 35.5575 30.4985 35.4801 30.5039C35.4038 30.5094 35.3235 30.5173 35.2532 30.5279L34.9004 30.5804L35.3201 30.1338C35.3778 30.0686 35.4378 30.005 35.4939 29.9387C35.5505 29.8725 35.6088 29.8076 35.6639 29.7403C35.7198 29.6735 35.7752 29.6059 35.8286 29.5372C35.8834 29.4695 35.935 29.3992 35.988 29.3297C36.0397 29.2599 36.0905 29.189 36.1411 29.1177C36.1902 29.0455 36.2408 28.9746 36.2885 28.9017C36.3376 28.8296 36.3837 28.7553 36.4305 28.6818C36.4757 28.6069 36.5218 28.5327 36.5645 28.457C36.6089 28.3816 36.6496 28.3049 36.692 28.2284C36.7334 28.1513 36.7739 28.0742 36.8128 27.9958C36.8516 27.9174 36.8892 27.8387 36.9248 27.7589C36.9959 27.5992 37.0648 27.4381 37.1234 27.2728C37.1822 27.108 37.2386 26.9413 37.2757 26.7691C37.2666 26.8565 37.2509 26.9435 37.2341 27.03C37.2168 27.1167 37.197 27.2026 37.174 27.288C37.1284 27.4587 37.0759 27.6281 37.0142 27.7944C36.9834 27.8776 36.9513 27.9602 36.9178 28.0421C36.8838 28.1242 36.8484 28.2054 36.812 28.2867C36.7748 28.3673 36.7367 28.4473 36.6962 28.5265C36.657 28.6061 36.6144 28.6842 36.5726 28.763C36.4867 28.9186 36.3975 29.0727 36.3017 29.223C36.2534 29.2977 36.2045 29.3723 36.1546 29.4459C36.1034 29.519 36.0536 29.593 36.0004 29.6641C35.9484 29.7366 35.8948 29.8078 35.8402 29.8781C35.7865 29.9494 35.7302 30.0184 35.6741 30.0878C35.6304 30.1416 35.5845 30.1944 35.5393 30.2474C35.5944 30.2425 35.6494 30.2386 35.7044 30.2355C35.8677 30.2265 36.0314 30.2265 36.1947 30.2329C36.521 30.2452 36.8462 30.2824 37.1671 30.343C37.2836 30.366 37.3992 30.3934 37.5145 30.423C37.5168 30.4224 37.5185 30.422 37.5208 30.4214C37.5527 30.4132 37.5864 30.4044 37.6213 30.3951C37.6562 30.3848 37.6924 30.3728 37.7302 30.3612C37.7681 30.3494 37.8072 30.3371 37.8482 30.3243C37.8889 30.3112 37.9301 30.2949 37.9728 30.2797C38.0157 30.2635 38.0603 30.2489 38.1051 30.2303C38.1495 30.2113 38.1949 30.1919 38.2419 30.1717C38.2888 30.1525 38.3358 30.1292 38.3833 30.1056C38.431 30.0816 38.481 30.0603 38.5285 30.0317C38.5766 30.0043 38.626 29.9764 38.676 29.948C38.7243 29.9169 38.7733 29.8851 38.8237 29.853C38.8729 29.8195 38.9212 29.7834 38.9711 29.748C39.0209 29.7126 39.067 29.6709 39.1166 29.6321C39.3082 29.4701 39.49 29.2767 39.647 29.055C39.804 28.8334 39.937 28.5847 40.0363 28.3179C40.0887 28.1857 40.1264 28.0468 40.1636 27.9077C40.1971 27.7678 40.2227 27.6251 40.2412 27.4813C40.2586 27.3376 40.269 27.1931 40.2706 27.0489C40.27 26.9769 40.2695 26.9049 40.2649 26.8333C40.2636 26.7974 40.2605 26.7628 40.2572 26.7282C40.2546 26.6938 40.2513 26.6589 40.2458 26.6218L40.2386 26.5667L40.237 26.5528L40.2362 26.5461C40.2368 26.5493 40.2356 26.5438 40.2356 26.5428L40.2312 26.5205C40.229 26.5053 40.2251 26.4914 40.2208 26.4772C40.2171 26.4627 40.2129 26.449 40.2073 26.4354C40.1876 26.3809 40.1585 26.3314 40.1204 26.2872C40.0448 26.1987 39.9341 26.1344 39.8143 26.0891C39.6933 26.0445 39.5638 26.0182 39.4345 25.9995C39.305 25.9814 39.1756 25.9729 39.0481 25.9705C38.7942 25.9665 38.5509 25.9811 38.3269 26.0022C37.8786 26.0465 37.5058 26.1106 37.2454 26.158C36.9849 26.2064 36.8369 26.239 36.8369 26.239C36.8369 26.239 36.872 26.225 36.9394 26.2015C37.0067 26.1786 37.1053 26.1435 37.2327 26.1052C37.3598 26.0664 37.5149 26.0208 37.6951 25.9762C37.875 25.9311 38.0798 25.8843 38.3061 25.8468C38.5325 25.8084 38.7803 25.7748 39.0467 25.7667C39.1799 25.7622 39.3178 25.764 39.4603 25.7759C39.6026 25.7878 39.749 25.814 39.896 25.8623C40.0417 25.9123 40.1929 25.989 40.3126 26.1183C40.3718 26.1821 40.4206 26.2592 40.4535 26.3415C40.4626 26.3621 40.4692 26.3827 40.4752 26.4043C40.482 26.4254 40.4874 26.4467 40.4913 26.4682L40.5 26.5108L40.5008 26.5176L40.5029 26.5313L40.5105 26.5861C40.5161 26.6216 40.5201 26.6608 40.5241 26.7001C40.5281 26.7394 40.532 26.7787 40.534 26.8169C40.5396 26.894 40.5414 26.9715 40.5426 27.0488C40.5427 27.204 40.533 27.3592 40.5159 27.514C40.496 27.6682 40.467 27.8216 40.43 27.9724C40.3905 28.1223 40.3456 28.2708 40.287 28.4131C40.2606 28.4854 40.2262 28.554 40.1965 28.6239C40.1604 28.6912 40.1293 28.7602 40.0899 28.8251C40.071 28.8577 40.0522 28.8902 40.0334 28.9227C40.0137 28.9546 39.9926 28.9858 39.9725 29.0168C39.933 29.0803 39.8879 29.1388 39.8441 29.1976C39.6686 29.4328 39.4602 29.6295 39.247 29.7913C39.0335 29.9538 38.8128 30.0796 38.6005 30.1723C38.3885 30.266 38.1876 30.3353 38.0058 30.3798C37.9605 30.3909 37.9171 30.4039 37.8745 30.4134C37.832 30.4217 37.7905 30.4301 37.7513 30.4379C37.7159 30.4444 37.682 30.4516 37.6494 30.4573C37.8049 30.501 37.9591 30.5504 38.1103 30.6053C38.2636 30.6612 38.4155 30.7215 38.5629 30.7904C38.7107 30.8591 38.8556 30.9335 38.9977 31.0132C39.0901 31.0655 39.1812 31.1211 39.2712 31.1777C39.368 31.1908 39.4765 31.2029 39.5965 31.2108C39.7667 31.222 39.9585 31.2206 40.1643 31.1998C40.3698 31.1774 40.5894 31.1315 40.8097 31.0528C41.03 30.9739 41.2488 30.8588 41.4563 30.7123C41.6635 30.5655 41.8553 30.3841 42.0289 30.1804C42.2025 29.9767 42.3569 29.7507 42.4912 29.5122C42.6269 29.2744 42.7436 29.025 42.8401 28.7722C42.8887 28.6459 42.9317 28.5186 42.9726 28.3925C42.9838 28.358 42.9902 28.3335 42.9977 28.305L43.0059 28.2634L43.0113 28.2221C43.0165 28.1672 43.0136 28.1136 43.0024 28.0616C42.9805 27.9578 42.9228 27.8626 42.8468 27.7803C42.7712 27.6969 42.6776 27.6268 42.5804 27.566C42.4824 27.5056 42.3802 27.4555 42.2783 27.4112C42.1771 27.3662 42.0755 27.3279 41.9767 27.2939C41.7787 27.2276 41.5922 27.1771 41.4258 27.1361C41.2591 27.0968 41.1119 27.0659 40.9902 27.043C40.747 26.9971 40.6059 26.9774 40.6059 26.9774C40.6059 26.9774 40.6414 26.9765 40.7084 26.9771C40.7752 26.9782 40.8729 26.9797 40.9976 26.988C41.122 26.9959 41.2732 27.008 41.446 27.0316C41.6191 27.0546 41.8132 27.0872 42.0235 27.141C42.2331 27.1946 42.4597 27.2649 42.686 27.3866C42.7984 27.4481 42.9122 27.5218 43.0137 27.6216C43.1149 27.7206 43.203 27.8514 43.242 28.0055C43.2618 28.0819 43.2685 28.1621 43.2641 28.2405L43.2586 28.2992L43.249 28.3568C43.241 28.3937 43.231 28.4346 43.2221 28.4655C43.1849 28.5994 43.1403 28.7325 43.0913 28.8651C43.0887 28.8725 43.0852 28.8798 43.0826 28.8872C43.1349 28.908 43.1983 28.9334 43.2726 28.9665C43.3835 29.0156 43.5174 29.0769 43.6668 29.156C43.8164 29.2346 43.9834 29.3286 44.1574 29.4464C44.3316 29.5634 44.5142 29.7028 44.6846 29.8828C44.7683 29.9744 44.8491 30.0758 44.9162 30.1943C44.9838 30.3116 45.031 30.4541 45.034 30.6069C45.0381 30.7599 44.9877 30.9158 44.9057 31.043L44.8751 31.0913C44.8643 31.1078 44.8553 31.1188 44.8451 31.1334C44.8255 31.1602 44.8054 31.1872 44.7856 31.2146C44.7476 31.2656 44.7078 31.3159 44.6681 31.3657C44.7076 31.3979 44.7555 31.4378 44.8107 31.4874C44.8904 31.5582 44.9861 31.6461 45.0898 31.7536C45.1938 31.8603 45.3082 31.985 45.4206 32.132C45.534 32.2785 45.6492 32.4456 45.7396 32.6464C45.784 32.747 45.8236 32.8555 45.8432 32.9763C45.8637 33.096 45.8607 33.2314 45.8137 33.362C45.768 33.4931 45.6746 33.6085 45.5662 33.6895C45.4689 33.7627 45.3739 33.827 45.273 33.8912C45.2959 33.9406 45.3225 34.0051 45.3487 34.085C45.3822 34.1883 45.4179 34.316 45.4454 34.4654C45.4734 34.6148 45.4972 34.7848 45.5057 34.9725C45.5142 35.1597 45.5139 35.365 45.4836 35.5816C45.4686 35.6895 45.4477 35.801 45.4164 35.9134C45.3846 36.0259 45.3436 36.1404 45.2815 36.2509C45.221 36.3611 45.1415 36.4694 45.0347 36.5588C44.9289 36.6482 44.7938 36.7137 44.6526 36.7395C44.634 36.7423 44.6191 36.7454 44.5977 36.7477L44.5522 36.7524L44.5064 36.7574L44.4559 36.7599C44.4336 36.7616 44.4122 36.7618 44.3907 36.7621C44.3818 36.7898 44.3719 36.8196 44.36 36.8528C44.3298 36.9371 44.2931 37.0398 44.2443 37.1551C44.1954 37.2704 44.1394 37.4003 44.0699 37.5383C44.0007 37.6767 43.9194 37.824 43.8223 37.9748C43.7256 38.1254 43.6133 38.2796 43.477 38.4266C43.3404 38.5721 43.1789 38.714 42.9741 38.8117C42.8723 38.8601 42.7581 38.8951 42.6389 38.906C42.6091 38.9093 42.5788 38.9102 42.5489 38.91C42.5193 38.9101 42.4967 38.9093 42.4692 38.9085C42.4161 38.9072 42.3636 38.9036 42.3104 38.8999C42.1938 38.8913 42.0758 38.8768 41.9589 38.852C41.9418 38.8496 41.9241 38.847 41.9066 38.8437C41.891 38.9058 41.8684 38.9621 41.8457 39.0198L41.8002 39.1182L41.7487 39.2134C41.7323 39.2458 41.7113 39.2752 41.6928 39.3061C41.6733 39.3364 41.6557 39.3684 41.6346 39.3974C41.5918 39.4552 41.5533 39.5166 41.5071 39.5717C41.461 39.6271 41.4185 39.6854 41.3695 39.7381C41.3208 39.7913 41.2729 39.8449 41.2238 39.8973L41.069 40.0475C41.0436 40.0731 41.0169 40.0972 40.9894 40.1203L40.9077 40.1909C40.801 40.2879 40.6854 40.3729 40.5722 40.4618C40.5161 40.5073 40.4556 40.5458 40.3973 40.5878L40.2205 40.7112C40.0994 40.7882 39.9769 40.8634 39.8548 40.9393L39.4786 41.1497C39.3489 41.2177 39.2245 41.2794 39.097 41.3448C38.9692 41.4082 38.8362 41.4672 38.7055 41.528C38.5732 41.5855 38.4394 41.6387 38.3061 41.6931L38.1023 41.767L38.0003 41.8036C37.9662 41.8156 37.9316 41.8257 37.8972 41.8369L37.6895 41.9018L37.4785 41.9578C37.4089 41.9779 37.3364 41.9901 37.2655 42.0067C37.1946 42.0232 37.1219 42.035 37.0496 42.0467C36.9051 42.0719 36.7571 42.0842 36.6085 42.0906C36.5332 42.0909 36.4583 42.0921 36.3819 42.0859C36.3442 42.0844 36.3048 42.0785 36.2665 42.0747C36.2251 42.0678 36.1919 42.064 36.1395 42.0492L36.1191 42.0433L36.1004 42.029C35.9146 41.8876 35.745 41.7393 35.5824 41.5739C35.5017 41.4915 35.4241 41.4049 35.3517 41.3113C35.2798 41.2174 35.2122 41.1179 35.1592 41.0031C35.134 40.9446 35.1096 40.8848 35.097 40.8165C35.0742 40.7507 35.0723 40.6759 35.083 40.6019ZM44.6296 30.9764C44.6392 30.9635 44.6515 30.949 44.659 30.9382L44.6824 30.9034C44.7461 30.811 44.7825 30.7099 44.7841 30.6059C44.786 30.5016 44.7562 30.3954 44.707 30.2956C44.6582 30.1956 44.5927 30.1023 44.5226 30.0153C44.3767 29.8443 44.2145 29.6965 44.0563 29.5701C43.7377 29.3186 43.4453 29.1367 43.2402 29.0122C43.1726 28.9718 43.1141 28.9375 43.0659 28.9095C42.9707 29.1586 42.8594 29.4064 42.7248 29.6436C42.5816 29.8952 42.4152 30.1356 42.224 30.3504C42.034 30.5666 41.8167 30.7544 41.5867 30.9071C41.3566 31.0609 41.1088 31.1703 40.8668 31.2424C40.6244 31.316 40.386 31.3456 40.168 31.352C40.0589 31.3556 39.9545 31.3522 39.8557 31.3452C39.7572 31.336 39.6639 31.3257 39.5776 31.3111C39.527 31.3031 39.4794 31.2941 39.4331 31.2845C39.5585 31.3692 39.6791 31.4608 39.7977 31.5545C39.8555 31.6007 39.9122 31.648 39.9682 31.6962C39.9914 31.7099 40.0145 31.7236 40.0385 31.7379C40.1044 31.7797 40.1707 31.828 40.2416 31.876C40.3861 31.9693 40.5302 32.0877 40.6848 32.2107C40.7584 32.2767 40.8337 32.3451 40.9112 32.4149C40.9513 32.4483 40.9856 32.4888 41.0223 32.5269C41.0277 32.5324 41.033 32.538 41.0384 32.5436C41.0636 32.5532 41.0886 32.5624 41.1152 32.5704C41.1614 32.5841 41.2087 32.5979 41.2569 32.6122C41.4513 32.6629 41.6656 32.6989 41.8924 32.703C42.1189 32.7067 42.3566 32.6734 42.5921 32.6045C42.8287 32.5371 43.0578 32.422 43.278 32.2848C43.4983 32.1465 43.7051 31.978 43.8991 31.7949C44.094 31.6125 44.2754 31.4132 44.443 31.2077C44.4855 31.1566 44.526 31.1044 44.5665 31.0533C44.5887 31.0287 44.6091 31.0025 44.6296 30.9764ZM45.3358 33.5291C45.359 33.5137 45.3875 33.4958 45.4052 33.4827C45.4859 33.4268 45.5455 33.3571 45.5785 33.2751C45.6454 33.1102 45.608 32.9031 45.5405 32.7215C45.5066 32.6301 45.4648 32.542 45.4206 32.4586C45.377 32.3745 45.3301 32.2949 45.2823 32.2198C45.0898 31.92 44.8987 31.6854 44.7632 31.5231C44.7169 31.4677 44.6767 31.4216 44.6443 31.3839C44.6182 31.4164 44.5915 31.4486 44.5649 31.4809C44.5785 31.4992 44.6058 31.5368 44.6436 31.5928C44.6977 31.6734 44.773 31.7896 44.8533 31.9358C44.9345 32.0816 45.0203 32.2569 45.0938 32.4548C45.129 32.5542 45.1608 32.6594 45.1827 32.7703C45.2047 32.8813 45.2155 32.9992 45.1987 33.1212C45.1907 33.1821 45.1732 33.2441 45.1452 33.3029C45.1173 33.3617 45.0757 33.416 45.026 33.4599C44.9299 33.5375 44.8399 33.5924 44.7457 33.6461C44.6523 33.698 44.5595 33.743 44.4683 33.7785C44.3777 33.8154 44.2902 33.845 44.2079 33.8677C44.1664 33.8781 44.1275 33.8898 44.0895 33.897C44.0515 33.9043 44.0154 33.9121 43.9811 33.9175C43.9129 33.9293 43.8531 33.9348 43.8034 33.9381C43.754 33.9421 43.7151 33.9412 43.6885 33.9413C43.662 33.9409 43.6476 33.9408 43.6476 33.9408C43.6476 33.9408 43.6608 33.9353 43.6855 33.9259C43.7101 33.9155 43.7463 33.9047 43.7914 33.8858C43.8143 33.8769 43.839 33.8679 43.8663 33.8577C43.8933 33.8467 43.9224 33.8341 43.9536 33.8224C44.0158 33.7974 44.0847 33.7676 44.1592 33.7355C44.2327 33.7004 44.3139 33.6662 44.3965 33.6236C44.4791 33.581 44.5662 33.5367 44.6538 33.4867C44.6973 33.4615 44.7421 33.4368 44.7858 33.4089C44.8087 33.3958 44.8296 33.3821 44.8511 33.3686L44.8847 33.3462C44.8941 33.3402 44.9022 33.3337 44.9109 33.3275C44.9776 33.2743 45.0196 33.1918 45.0364 33.0957C45.0532 33 45.049 32.8957 45.036 32.7931C45.0222 32.6904 44.9986 32.5894 44.9713 32.4923C44.9443 32.3949 44.9136 32.3014 44.881 32.2135C44.8484 32.1255 44.8159 32.0431 44.7842 31.9673C44.7204 31.8161 44.6628 31.6909 44.6209 31.6038C44.5925 31.5443 44.5721 31.5029 44.5615 31.4825C44.4152 31.6593 44.2586 31.8318 44.0893 31.9943C43.8832 32.1873 43.6614 32.367 43.4192 32.5119C43.1792 32.6588 42.9198 32.7718 42.6568 32.8388C42.3942 32.908 42.1287 32.9273 41.882 32.909C41.6494 32.893 41.4345 32.841 41.2432 32.776C41.2769 32.8171 41.3106 32.8584 41.3446 32.9004C41.412 32.9903 41.4761 33.0849 41.538 33.1821C41.5663 33.2325 41.595 33.2832 41.6234 33.3335C41.6372 33.3594 41.6529 33.3839 41.6654 33.4103L41.7014 33.4906C41.7248 33.5444 41.7505 33.5976 41.7719 33.6523L41.8298 33.8196C41.8302 33.8214 41.831 33.8231 41.8314 33.825C41.8997 33.8783 41.9733 33.9317 42.0536 33.9833C42.2027 34.0774 42.3733 34.1621 42.5622 34.2237C42.7511 34.2852 42.9586 34.319 43.1741 34.323C43.3899 34.3277 43.6131 34.2953 43.8353 34.2411C44.0571 34.185 44.2779 34.1044 44.4914 34.0055C44.7059 33.9086 44.9142 33.7939 45.1128 33.6702C45.1628 33.6394 45.2117 33.6074 45.2602 33.5758C45.287 33.5603 45.3117 33.5448 45.3358 33.5291ZM44.4321 36.4932L44.4736 36.4919L44.5191 36.4876L44.5648 36.4834C44.5733 36.4828 44.5888 36.4798 44.6003 36.4783C44.6994 36.4628 44.7905 36.4238 44.8692 36.3627C44.948 36.3021 45.0139 36.2213 45.0678 36.1317C45.1745 35.9517 45.2396 35.7456 45.2794 35.5462C45.3179 35.3465 45.3392 35.1514 45.3458 34.9712C45.3516 34.7903 45.3494 34.6235 45.3379 34.4764C45.3263 34.3289 45.3107 34.2005 45.2908 34.0957C45.2763 34.0173 45.261 33.952 45.2472 33.9012C45.1645 33.9539 45.0792 34.005 44.9928 34.0545C45.0049 34.1498 45.0199 34.2831 45.0267 34.4436C45.0347 34.6096 45.0337 34.8045 45.011 35.0144C44.9985 35.1191 44.98 35.2274 44.9501 35.3365C44.9203 35.4456 44.8779 35.5561 44.8083 35.6586C44.7738 35.7094 44.7309 35.7577 44.6797 35.7983C44.6283 35.839 44.5669 35.8692 44.5027 35.887C44.3816 35.9142 44.2768 35.9244 44.1683 35.9311C44.0617 35.9365 43.958 35.9364 43.8607 35.9287C43.763 35.922 43.6711 35.9105 43.5874 35.8947C43.5456 35.886 43.5055 35.8795 43.4676 35.8693C43.4302 35.859 43.3946 35.8503 43.3614 35.8404C43.2955 35.821 43.2388 35.7997 43.1931 35.7811C43.1473 35.7631 43.1124 35.7453 43.0886 35.7335C43.0648 35.7216 43.0525 35.7154 43.0525 35.7154C43.0525 35.7154 43.0665 35.7167 43.0931 35.7186C43.1194 35.7201 43.1574 35.7261 43.206 35.7291C43.2305 35.7309 43.2566 35.734 43.2857 35.7367C43.3147 35.7384 43.3463 35.7399 43.3794 35.7437C43.446 35.7486 43.5215 35.7517 43.6027 35.756C43.6843 35.7572 43.7721 35.7614 43.8655 35.7594C43.9586 35.7576 44.0563 35.756 44.1571 35.7493C44.2075 35.7463 44.2587 35.7429 44.3104 35.7376C44.3367 35.7355 44.3614 35.7327 44.3873 35.7299L44.4277 35.7245C44.4388 35.7232 44.449 35.7208 44.4599 35.7191C44.5431 35.7006 44.6179 35.645 44.6755 35.5662C44.7333 35.4879 44.7759 35.3919 44.8099 35.2945C44.8436 35.1963 44.8671 35.0953 44.8856 34.9963C44.9049 34.8969 44.9189 34.7996 44.929 34.7067C44.9388 34.6139 44.9468 34.5251 44.952 34.4431C44.9612 34.2921 44.9654 34.1644 44.9669 34.0696C44.8512 34.1348 44.7328 34.1973 44.6108 34.2539C44.3833 34.3575 44.1452 34.444 43.9008 34.4988C43.6574 34.5548 43.4081 34.5769 43.1678 34.5631C42.9275 34.5513 42.6975 34.496 42.4943 34.4148C42.3926 34.3741 42.2965 34.328 42.2083 34.2761C42.1204 34.2236 42.0394 34.1677 41.9646 34.1109C41.9392 34.0916 41.9153 34.0722 41.8918 34.0526C41.9248 34.2049 41.9461 34.3595 41.9501 34.5132C41.954 34.6273 41.9491 34.7401 41.9384 34.8507C41.9441 34.8622 41.9491 34.8734 41.9543 34.8852C41.9934 34.9665 42.0402 35.0477 42.0893 35.1306C42.1151 35.1715 42.1411 35.2129 42.1676 35.255C42.1962 35.2955 42.2254 35.3369 42.2547 35.3787C42.2863 35.4187 42.318 35.4594 42.3507 35.5005C42.3854 35.5397 42.4201 35.5798 42.4558 35.619C42.5293 35.6963 42.6056 35.7738 42.69 35.8453C42.8577 35.9895 43.0487 36.1167 43.2559 36.2192C43.4623 36.3226 43.6865 36.4007 43.9156 36.4469C44.0301 36.4708 44.1462 36.4868 44.262 36.4917C44.3189 36.4946 44.3783 36.4964 44.4321 36.4932ZM42.8588 38.5746C43.0216 38.5032 43.1709 38.3887 43.3016 38.2623C43.4339 38.1361 43.5493 37.9977 43.6538 37.8621C43.7579 37.7256 43.8501 37.5909 43.9325 37.4635C44.0138 37.336 44.0873 37.2175 44.1488 37.1102C44.2105 37.0031 44.2643 36.9094 44.306 36.8306C44.3198 36.8056 44.3318 36.7829 44.3435 36.761C44.3122 36.7609 44.2813 36.7607 44.25 36.7595C44.1504 36.7564 44.051 36.7466 43.9528 36.7305C43.9209 36.8147 43.8774 36.9218 43.8206 37.044C43.7869 37.1184 43.7466 37.1969 43.7021 37.2795C43.6577 37.3621 43.6089 37.4483 43.5522 37.5343C43.4964 37.6209 43.4349 37.7086 43.3666 37.7937C43.2969 37.8783 43.2208 37.9611 43.1347 38.0364C43.0911 38.0748 43.0474 38.1082 42.9963 38.1436L42.9622 38.1653L42.9212 38.1882C42.894 38.2018 42.8677 38.2151 42.8396 38.2257C42.7289 38.2697 42.6114 38.2885 42.5005 38.2873C42.3894 38.2867 42.2844 38.2663 42.1896 38.2385C42.0941 38.2115 42.0101 38.1723 41.9351 38.1334C41.8606 38.0938 41.7966 38.0505 41.7413 38.0111C41.6876 37.97 41.6418 37.9332 41.6068 37.8998C41.5713 37.8672 41.5451 37.8401 41.528 37.8209C41.5108 37.8018 41.5016 37.7916 41.5016 37.7916C41.5016 37.7916 41.514 37.7977 41.5367 37.8096C41.5595 37.8214 41.5923 37.8391 41.6348 37.8608C41.6776 37.8817 41.728 37.9082 41.788 37.934C41.8467 37.9616 41.9145 37.9888 41.9885 38.0149C42.0621 38.0424 42.1439 38.0638 42.2295 38.0823C42.3154 38.1002 42.4068 38.1089 42.4992 38.1068C42.5914 38.1044 42.6852 38.0884 42.7737 38.0557C42.7958 38.0475 42.818 38.0382 42.8391 38.028L42.8691 38.013L42.9042 37.9924C42.9425 37.9682 42.9865 37.9378 43.0254 37.9061C43.1051 37.8421 43.1792 37.7685 43.2476 37.6917C43.3173 37.6157 43.3821 37.5358 43.4416 37.4566C43.5008 37.377 43.5568 37.298 43.608 37.2218C43.6593 37.1456 43.7055 37.0718 43.7484 37.0037C43.8159 36.8941 43.8722 36.7981 43.9156 36.7216C43.8971 36.7184 43.8788 36.7156 43.8605 36.7117C43.7322 36.6879 43.6065 36.6527 43.4847 36.6085C43.423 36.5885 43.3638 36.5622 43.3043 36.5382C43.2462 36.5109 43.1874 36.4854 43.1312 36.4547C42.9038 36.338 42.7002 36.1884 42.5235 36.0237C42.4346 35.9422 42.3541 35.855 42.2792 35.7666C42.2432 35.7215 42.2087 35.6757 42.1745 35.6312C42.1427 35.5845 42.1114 35.5387 42.0805 35.4936C42.0522 35.4467 42.024 35.4009 41.9963 35.3553C41.9712 35.3085 41.9466 35.2628 41.9223 35.2177C41.912 35.1957 41.9025 35.1744 41.8924 35.1528C41.8904 35.1634 41.8883 35.1747 41.8863 35.1853C41.8545 35.3391 41.8096 35.4844 41.7601 35.6224C41.7901 35.5906 41.8211 35.5597 41.8542 35.5311C41.8175 35.5682 41.7833 35.6071 41.7512 35.6481C41.7347 35.6937 41.7177 35.7382 41.7004 35.7822C41.6286 35.9666 41.5444 36.132 41.4662 36.2834C41.3951 36.4216 41.3246 36.5448 41.2624 36.6569C41.2446 36.7311 41.225 36.8155 41.2061 36.9101C41.1829 37.0307 41.161 37.1664 41.1476 37.3139C41.1356 37.4612 41.1331 37.6207 41.158 37.7805C41.1832 37.9397 41.2391 38.0989 41.3423 38.227C41.4441 38.3556 41.592 38.4513 41.764 38.513C41.9359 38.5763 42.1281 38.6071 42.3243 38.6241C42.3731 38.6284 42.4231 38.631 42.4722 38.6338C42.4955 38.6352 42.5244 38.6364 42.5456 38.6368C42.5664 38.6374 42.5874 38.6374 42.6085 38.6353C42.6933 38.6324 42.7772 38.609 42.8588 38.5746ZM35.7592 41.3738C35.7697 41.3742 35.7825 41.3751 35.7998 41.3759C35.8208 41.3769 35.8462 41.3784 35.8764 41.3794C35.9066 41.3812 35.9409 41.3834 35.9798 41.3818C36.0185 41.3813 36.0614 41.3809 36.1078 41.3803C36.1544 41.3801 36.2046 41.3746 36.2584 41.3714C36.2853 41.3696 36.3128 41.3674 36.3412 41.3654C36.3696 41.3617 36.3986 41.3579 36.4285 41.3541C36.4882 41.346 36.5513 41.3409 36.6161 41.3277C36.7464 41.3069 36.8866 41.277 37.0332 41.2411C37.1799 41.2045 37.3331 41.1604 37.4903 41.1096C37.5686 41.0844 37.6486 41.0582 37.7283 41.0282C37.8084 41.0001 37.8889 40.9698 37.9698 40.9382C38.132 40.8769 38.2943 40.8074 38.4551 40.736C38.5356 40.7006 38.616 40.6636 38.6961 40.6274C38.7752 40.589 38.8547 40.5526 38.9326 40.5138C39.0877 40.436 39.2416 40.3609 39.3876 40.2825C39.5341 40.2049 39.6746 40.1286 39.8077 40.055C39.94 39.9802 40.065 39.9099 40.1797 39.8427C40.4087 39.7087 40.5986 39.5943 40.7303 39.5126C40.8625 39.4312 40.937 39.3835 40.937 39.3835C40.937 39.3835 40.8692 39.4407 40.746 39.5351C40.6226 39.6295 40.4435 39.7606 40.2217 39.9093C40.1112 39.9837 39.9898 40.0623 39.8598 40.1432C39.7294 40.2232 39.5917 40.3073 39.446 40.3885C39.3735 40.4298 39.2993 40.4708 39.2235 40.5117C39.1481 40.5533 39.0707 40.5929 38.9927 40.6327C38.9144 40.6727 38.8345 40.7104 38.7548 40.7495C38.6743 40.787 38.5935 40.8252 38.5119 40.8617C38.3478 40.9326 38.183 41.0012 38.0177 41.0625C37.9766 41.0779 37.9354 41.0933 37.8946 41.1085C37.8532 41.1225 37.8117 41.136 37.7711 41.1495C37.6894 41.1774 37.6075 41.2018 37.5269 41.2256C37.3661 41.2741 37.2079 41.3111 37.0567 41.3416C36.9054 41.3722 36.7609 41.3934 36.6272 41.4064C36.5607 41.4152 36.496 41.417 36.4346 41.4208C36.4041 41.4223 36.3745 41.4235 36.3453 41.4249C36.3165 41.4247 36.288 41.4242 36.2608 41.4242C36.2062 41.4226 36.1553 41.4255 36.1081 41.4204C36.0609 41.4163 36.0176 41.4128 35.9791 41.4096C35.9401 41.4076 35.9058 41.4014 35.8755 41.3962C35.8458 41.3913 35.8201 41.387 35.7995 41.3837C35.7845 41.3813 35.7728 41.3793 35.7631 41.3775C35.7662 41.3805 35.7688 41.3838 35.7716 41.3865C35.9147 41.534 36.0738 41.6746 36.2348 41.8001C36.2531 41.8039 36.2772 41.808 36.2973 41.8114C36.3297 41.8147 36.3611 41.8202 36.3945 41.8213C36.4603 41.8266 36.5277 41.826 36.5951 41.8264C36.7305 41.8208 36.8675 41.8103 37.0039 41.7895C37.0721 41.7799 37.1406 41.7701 37.2082 41.7551C37.2759 41.7406 37.3443 41.7303 37.4117 41.7119L37.6142 41.6616L37.8154 41.6022C37.8489 41.5921 37.8823 41.583 37.9158 41.5719L38.0149 41.5376L38.2137 41.4692C38.3444 41.418 38.476 41.3686 38.6055 41.3149C38.7337 41.2584 38.863 41.2064 38.9912 41.1467C39.1188 41.0859 39.2506 41.0246 39.3741 40.9637L39.748 40.7677L40.1122 40.555L40.2891 40.4413C40.3474 40.4025 40.4085 40.3672 40.4646 40.3248C40.5779 40.2423 40.6945 40.1634 40.8015 40.0734L40.8836 40.0077C40.9113 39.986 40.9384 39.9638 40.9636 39.9399L41.1198 39.8001C41.1699 39.7519 41.2186 39.7018 41.2688 39.6526C41.3192 39.6037 41.3627 39.5496 41.4098 39.4982C41.4573 39.4467 41.497 39.3898 41.5411 39.3359C41.5633 39.3088 41.5814 39.2792 41.6015 39.2511C41.6208 39.2225 41.6424 39.1946 41.6594 39.1646L41.713 39.0756L41.7616 38.9838C41.7868 38.9308 41.8123 38.8753 41.8293 38.8212C41.7748 38.8064 41.7209 38.7888 41.6675 38.7689C41.5646 38.7288 41.465 38.6778 41.374 38.613C41.2835 38.548 41.2036 38.4682 41.1394 38.3797C41.0107 38.2009 40.9559 37.994 40.9425 37.8076C40.9394 37.7629 40.9382 37.7187 40.9386 37.6757L40.9226 37.7288L40.8663 37.8934C40.8567 37.9209 40.8421 37.9464 40.8303 37.9724C40.7333 38.1838 40.5919 38.3724 40.43 38.5363C40.2662 38.6997 40.0819 38.8379 39.8887 38.96C39.7925 39.0224 39.6929 39.0773 39.593 39.1328C39.4918 39.1845 39.3911 39.2373 39.2872 39.2837C39.0813 39.3793 38.871 39.464 38.6583 39.5402C38.2325 39.6925 37.7986 39.8158 37.3643 39.9291C37.1471 39.9861 36.9296 40.0402 36.7126 40.0925C36.4954 40.1453 36.2789 40.1974 36.0664 40.2556C36.0134 40.27 35.9601 40.2847 35.9084 40.3006C35.856 40.3159 35.8046 40.3326 35.7539 40.3496C35.7278 40.3577 35.704 40.3667 35.6811 40.3756C35.6575 40.385 35.6357 40.3916 35.6102 40.4034L35.5377 40.4365C35.5368 40.4369 35.5369 40.4369 35.5377 40.4365L35.5349 40.4379L35.5313 40.4402L35.5243 40.4446L35.5096 40.4533L35.4803 40.4699C35.406 40.5192 35.3672 40.5778 35.3542 40.645C35.3538 40.6493 35.3533 40.6537 35.3529 40.658C35.3679 40.6573 35.3846 40.6568 35.4032 40.6559C35.4473 40.6539 35.501 40.6543 35.5624 40.6499C35.624 40.6445 35.693 40.6391 35.7682 40.6342C35.8059 40.6327 35.8447 40.6271 35.8853 40.6221C35.9258 40.6178 35.9671 40.6131 36.0104 40.6083C36.0962 40.6014 36.1857 40.5829 36.2793 40.5717C36.3725 40.5611 36.4675 40.5384 36.5652 40.5241C36.6627 40.5084 36.7604 40.486 36.8589 40.4673C36.9573 40.447 37.0554 40.4255 37.1519 40.4036C37.2474 40.3787 37.3432 40.3607 37.4346 40.3358C37.5261 40.3123 37.6142 40.2899 37.698 40.2686C37.782 40.2463 37.8609 40.2253 37.9341 40.2061C38.0804 40.1657 38.2018 40.1318 38.2871 40.1083C38.3727 40.0841 38.4213 40.0702 38.4213 40.0702C38.4213 40.0702 38.4099 40.0762 38.3892 40.0872C38.3678 40.0981 38.3369 40.1146 38.297 40.1334C38.2171 40.1722 38.1011 40.2243 37.9594 40.2803C37.8884 40.3081 37.8114 40.3383 37.7287 40.3662C37.6462 40.3955 37.5591 40.425 37.4671 40.4518C37.3761 40.4806 37.2809 40.506 37.1839 40.532C37.0864 40.5559 36.987 40.5791 36.8876 40.6014C36.7871 40.6191 36.6872 40.6405 36.5875 40.6547C36.538 40.6625 36.4885 40.6692 36.4398 40.6755C36.391 40.6828 36.3425 40.6875 36.2947 40.6914C36.199 40.6996 36.1073 40.71 36.0192 40.7105C35.9314 40.7123 35.8484 40.7169 35.7715 40.7129C35.6947 40.7101 35.625 40.7061 35.5626 40.7023C35.5008 40.6987 35.4468 40.6882 35.4027 40.6831C35.384 40.6805 35.3675 40.6783 35.3525 40.6759C35.3504 40.7394 35.3711 40.8145 35.4042 40.889C35.4171 40.9184 35.4331 40.9476 35.45 40.9766C35.4589 40.9769 35.469 40.9776 35.4821 40.9784C35.5232 40.9794 35.5834 40.9858 35.66 40.9853C35.7368 40.9848 35.8297 40.9859 35.936 40.9777C35.9624 40.976 35.9898 40.9745 36.0183 40.9729C36.0465 40.9709 36.0753 40.9666 36.105 40.9634C36.1644 40.956 36.2265 40.9528 36.2911 40.9414C36.4206 40.9229 36.5598 40.8971 36.7061 40.866C36.8524 40.8338 37.0049 40.7944 37.1619 40.7497C37.3191 40.7052 37.4795 40.6529 37.6419 40.597C37.8042 40.5422 37.9673 40.4795 38.1295 40.4151C38.2111 40.3838 38.2911 40.3495 38.3716 40.3171C38.4515 40.2824 38.5308 40.2486 38.6099 40.2143C38.7664 40.1435 38.9217 40.0754 39.0687 40.0042C39.3648 39.8636 39.6379 39.7252 39.8701 39.603C40.3349 39.3583 40.6392 39.1823 40.6392 39.1823C40.6392 39.1823 40.5696 39.2359 40.4437 39.3239C40.3178 39.412 40.1352 39.534 39.9099 39.6712C39.7975 39.7399 39.6743 39.8128 39.5425 39.8869C39.4106 39.9606 39.2707 40.038 39.1234 40.112C38.9763 40.1873 38.8232 40.263 38.6651 40.3346C38.5859 40.3694 38.5059 40.4051 38.4253 40.4406C38.344 40.4744 38.2633 40.5095 38.1814 40.5421C38.0169 40.6061 37.8513 40.6679 37.6857 40.7223C37.6442 40.7358 37.6032 40.7496 37.562 40.7629C37.5207 40.7748 37.4795 40.7871 37.4384 40.7995C37.3569 40.8246 37.2751 40.845 37.1947 40.8662C37.0343 40.9083 36.8766 40.94 36.7264 40.9665C36.6517 40.9804 36.5778 40.9887 36.5069 40.9991C36.4359 41.0091 36.3664 41.0128 36.3003 41.0193C36.2341 41.0265 36.17 41.0266 36.1097 41.0293C36.0794 41.0303 36.0499 41.0319 36.0214 41.0314C35.9928 41.0305 35.9649 41.0303 35.938 41.0296C35.8299 41.0301 35.7362 41.019 35.6594 41.0121C35.6206 41.0094 35.5867 41.003 35.557 40.9981C35.5273 40.9931 35.5025 40.9884 35.4819 40.9852C35.4707 40.9834 35.4617 40.9816 35.4533 40.9802C35.486 41.0361 35.5234 41.0912 35.5642 41.1447C35.6228 41.2251 35.6893 41.3008 35.7592 41.3738Z" fill="#D3E3FF"/>
<path d="M29.0712 29.1094L29.072 29.111L29.0734 29.1139L29.076 29.1202L29.0811 29.1326L29.0911 29.1572C29.0987 29.1734 29.1034 29.1905 29.1086 29.2072C29.1205 29.2406 29.1266 29.2759 29.1318 29.3104C29.1407 29.3804 29.1396 29.4512 29.1269 29.5189C29.1135 29.5865 29.0908 29.6508 29.0593 29.7099C29.0264 29.7681 28.9878 29.8209 28.9419 29.865C28.8951 29.9096 28.8479 29.9451 28.7912 29.9747C28.7622 29.9917 28.7399 29.9985 28.7157 30.0088C28.698 30.0168 28.6871 30.0185 28.673 30.0233C28.6596 30.0273 28.6465 30.0321 28.6329 30.0346C28.5248 30.059 28.4208 30.055 28.3319 30.035C28.2422 30.0144 28.1677 29.9777 28.1076 29.9382C28.0476 29.8986 28.0034 29.8539 27.9708 29.8158C27.9549 29.796 27.9402 29.7786 27.9298 29.7618C27.9188 29.7457 27.9095 29.732 27.9034 29.7197C27.9095 29.732 27.9201 29.7451 27.9319 29.7608C27.9425 29.7771 27.9567 29.7946 27.9743 29.8125C28.009 29.8486 28.0555 29.8897 28.1179 29.9204C28.1797 29.9521 28.2557 29.9753 28.3392 29.978C28.4223 29.981 28.5113 29.9618 28.5919 29.9212C28.6021 29.9168 28.6114 29.9097 28.6215 29.9043C28.63 29.8986 28.6435 29.8926 28.6481 29.8873C28.6685 29.8724 28.6927 29.8571 28.7056 29.8427C28.7365 29.816 28.767 29.7768 28.792 29.7403C28.8169 29.7022 28.8353 29.6602 28.8499 29.618C28.8637 29.5752 28.8709 29.5306 28.8746 29.486C28.8766 29.4413 28.8727 29.3969 28.8648 29.3539C28.8588 29.3324 28.855 29.3109 28.8469 29.2903C28.8432 29.2799 28.8404 29.269 28.8352 29.2594L28.8283 29.2444L28.825 29.2368L28.8233 29.2332L28.8223 29.2311C28.8094 29.2084 28.7949 29.1787 28.7859 29.1688C28.7769 29.1538 28.7614 29.1369 28.7484 29.1188C28.7187 29.0859 28.6857 29.0561 28.6492 29.03C28.6117 29.0059 28.5719 28.9835 28.5291 28.9686C28.4866 28.9541 28.4419 28.9427 28.3964 28.9389C28.3513 28.9358 28.3047 28.9349 28.2599 28.944C28.2369 28.9464 28.2154 28.9538 28.1931 28.9595L28.189 28.9605L28.1867 28.9611C28.1923 28.9579 28.1867 28.9611 28.188 28.9605L28.1791 28.9643L28.161 28.9715C28.1501 28.9764 28.1364 28.9809 28.1271 28.986C28.0902 29.0038 28.0496 29.0265 28.0168 29.0546C27.9825 29.0819 27.9542 29.114 27.9287 29.1467C27.8797 29.2138 27.8514 29.2875 27.8384 29.3548C27.8242 29.4228 27.8288 29.4842 27.8362 29.5335C27.8397 29.5582 27.8449 29.5801 27.8515 29.5988C27.8571 29.6174 27.8619 29.6334 27.8676 29.6459C27.8615 29.6337 27.8554 29.6182 27.8494 29.5998C27.8424 29.5813 27.8372 29.5595 27.8316 29.5347C27.8212 29.4853 27.8128 29.4237 27.8176 29.3521C27.823 29.2808 27.8396 29.2001 27.8779 29.1174C27.8985 29.0769 27.9211 29.0344 27.953 28.995C27.9829 28.9536 28.0201 28.9177 28.0658 28.8803C28.147 28.815 28.263 28.7598 28.3885 28.7438C28.4518 28.7349 28.5178 28.7375 28.5841 28.7471C28.65 28.759 28.716 28.7804 28.7777 28.812C28.8396 28.8436 28.8963 28.8869 28.9465 28.9368C28.9706 28.9628 28.9939 28.9881 29.0163 29.022C29.0277 29.0379 29.0393 29.0551 29.0447 29.0662L29.0663 29.1036C29.0738 29.1148 29.0695 29.1061 29.0712 29.1094Z" fill="#D3E3FF"/>
<path d="M28.1265 29.408C28.2504 29.3479 28.3996 29.3988 28.4601 29.5216C28.5207 29.6443 28.469 29.7924 28.3456 29.8523C28.2218 29.9123 28.0725 29.8615 28.012 29.7388C27.951 29.6162 28.0027 29.468 28.1265 29.408Z" fill="#D3E3FF"/>
<path d="M68.0414 38.382C68.5254 38.382 68.9214 38.3453 69.2294 38.272C69.5521 38.184 69.8088 38.074 69.9994 37.942C70.1901 37.7953 70.3221 37.6267 70.3954 37.436C70.4688 37.2453 70.5054 37.0327 70.5054 36.798C70.5054 36.2993 70.2708 35.8887 69.8014 35.566C69.3321 35.2287 68.5254 34.8693 67.3814 34.488C66.8828 34.312 66.3841 34.114 65.8854 33.894C65.3868 33.6593 64.9394 33.3733 64.5434 33.036C64.1474 32.684 63.8248 32.266 63.5754 31.782C63.3261 31.2833 63.2014 30.682 63.2014 29.978C63.2014 29.274 63.3334 28.6433 63.5974 28.086C63.8614 27.514 64.2354 27.03 64.7194 26.634C65.2034 26.238 65.7901 25.9373 66.4794 25.732C67.1688 25.512 67.9461 25.402 68.8114 25.402C69.8381 25.402 70.7254 25.512 71.4734 25.732C72.2214 25.952 72.8374 26.194 73.3214 26.458L72.3314 29.164C71.9061 28.944 71.4294 28.7533 70.9014 28.592C70.3881 28.416 69.7648 28.328 69.0314 28.328C68.2101 28.328 67.6161 28.4453 67.2494 28.68C66.8974 28.9 66.7214 29.2447 66.7214 29.714C66.7214 29.9927 66.7874 30.2273 66.9194 30.418C67.0514 30.6087 67.2348 30.7847 67.4694 30.946C67.7188 31.0927 67.9974 31.232 68.3054 31.364C68.6281 31.4813 68.9801 31.606 69.3614 31.738C70.1534 32.0313 70.8428 32.3247 71.4294 32.618C72.0161 32.8967 72.5001 33.2267 72.8814 33.608C73.2774 33.9893 73.5708 34.4367 73.7614 34.95C73.9521 35.4633 74.0474 36.0867 74.0474 36.82C74.0474 38.2427 73.5488 39.35 72.5514 40.142C71.5541 40.9193 70.0508 41.308 68.0414 41.308C67.3668 41.308 66.7581 41.264 66.2154 41.176C65.6728 41.1027 65.1888 41.0073 64.7634 40.89C64.3528 40.7727 63.9934 40.648 63.6854 40.516C63.3921 40.384 63.1428 40.2593 62.9374 40.142L63.9054 37.414C64.3601 37.6633 64.9174 37.8907 65.5774 38.096C66.2521 38.2867 67.0734 38.382 68.0414 38.382ZM79.1461 41H75.8681V29.428H79.1461V41ZM79.4541 26.084C79.4541 26.6853 79.2561 27.162 78.8601 27.514C78.4788 27.8513 78.0241 28.02 77.4961 28.02C76.9681 28.02 76.5061 27.8513 76.1101 27.514C75.7288 27.162 75.5381 26.6853 75.5381 26.084C75.5381 25.4827 75.7288 25.0133 76.1101 24.676C76.5061 24.324 76.9681 24.148 77.4961 24.148C78.0241 24.148 78.4788 24.324 78.8601 24.676C79.2561 25.0133 79.4541 25.4827 79.4541 26.084ZM87.9855 34.862C87.9855 33.806 87.8462 33.058 87.5675 32.618C87.3035 32.178 86.8415 31.958 86.1815 31.958C85.9762 31.958 85.7635 31.9727 85.5435 32.002C85.3235 32.0167 85.1108 32.0387 84.9055 32.068V41H81.6275V29.824C81.9062 29.7507 82.2288 29.6773 82.5955 29.604C82.9768 29.516 83.3728 29.4427 83.7835 29.384C84.2088 29.3107 84.6415 29.2593 85.0815 29.23C85.5215 29.186 85.9542 29.164 86.3795 29.164C87.2155 29.164 87.8902 29.274 88.4035 29.494C88.9315 29.6993 89.3642 29.9487 89.7015 30.242C90.1708 29.9047 90.7062 29.6407 91.3075 29.45C91.9235 29.2593 92.4882 29.164 93.0015 29.164C93.9255 29.164 94.6808 29.296 95.2675 29.56C95.8688 29.8093 96.3455 30.1687 96.6975 30.638C97.0495 31.1073 97.2915 31.6647 97.4235 32.31C97.5555 32.9553 97.6215 33.674 97.6215 34.466V41H94.3435V34.862C94.3435 33.806 94.2042 33.058 93.9255 32.618C93.6615 32.178 93.1995 31.958 92.5395 31.958C92.3635 31.958 92.1142 32.002 91.7915 32.09C91.4835 32.178 91.2268 32.288 91.0215 32.42C91.1242 32.7573 91.1902 33.1167 91.2195 33.498C91.2488 33.8647 91.2635 34.2607 91.2635 34.686V41H87.9855V34.862ZM110.822 35.192C110.822 36.1013 110.69 36.9373 110.426 37.7C110.162 38.448 109.781 39.0933 109.282 39.636C108.784 40.164 108.182 40.5747 107.478 40.868C106.789 41.1613 106.012 41.308 105.146 41.308C104.296 41.308 103.518 41.1613 102.814 40.868C102.125 40.5747 101.531 40.164 101.032 39.636C100.534 39.0933 100.145 38.448 99.8662 37.7C99.5875 36.9373 99.4482 36.1013 99.4482 35.192C99.4482 34.2827 99.5875 33.454 99.8662 32.706C100.16 31.958 100.556 31.32 101.054 30.792C101.568 30.264 102.169 29.8533 102.858 29.56C103.562 29.2667 104.325 29.12 105.146 29.12C105.982 29.12 106.745 29.2667 107.434 29.56C108.138 29.8533 108.74 30.264 109.238 30.792C109.737 31.32 110.126 31.958 110.404 32.706C110.683 33.454 110.822 34.2827 110.822 35.192ZM107.478 35.192C107.478 34.18 107.273 33.388 106.862 32.816C106.466 32.2293 105.894 31.936 105.146 31.936C104.398 31.936 103.819 32.2293 103.408 32.816C102.998 33.388 102.792 34.18 102.792 35.192C102.792 36.204 102.998 37.0107 103.408 37.612C103.819 38.1987 104.398 38.492 105.146 38.492C105.894 38.492 106.466 38.1987 106.862 37.612C107.273 37.0107 107.478 36.204 107.478 35.192ZM115.555 35.126C115.555 36.138 115.783 36.952 116.237 37.568C116.692 38.184 117.367 38.492 118.261 38.492C118.555 38.492 118.826 38.4847 119.075 38.47C119.325 38.4407 119.53 38.4113 119.691 38.382V32.42C119.486 32.288 119.215 32.178 118.877 32.09C118.555 32.002 118.225 31.958 117.887 31.958C116.333 31.958 115.555 33.014 115.555 35.126ZM122.969 40.626C122.676 40.714 122.339 40.802 121.957 40.89C121.576 40.9633 121.173 41.0293 120.747 41.088C120.337 41.1467 119.911 41.1907 119.471 41.22C119.046 41.264 118.635 41.286 118.239 41.286C117.286 41.286 116.435 41.1467 115.687 40.868C114.939 40.5893 114.309 40.1933 113.795 39.68C113.282 39.152 112.886 38.5213 112.607 37.788C112.343 37.04 112.211 36.204 112.211 35.28C112.211 34.3413 112.329 33.498 112.563 32.75C112.798 31.9873 113.135 31.342 113.575 30.814C114.015 30.286 114.551 29.8827 115.181 29.604C115.827 29.3253 116.56 29.186 117.381 29.186C117.836 29.186 118.239 29.23 118.591 29.318C118.958 29.406 119.325 29.5307 119.691 29.692V24.456L122.969 23.928V40.626ZM129.861 38.712C130.183 38.712 130.491 38.7047 130.785 38.69C131.078 38.6753 131.313 38.6533 131.489 38.624V36.138C131.357 36.1087 131.159 36.0793 130.895 36.05C130.631 36.0207 130.389 36.006 130.169 36.006C129.861 36.006 129.567 36.028 129.289 36.072C129.025 36.1013 128.79 36.1673 128.585 36.27C128.379 36.3727 128.218 36.512 128.101 36.688C127.983 36.864 127.925 37.084 127.925 37.348C127.925 37.8613 128.093 38.2207 128.431 38.426C128.783 38.6167 129.259 38.712 129.861 38.712ZM129.597 29.12C130.565 29.12 131.371 29.23 132.017 29.45C132.662 29.67 133.175 29.9853 133.557 30.396C133.953 30.8067 134.231 31.3053 134.393 31.892C134.554 32.4787 134.635 33.1313 134.635 33.85V40.67C134.165 40.7727 133.513 40.89 132.677 41.022C131.841 41.1687 130.829 41.242 129.641 41.242C128.893 41.242 128.211 41.176 127.595 41.044C126.993 40.912 126.473 40.6993 126.033 40.406C125.593 40.098 125.255 39.702 125.021 39.218C124.786 38.734 124.669 38.14 124.669 37.436C124.669 36.7613 124.801 36.1893 125.065 35.72C125.343 35.2507 125.71 34.8767 126.165 34.598C126.619 34.3193 127.14 34.1213 127.727 34.004C128.313 33.872 128.922 33.806 129.553 33.806C129.978 33.806 130.352 33.828 130.675 33.872C131.012 33.9013 131.283 33.9453 131.489 34.004V33.696C131.489 33.1387 131.32 32.6913 130.983 32.354C130.645 32.0167 130.059 31.848 129.223 31.848C128.665 31.848 128.115 31.892 127.573 31.98C127.03 32.0533 126.561 32.1633 126.165 32.31L125.747 29.67C125.937 29.6113 126.172 29.5527 126.451 29.494C126.744 29.4207 127.059 29.362 127.397 29.318C127.734 29.2593 128.086 29.2153 128.453 29.186C128.834 29.142 129.215 29.12 129.597 29.12ZM136.999 29.824C137.556 29.6627 138.275 29.516 139.155 29.384C140.035 29.2373 140.959 29.164 141.927 29.164C142.91 29.164 143.724 29.296 144.369 29.56C145.029 29.8093 145.55 30.1687 145.931 30.638C146.312 31.1073 146.584 31.6647 146.745 32.31C146.906 32.9553 146.987 33.674 146.987 34.466V41H143.709V34.862C143.709 33.806 143.57 33.058 143.291 32.618C143.012 32.178 142.492 31.958 141.729 31.958C141.494 31.958 141.245 31.9727 140.981 32.002C140.717 32.0167 140.482 32.0387 140.277 32.068V41H136.999V29.824ZM152.148 34.84C152.148 36.6733 152.889 37.59 154.37 37.59C154.707 37.59 155.023 37.546 155.316 37.458C155.609 37.37 155.859 37.2673 156.064 37.15V31.914C155.903 31.8847 155.712 31.8627 155.492 31.848C155.272 31.8187 155.015 31.804 154.722 31.804C153.857 31.804 153.211 32.09 152.786 32.662C152.361 33.234 152.148 33.96 152.148 34.84ZM159.342 39.548C159.342 41.44 158.858 42.8407 157.89 43.75C156.937 44.674 155.455 45.136 153.446 45.136C152.742 45.136 152.038 45.07 151.334 44.938C150.63 44.8207 149.977 44.6593 149.376 44.454L149.948 41.704C150.461 41.9093 150.997 42.0707 151.554 42.188C152.126 42.3053 152.771 42.364 153.49 42.364C154.429 42.364 155.089 42.1587 155.47 41.748C155.866 41.3373 156.064 40.8093 156.064 40.164V39.746C155.712 39.9073 155.345 40.032 154.964 40.12C154.597 40.1933 154.194 40.23 153.754 40.23C152.155 40.23 150.931 39.7607 150.08 38.822C149.229 37.8687 148.804 36.5413 148.804 34.84C148.804 33.9893 148.936 33.2193 149.2 32.53C149.464 31.826 149.845 31.2247 150.344 30.726C150.857 30.2273 151.481 29.846 152.214 29.582C152.947 29.3033 153.776 29.164 154.7 29.164C155.096 29.164 155.499 29.186 155.91 29.23C156.335 29.2593 156.753 29.3033 157.164 29.362C157.575 29.4207 157.963 29.494 158.33 29.582C158.711 29.6553 159.049 29.736 159.342 29.824V39.548Z" fill="#4C4C4D"/>
<defs>
<linearGradient id="paint0_linear_58127_1494" x1="29.6576" y1="27.843" x2="50.6332" y2="37.1608" gradientUnits="userSpaceOnUse">
<stop stop-color="#FDAC34"/>
<stop offset="1" stop-color="#FF900E"/>
</linearGradient>
<linearGradient id="paint1_linear_58127_1494" x1="28.9637" y1="26.5623" x2="47.0279" y2="25.9251" gradientUnits="userSpaceOnUse">
<stop stop-color="#FDAC34"/>
<stop offset="1" stop-color="#FF900E"/>
</linearGradient>
<linearGradient id="paint2_linear_58127_1494" x1="39.2633" y1="25.5166" x2="31.4371" y2="35.449" gradientUnits="userSpaceOnUse">
<stop stop-color="#FDAC34"/>
<stop offset="1" stop-color="#FF900E"/>
</linearGradient>
<linearGradient id="paint3_linear_58127_1494" x1="32.3919" y1="33.7973" x2="46.1272" y2="29.8431" gradientUnits="userSpaceOnUse">
<stop stop-color="#FDAC34"/>
<stop offset="1" stop-color="#FF9412"/>
</linearGradient>
</defs>
</svg>
