<svg width="26" height="20" viewBox="0 0 26 20" fill="none" xmlns="http://www.w3.org/2000/svg">
<path d="M20.7747 9.52487C20.0219 8.39844 17.5742 7.4998 17.5742 7.4998L20.373 3.9603C20.373 3.9603 22.1602 4.06939 23.0391 4.71164C23.2096 5.14656 23.066 5.90623 23.066 5.90623C23.066 5.90623 24.9405 6.76256 24.8961 7.52722C24.8778 7.83973 24.5137 8.17701 24.5137 8.17701C24.8965 8.85843 25.3943 8.6327 25.8119 10.3346C25.6582 10.5799 25.4825 10.68 25.2615 10.8335C25.2615 10.8335 25.8366 12.7901 25.0314 13.4067C24.8102 13.5762 24.3886 13.7184 24.3886 13.7184C24.3886 13.7184 23.7826 15.6187 22.7703 15.7568C22.1369 15.8432 21.5895 15.7698 21.2126 15.2578C20.8354 14.7457 21.2083 13.6342 21.2083 13.6342C21.2083 13.6342 21.7825 12.5771 21.7888 11.8666C21.7953 11.156 21.5401 10.2222 20.7747 9.52487Z" fill="url(#paint0_linear_58127_1496)"/>
<path d="M20.2133 3.24977C19.3552 2.29337 16.7876 3.23811 16.7876 3.23811C16.7876 3.23811 15.0971 4.94 14.0452 6.79691C13.696 7.82609 14.3384 7.67655 14.3384 7.67655C14.3384 7.67655 15.5358 7.52436 16.4499 7.30332C17.2918 7.87065 19.3064 6.97251 19.9066 5.95292C20.4892 4.96321 20.5242 4.26024 20.2133 3.24977Z" fill="url(#paint1_linear_58127_1496)"/>
<path d="M18.7974 16.3377C20.6468 15.8129 20.9215 14.5649 20.9215 14.5649L21.9088 15.712C21.9088 15.712 21.711 16.186 21.5256 16.4551C21.2148 16.9062 20.9357 17.0813 20.5006 17.4164C18.5142 18.5186 18.021 18.9434 16.233 18.9275C15.8055 18.6626 15.4296 18.5114 15.3189 18.0237C15.2656 17.7891 15.2972 17.6443 15.3432 17.4081C16.7044 16.7483 17.1161 17.0132 18.7974 16.3377Z" fill="url(#paint2_linear_58127_1496)"/>
<path d="M4.50225 6.54464L4.20312 6.31803L4.56106 6.28395C4.56106 6.28395 5.85881 6.23008 7.59764 5.60164C9.41249 4.72191 11.036 3.97066 12.2307 3.21667C13.7619 2.59582 15.2887 1.73437 16.4318 2.8059C17.1503 3.47943 15.8177 6.72798 13.8851 7.61672C12.212 8.38599 10.8581 8.13763 9.02606 7.92825C7.19393 7.71896 4.50225 6.54464 4.50225 6.54464Z" fill="url(#paint3_linear_58127_1496)"/>
<path d="M0.326317 6.13687L0.298815 6.07693C0.279987 6.03776 0.262641 5.99526 0.245502 5.95216C0.227948 5.90927 0.211006 5.86667 0.196752 5.82417C0.181875 5.78156 0.165971 5.73887 0.153573 5.69499C0.0994595 5.52184 0.0596199 5.34419 0.0352499 5.16478C-0.0145174 4.80576 -0.0108129 4.44066 0.0414635 4.08457C0.0953896 3.72878 0.195221 3.38171 0.337746 3.05573C0.62177 2.40368 1.07659 1.83674 1.63111 1.44078C1.90879 1.2431 2.2133 1.08736 2.53267 0.998196C2.85165 0.909233 3.1828 0.885582 3.49518 0.933119C3.80756 0.979628 4.10077 1.09547 4.34379 1.26565C4.58701 1.43522 4.78006 1.66017 4.89348 1.91097C4.9505 2.03597 4.98705 2.16732 5.00217 2.29788C5.01687 2.42864 5.00951 2.55838 4.9845 2.68041C4.97199 2.74142 4.95475 2.80116 4.93465 2.8572C4.91539 2.91283 4.89241 2.96926 4.8674 3.02158C4.81799 3.12747 4.75732 3.22501 4.68788 3.3111C4.54879 3.48385 4.36872 3.6047 4.18531 3.6615C4.00128 3.71919 3.81861 3.71615 3.66536 3.6759C3.51147 3.63653 3.38762 3.56024 3.29783 3.47807C3.20807 3.39493 3.15195 3.3061 3.11717 3.2303C3.08197 3.1548 3.0679 3.09193 3.05961 3.05015C3.05547 3.02926 3.05314 3.0131 3.052 3.00245C3.05376 3.0133 3.05691 3.02907 3.06147 3.04976C3.0712 3.09135 3.08735 3.15323 3.12463 3.22678C3.16129 3.30003 3.2199 3.38563 3.31034 3.46387C3.40037 3.54134 3.52347 3.60989 3.67265 3.64495C3.82141 3.68021 3.99711 3.67845 4.17086 3.61871C4.34459 3.55995 4.51185 3.44115 4.64017 3.27369C4.70402 3.18976 4.75972 3.09564 4.80457 2.99301C4.8494 2.89038 4.88731 2.77992 4.90669 2.66521C4.94773 2.43518 4.91372 2.18201 4.80321 1.95167C4.69291 1.72072 4.50878 1.51385 4.27778 1.35972C4.04699 1.20497 3.77017 1.10154 3.47648 1.06378C3.18257 1.02562 2.87283 1.05313 2.57488 1.1431C2.42601 1.1888 2.27929 1.24719 2.13739 1.31953C1.9957 1.39228 1.85844 1.47713 1.72726 1.57225C1.20069 1.95518 0.772237 2.5017 0.500631 3.12581C0.365237 3.43822 0.270484 3.7706 0.219591 4.11072C0.170337 4.45104 0.167828 4.7988 0.215896 5.13981C0.239318 5.31002 0.278634 5.47826 0.328707 5.6422C0.33988 5.68363 0.355596 5.72378 0.369466 5.76443C0.38291 5.80517 0.398429 5.84502 0.414373 5.88361C0.429487 5.92259 0.445223 5.96176 0.464654 6.00221L0.492155 6.06214C0.49661 6.07115 0.502063 6.08428 0.505303 6.08986L0.520101 6.11875C0.675063 6.42783 0.859236 6.72114 1.08376 6.97665C1.13781 7.04246 1.19873 7.10151 1.25673 7.16291C1.3189 7.2203 1.37857 7.27995 1.44449 7.33244C1.50791 7.38816 1.57614 7.43703 1.6427 7.48766C1.71238 7.53428 1.78041 7.58276 1.85303 7.62389C1.92356 7.66806 1.99829 7.70507 2.07134 7.74395C2.14691 7.77852 2.22102 7.81544 2.29808 7.84473C2.37409 7.87705 2.45241 7.9027 2.5297 7.93032C2.60846 7.95373 2.68597 7.97978 2.7656 7.99868C3.39983 8.16193 4.04706 8.16516 4.65001 8.1161C4.80106 8.10396 4.95008 8.08672 5.09645 8.06811C5.24241 8.04882 5.3857 8.02718 5.52819 8.00387C5.81357 7.95715 6.09366 7.9267 6.36147 7.9078C6.89794 7.8696 7.39051 7.87254 7.82563 7.89115C8.08739 7.90368 8.32764 7.92258 8.54582 7.94344C8.19415 7.86412 7.86584 7.77696 7.56309 7.69068C7.05612 7.54515 6.61988 7.39942 6.2641 7.27221C6.01189 7.1823 5.80149 7.10014 5.63323 7.03159C5.44448 6.97145 5.23459 6.90065 5.01346 6.81858C4.88174 6.76893 4.7457 6.71683 4.61015 6.6564C4.54237 6.62614 4.47463 6.59382 4.40751 6.55876C4.34042 6.52155 4.27351 6.48678 4.21096 6.42557C4.19627 6.40824 4.1785 6.38993 4.1712 6.3532L4.17061 6.34997C4.1708 6.35242 4.17006 6.34263 4.16985 6.34321L4.16967 6.33969L4.16974 6.33254C4.17086 6.32235 4.17242 6.30991 4.17746 6.30032C4.18166 6.29013 4.18938 6.28083 4.1979 6.27309C4.20662 6.26682 4.21616 6.26124 4.22422 6.25889C4.25813 6.24851 4.28036 6.25302 4.30178 6.25586C4.32298 6.25928 4.34294 6.26438 4.36206 6.26986C4.40238 6.28191 4.43978 6.29532 4.47677 6.30894L4.47618 6.30668L4.47438 6.29993C4.47282 6.29052 4.47087 6.27721 4.47364 6.26722C4.47498 6.25635 4.48044 6.24557 4.4863 6.23558C4.49297 6.22726 4.50088 6.21942 4.50814 6.21541C4.5384 6.19661 4.5609 6.19543 4.58257 6.19249C4.60424 6.19063 4.62445 6.19004 4.64424 6.19063C4.7238 6.19377 4.79465 6.20317 4.86883 6.20895C4.90366 6.21188 4.93766 6.21423 4.97248 6.21727C4.99249 6.21512 5.01335 6.21267 5.03605 6.20983C5.23669 6.18583 5.53051 6.14157 5.90109 6.0688C5.99402 6.05225 6.09112 6.03169 6.19297 6.00926C6.29483 5.98683 6.40204 5.96597 6.51097 5.93708C6.72964 5.87989 6.9617 5.80105 7.20465 5.70469C7.69156 5.51293 8.22219 5.25067 8.79584 4.95481C9.36879 4.65768 9.98056 4.31746 10.6349 3.96774C10.9617 3.79254 11.2983 3.61361 11.6462 3.43635C11.9938 3.2588 12.3527 3.08327 12.7249 2.91811C13.0971 2.75296 13.4822 2.5963 13.8855 2.46699C14.0871 2.40233 14.2931 2.34529 14.5048 2.30014C14.7162 2.2552 14.9338 2.22298 15.1563 2.21534C15.3782 2.2075 15.6072 2.22321 15.831 2.28468C16.0542 2.34492 16.2717 2.45518 16.4474 2.61373C16.4698 2.63397 16.4896 2.65233 16.513 2.67605L16.5413 2.70512L16.5727 2.74076C16.6123 2.78772 16.648 2.83607 16.6801 2.88767C16.7435 2.99126 16.7905 3.10431 16.8194 3.22002C16.8782 3.453 16.8703 3.6899 16.8329 3.91358C16.7948 4.13814 16.725 4.35154 16.6423 4.55642C16.5587 4.76139 16.4608 4.95834 16.3543 5.14833C16.1406 5.5287 15.8948 5.88488 15.6355 6.22481C15.5057 6.39463 15.3727 6.56082 15.2354 6.72153L15.1311 6.84326C15.097 6.88224 15.062 6.92151 15.0233 6.96166C14.9479 7.04099 14.8708 7.11551 14.7899 7.18671C14.7548 7.21746 14.7188 7.24763 14.683 7.27671C14.6761 7.2867 14.6687 7.29787 14.6589 7.31236C14.6281 7.35516 14.5835 7.41852 14.5214 7.4955C14.4898 7.53359 14.4547 7.57561 14.4167 7.62154C14.3781 7.66717 14.3341 7.71399 14.288 7.7653C14.2413 7.81642 14.1891 7.86764 14.1356 7.92366C14.0815 7.97939 14.0202 8.03296 13.9591 8.09211C13.8334 8.20688 13.6934 8.32773 13.5371 8.44574C13.4608 8.50764 13.3774 8.56326 13.2938 8.62369C13.2114 8.68548 13.1208 8.73905 13.0304 8.79615C12.9848 8.82435 12.9397 8.85383 12.8927 8.88116C12.8453 8.90769 12.7974 8.93453 12.7491 8.96146C12.7008 8.98839 12.6526 9.01542 12.6039 9.04255C12.5545 9.0685 12.5032 9.09132 12.4522 9.116C12.2503 9.21648 12.0371 9.30149 11.8232 9.38277C11.7144 9.41822 11.6053 9.45387 11.4966 9.48971C11.3945 9.52291 11.2818 9.55562 11.1847 9.59303C10.9845 9.66766 10.7874 9.75198 10.6098 9.85285C10.4322 9.95372 10.2687 10.0655 10.1266 10.1873C9.9852 10.3097 9.86369 10.4389 9.76392 10.5686C9.56586 10.8299 9.45759 11.088 9.40208 11.2732C9.37511 11.3661 9.35812 11.4409 9.34982 11.4928C9.34093 11.5445 9.33945 11.5727 9.33945 11.5727C9.33945 11.5727 9.33639 11.5446 9.33708 11.4919C9.33777 11.4392 9.34093 11.3613 9.35683 11.2636C9.37215 11.1656 9.39941 11.047 9.44722 10.916C9.49454 10.7852 9.55993 10.64 9.65407 10.4947C9.74673 10.3485 9.86498 10.2001 10.0089 10.0621C10.152 9.92366 10.3188 9.79242 10.5052 9.68019C10.6918 9.56737 10.8916 9.4669 11.1068 9.3861C11.2167 9.34242 11.3186 9.31187 11.4295 9.27446C11.5341 9.239 11.6388 9.20355 11.7438 9.16781C11.9516 9.09161 12.1587 9.01209 12.355 8.9169C12.4043 8.89399 12.454 8.87195 12.5029 8.84825C12.5507 8.82357 12.5988 8.79928 12.6462 8.7747C12.6937 8.75022 12.7413 8.72613 12.7879 8.70204C12.8345 8.67687 12.8791 8.64964 12.9245 8.62408C13.0149 8.57218 13.1038 8.52145 13.1878 8.467C13.2722 8.41333 13.3576 8.36377 13.4348 8.30805C13.5929 8.20091 13.7394 8.09426 13.8719 7.99241C14.0033 7.88958 14.122 7.79184 14.2252 7.70263C14.2762 7.65709 14.3236 7.61478 14.3678 7.57551C14.4111 7.53516 14.4508 7.49814 14.4866 7.46455C14.5216 7.43027 14.5532 7.39972 14.5804 7.37279C14.607 7.34556 14.6299 7.32225 14.6485 7.30364C14.6491 7.30286 14.6495 7.30267 14.6497 7.30198C14.3612 7.53085 14.0426 7.7133 13.7138 7.85178C13.5761 7.90985 13.4367 7.96019 13.2963 8.00426C13.294 8.00593 13.2921 8.0073 13.2898 8.00896C13.1867 8.08182 13.0695 8.1636 12.9374 8.24743C12.8051 8.32989 12.6606 8.41881 12.5016 8.50343C12.3426 8.58765 12.1709 8.6704 11.9879 8.74483C11.8047 8.81877 11.6097 8.88331 11.4114 8.93815C11.2133 8.99407 11.0134 9.04265 10.8213 9.10366C10.629 9.16428 10.444 9.23871 10.2677 9.32773L10.2054 9.35946L10.1397 9.39687L10.1067 9.41548L10.0785 9.43419L10.0222 9.47111C9.94756 9.52663 9.87426 9.58305 9.80976 9.64788C9.67729 9.77362 9.56981 9.91788 9.47696 10.0606C9.3839 10.2038 9.31347 10.3514 9.25104 10.489C9.1894 10.6273 9.14346 10.7589 9.10385 10.8764C9.06542 10.9942 9.03648 11.0988 9.01356 11.1857C8.96931 11.3593 8.95152 11.4615 8.95152 11.4615C8.95152 11.4615 8.94609 11.3578 8.96269 11.1773C8.97059 11.087 8.98472 10.9773 9.00852 10.8528C9.03114 10.7279 9.06601 10.5884 9.11471 10.4386C9.16292 10.2886 9.2293 10.1297 9.31594 9.96812C9.3597 9.88742 9.4087 9.80663 9.46589 9.72808C9.49325 9.68783 9.52496 9.65013 9.55519 9.61047C9.58878 9.57335 9.62 9.53378 9.65645 9.49833C9.7256 9.42312 9.8068 9.35682 9.89066 9.29169C9.91328 9.27612 9.93591 9.26065 9.95853 9.24508L9.99281 9.22187L10.0253 9.20257L10.0908 9.16467L10.1639 9.12667C10.35 9.03041 10.5502 8.95059 10.7533 8.88879C10.9567 8.8269 11.1605 8.78107 11.3556 8.7323C11.5511 8.68333 11.7401 8.62937 11.9192 8.56591C12.0992 8.50411 12.2705 8.43429 12.4299 8.36113C12.5895 8.28836 12.7397 8.21501 12.876 8.14391C12.904 8.12883 12.9313 8.11453 12.9581 8.10004C12.8196 8.13353 12.681 8.16154 12.5433 8.18407C12.2123 8.2392 11.8841 8.26692 11.5637 8.27681C11.4597 8.31393 11.3396 8.35124 11.2047 8.38561C11.0821 8.41911 10.9471 8.44594 10.8063 8.47601C10.6658 8.50636 10.5194 8.53614 10.3738 8.57717C10.2281 8.61781 10.0831 8.67128 9.94242 8.74003C9.87229 8.77451 9.80245 8.81192 9.73439 8.85403C9.66721 8.89477 9.59629 8.94031 9.53613 8.98585C9.50284 9.01101 9.46797 9.03609 9.44139 9.06018L9.39842 9.09681L9.35614 9.13715C9.3271 9.1634 9.30063 9.192 9.27435 9.22098C9.24689 9.2486 9.22209 9.27945 9.1971 9.30883C9.09782 9.42919 9.01198 9.55886 8.93839 9.69067C8.8642 9.8223 8.80236 9.95607 8.7505 10.086C8.69795 10.2158 8.65379 10.3415 8.61803 10.4595C8.58237 10.5776 8.55145 10.6867 8.52853 10.7848C8.50532 10.8825 8.48586 10.9688 8.47219 11.04C8.44389 11.1825 8.43242 11.2653 8.43242 11.2653C8.43242 11.2653 8.42617 11.1819 8.43099 11.0356C8.43392 10.9624 8.43822 10.8733 8.44924 10.7719C8.46067 10.6701 8.4749 10.5554 8.49949 10.4315C8.52419 10.3077 8.55501 10.1736 8.59857 10.0339C8.64292 9.89496 8.69696 9.74963 8.7664 9.6041C8.83694 9.45896 8.92238 9.31383 9.02749 9.17731C9.05406 9.14362 9.08014 9.10914 9.10968 9.07643C9.13803 9.04343 9.16776 9.01121 9.19937 8.98056L9.2462 8.93394L9.29737 8.88879C9.33234 8.85667 9.36493 8.83219 9.39813 8.80692C9.53988 8.70008 9.68707 8.61145 9.84364 8.53653C10 8.46327 10.163 8.40872 10.3215 8.37318C10.4799 8.33655 10.6335 8.315 10.777 8.29786C10.8398 8.28983 10.9002 8.28239 10.9597 8.27495C10.6699 8.26486 10.3875 8.24292 10.1144 8.21247C10.0983 8.21932 10.0805 8.22686 10.0609 8.23489C10.0093 8.25732 9.94519 8.28024 9.87249 8.30883C9.79968 8.33498 9.7172 8.36436 9.62681 8.39648C9.53682 8.42733 9.44021 8.46043 9.34132 8.49716C9.24284 8.53467 9.14405 8.57697 9.04794 8.63172C9.02403 8.64582 9.00003 8.66051 8.97573 8.67481C8.95172 8.69058 8.92801 8.70605 8.90381 8.7224C8.87971 8.73915 8.85561 8.7559 8.8314 8.77333C8.80829 8.79008 8.78507 8.80741 8.76166 8.82445C8.73736 8.84384 8.71276 8.86382 8.68876 8.8837L8.62692 8.9406C8.58642 8.98105 8.54602 9.02512 8.50887 9.07056C8.35959 9.25379 8.25225 9.47326 8.1769 9.68881C8.13882 9.79683 8.10918 9.90436 8.08372 10.0078C8.05867 10.111 8.0421 10.2106 8.02684 10.3025C7.99776 10.487 7.98438 10.6441 7.97783 10.7535C7.97045 10.8635 7.97008 10.9273 7.97008 10.9273C7.97008 10.9273 7.956 10.8654 7.94153 10.7549C7.9348 10.6996 7.92819 10.6321 7.92332 10.5546C7.91949 10.4771 7.9176 10.3889 7.91908 10.2931C7.92097 10.197 7.92913 10.0929 7.94208 9.98281C7.95503 9.87273 7.9769 9.75678 8.00725 9.63828C8.06896 9.40236 8.17244 9.15321 8.33543 8.93737C8.37592 8.88311 8.42091 8.83287 8.46775 8.78322C8.49317 8.75864 8.51826 8.73475 8.54365 8.71026C8.56755 8.68999 8.59165 8.67021 8.61576 8.65042L8.62821 8.64024L8.63798 8.63299L8.69528 8.59C8.72076 8.571 8.74754 8.55239 8.77371 8.53467C8.82725 8.49951 8.88159 8.46504 8.93849 8.43595C9.05169 8.377 9.16855 8.33518 9.27791 8.30609C9.38746 8.27632 9.49009 8.25663 9.58503 8.24008C9.68025 8.22393 9.76718 8.21188 9.84443 8.20091C9.87496 8.19729 9.90301 8.19386 9.93027 8.19082C9.71117 8.16272 9.4976 8.1304 9.29114 8.09455C9.19295 8.07761 9.09674 8.05959 9.00151 8.04118C8.98234 8.03971 8.96338 8.03775 8.94352 8.03609C8.63344 8.0119 8.25589 7.99143 7.82271 7.98614C7.39018 7.97909 6.90161 7.98839 6.37266 8.03981C6.10809 8.06527 5.83537 8.10229 5.55322 8.15557C5.48217 8.16761 5.41072 8.17985 5.33824 8.1921C5.26494 8.20267 5.19142 8.21492 5.11731 8.22491C4.96867 8.24508 4.81757 8.26339 4.66404 8.27671C4.35634 8.30423 4.03826 8.31804 3.71238 8.30452C3.38714 8.29013 3.05323 8.25203 2.72221 8.16771C2.63907 8.149 2.55746 8.12198 2.47498 8.09828C2.39379 8.06997 2.31114 8.04392 2.23103 8.00945C2.14965 7.9787 2.07164 7.94021 1.99197 7.90349C1.9148 7.86255 1.83557 7.82367 1.76072 7.77696C1.68399 7.73377 1.61187 7.68225 1.53808 7.63358C1.46721 7.5804 1.3951 7.52889 1.32819 7.47023C1.2588 7.4148 1.19544 7.35193 1.12959 7.29121C1.0681 7.22686 1.00392 7.16438 0.946798 7.09544C0.709618 6.82671 0.516683 6.52086 0.355646 6.20052L0.340443 6.17075C0.334605 6.15479 0.331582 6.14754 0.326317 6.13687ZM4.26312 6.33567C4.26354 6.3344 4.26396 6.33322 4.26314 6.33254L4.26312 6.33567ZM4.5657 6.28005C4.56551 6.27867 4.56593 6.2774 4.5649 6.2774L4.5657 6.28005ZM12.5047 7.96313C12.8806 7.89291 13.2582 7.78871 13.6191 7.6326C13.9796 7.4762 14.3226 7.26623 14.62 6.99839C14.6942 6.9314 14.766 6.8605 14.8337 6.78744C14.8666 6.75218 14.9008 6.7132 14.9354 6.67305L15.0341 6.55494C15.1665 6.39463 15.2971 6.23167 15.4234 6.06518C15.6756 5.73172 15.9134 5.38347 16.1169 5.01768C16.3181 4.65249 16.4909 4.26507 16.5613 3.86765C16.5957 3.66983 16.6006 3.46955 16.5546 3.28583C16.5323 3.19377 16.4957 3.10723 16.4478 3.02769C16.4238 2.98844 16.3958 2.95016 16.3666 2.91495L16.3452 2.89023L16.3175 2.86137C16.3033 2.84693 16.2839 2.82835 16.2665 2.81287C16.1235 2.68324 15.9489 2.59337 15.7598 2.54101C15.5705 2.48823 15.3682 2.47234 15.1661 2.47872C14.7602 2.49333 14.3546 2.58766 13.9635 2.70747C13.5721 2.8285 13.192 2.97764 12.8234 3.13648C12.0866 3.45643 11.389 3.80674 10.7304 4.1448C10.0725 4.48405 9.449 4.80556 8.86617 5.09015C8.28417 5.37524 7.73805 5.61557 7.23952 5.79302C6.99005 5.88146 6.7529 5.95314 6.52831 6.00348C6.41612 6.02885 6.30832 6.04647 6.20546 6.06577C6.1026 6.08516 6.00449 6.10269 5.91076 6.1166C5.5374 6.17741 5.24166 6.20738 5.03964 6.22334C5.12763 6.23 5.21499 6.23656 5.30094 6.24117C5.37059 6.24606 5.43944 6.24831 5.50644 6.25096C5.57384 6.25341 5.63958 6.25772 5.70349 6.25821C5.83134 6.2583 5.95293 6.26457 6.06473 6.26016C6.17652 6.25791 6.27941 6.25742 6.37001 6.24959C6.46058 6.24283 6.5406 6.24175 6.60463 6.23C6.73407 6.21257 6.80859 6.20336 6.80859 6.20336C6.80859 6.20336 6.73585 6.22031 6.60715 6.24763C6.54328 6.26379 6.46342 6.27045 6.37279 6.28337C6.32717 6.28866 6.27925 6.29767 6.22788 6.30071C6.17671 6.30414 6.12286 6.30835 6.06674 6.31217C5.95427 6.32235 5.83219 6.32255 5.70308 6.32607C5.63874 6.32774 5.57216 6.32598 5.50431 6.32578C5.43648 6.32558 5.367 6.32412 5.29672 6.32108C5.15614 6.31599 5.0102 6.30933 4.86267 6.29738C4.78973 6.29209 4.71352 6.28318 4.64364 6.28093C4.62591 6.28044 4.6092 6.28083 4.5931 6.28259C4.58423 6.28328 4.57493 6.28524 4.56873 6.28729C4.572 6.29072 4.57916 6.29699 4.58756 6.30257C4.6411 6.3341 4.71494 6.35379 4.78427 6.37152C4.85525 6.38856 4.92729 6.40246 4.99915 6.4149C5.14307 6.43928 5.28619 6.45995 5.42523 6.4766C5.70287 6.51087 5.96327 6.53634 6.18659 6.55827C6.63367 6.60009 6.93179 6.6281 6.93179 6.6281C6.93179 6.6281 6.85672 6.62879 6.7258 6.62663C6.5949 6.6234 6.40748 6.62115 6.18262 6.61057C5.95796 6.60048 5.69602 6.58442 5.41584 6.55641C5.30769 6.54525 5.19604 6.5332 5.08339 6.51704C5.11547 6.52693 5.14796 6.53663 5.17942 6.54633C5.24379 6.56552 5.3065 6.58648 5.3682 6.60342C5.49204 6.63594 5.60759 6.67256 5.71707 6.69685C5.82591 6.7229 5.92528 6.74856 6.01504 6.76403C6.10418 6.78039 6.18195 6.79968 6.24706 6.80477C6.37661 6.82083 6.45137 6.83092 6.45137 6.83092C6.45137 6.83092 6.37696 6.82877 6.24546 6.8223C6.17948 6.82171 6.10084 6.808 6.01 6.79752C5.96469 6.79106 5.91586 6.78773 5.86522 6.77765C5.81479 6.76805 5.76167 6.75816 5.70631 6.74787C5.59492 6.72907 5.47663 6.69842 5.3509 6.66923C5.28815 6.65444 5.22461 6.63584 5.15898 6.61831C5.09357 6.60117 5.02672 6.58217 4.95989 6.56111C4.82499 6.52067 4.686 6.47719 4.54642 6.42832C4.47735 6.40481 4.40585 6.37641 4.33922 6.35673C4.32236 6.35173 4.30569 6.34811 4.29004 6.34546C4.28098 6.3438 4.27171 6.3437 4.26511 6.3438C4.26733 6.3484 4.27262 6.35594 4.27936 6.36339C4.32309 6.40736 4.38915 6.44555 4.45173 6.47983C4.51596 6.5143 4.58187 6.54593 4.64819 6.57639C4.78127 6.63603 4.91397 6.69283 5.04403 6.74425C5.30352 6.84796 5.5489 6.93865 5.75873 7.0165C6.18005 7.17046 6.461 7.27289 6.461 7.27289C6.461 7.27289 6.41657 7.26193 6.33758 7.24018C6.68651 7.35036 7.10604 7.47366 7.58994 7.59421C8.09935 7.72084 8.67888 7.84385 9.31643 7.93992C9.95359 8.03403 10.651 8.09739 11.3848 8.07751C11.7523 8.06625 12.1283 8.03256 12.5047 7.96313Z" fill="#D3E3FF"/>
<path d="M19.2121 3.57573C19.1172 3.53832 19.0187 3.50815 18.9212 3.48426C18.8237 3.45928 18.7267 3.44058 18.6347 3.42364C18.5423 3.40787 18.4542 3.39367 18.3722 3.3825C18.2902 3.37134 18.2146 3.3637 18.1475 3.35557C18.0801 3.34901 18.0216 3.34274 17.9732 3.33824C17.8761 3.32981 17.8203 3.32482 17.8203 3.32482C17.8203 3.32482 17.875 3.31405 17.9725 3.30151C18.021 3.29475 18.0804 3.28937 18.1484 3.28339C18.2164 3.27683 18.2934 3.2736 18.3777 3.27096C18.5464 3.26547 18.7444 3.26929 18.9571 3.29789C19.0636 3.31297 19.1739 3.33373 19.2857 3.36811C19.3969 3.40219 19.5108 3.4488 19.6173 3.52431C19.6706 3.56162 19.7207 3.60902 19.7626 3.66602C19.8048 3.72243 19.836 3.79079 19.8524 3.86061C19.8558 3.87785 19.8593 3.89646 19.8617 3.91262L19.8675 3.95257C19.871 3.98137 19.875 4.01045 19.8772 4.03787C19.8814 4.0933 19.8849 4.14815 19.8857 4.20172C19.8868 4.30905 19.8805 4.41286 19.8674 4.51021C19.8561 4.60785 19.8352 4.69883 19.8141 4.78187C19.7907 4.86443 19.7659 4.93905 19.7384 5.0032C19.7116 5.06754 19.684 5.1216 19.6601 5.16577C19.6362 5.20994 19.6139 5.24265 19.5985 5.26478C19.5839 5.28721 19.5747 5.29876 19.5747 5.29876C19.5747 5.29876 19.5747 5.28398 19.5759 5.25744C19.576 5.2305 19.5809 5.19251 19.5823 5.14344C19.5832 5.11915 19.5859 5.09232 19.588 5.06333C19.5891 5.03434 19.59 5.00291 19.5928 4.97C19.5959 4.90439 19.5994 4.83045 19.6034 4.74907C19.6094 4.58845 19.6136 4.40326 19.6097 4.20622C19.6085 4.15696 19.6079 4.10682 19.6047 4.05648C19.6037 4.03161 19.6025 4.00722 19.6012 3.98186L19.5983 3.9416C19.5974 3.93132 19.5958 3.923 19.5949 3.91379C19.5827 3.8423 19.5382 3.7759 19.4678 3.71744C19.3963 3.65995 19.3063 3.61353 19.2121 3.57573Z" fill="#D3E3FF"/>
<path d="M10.9648 4.37579C11.1716 4.23839 11.4751 4.05369 11.8538 3.85792C12.0431 3.75999 12.2507 3.65843 12.474 3.55776C12.6976 3.45855 12.9369 3.35993 13.188 3.26768C13.4394 3.17484 13.7036 3.08948 13.9776 3.01974C14.2521 2.94981 14.5363 2.89345 14.8287 2.87027C14.9748 2.85848 15.1233 2.85775 15.2724 2.87092C15.4212 2.88532 15.5718 2.91405 15.7166 2.97257C15.8607 3.03046 15.9983 3.12205 16.0996 3.24643C16.2015 3.36992 16.2629 3.51937 16.2915 3.66372C16.2992 3.70015 16.3047 3.73619 16.3084 3.77194L16.3102 3.78898L16.3111 3.80122L16.3132 3.82619C16.3136 3.84686 16.3144 3.86938 16.3136 3.8875C16.3117 3.96379 16.3005 4.03587 16.2848 4.10393C16.2533 4.24084 16.2052 4.36492 16.1497 4.47931C16.0402 4.70896 15.9078 4.90336 15.7799 5.0768C15.7165 5.16396 15.6519 5.24417 15.5887 5.31899C15.5256 5.39391 15.4666 5.46471 15.4071 5.52817C15.3475 5.59163 15.292 5.65059 15.2403 5.70514C15.1879 5.7591 15.1386 5.80689 15.0938 5.85047C15.0048 5.93734 14.9327 6.00335 14.8838 6.04889C14.8347 6.09403 14.8098 6.1194 14.8098 6.1194C14.8098 6.1194 14.8252 6.08708 14.8601 6.02989C14.8944 5.9726 14.9471 5.89004 15.0161 5.7874C15.0848 5.68536 15.1686 5.56079 15.2643 5.41878C15.3115 5.34807 15.3621 5.27267 15.4155 5.19344C15.4669 5.11352 15.5211 5.02979 15.578 4.94214C15.6338 4.85459 15.6888 4.76224 15.7433 4.66558C15.7988 4.56999 15.8511 4.46893 15.9001 4.36531C15.9476 4.26082 15.9924 4.15309 16.0203 4.04292C16.0343 3.98827 16.0439 3.93274 16.0465 3.87966C16.0476 3.86536 16.0469 3.85557 16.0472 3.84362L16.0462 3.81973L16.0457 3.80827L16.0455 3.80582L16.0449 3.80053C16.0418 3.77145 16.0385 3.74265 16.0331 3.71416C16.0125 3.60055 15.9695 3.49361 15.8998 3.40527C15.8305 3.31684 15.7336 3.24721 15.62 3.19903C15.3914 3.10175 15.114 3.0856 14.8423 3.09771C14.5686 3.11083 14.2927 3.15603 14.0245 3.21577C13.7562 3.2762 13.4947 3.35053 13.2432 3.42966C12.9922 3.50957 12.7523 3.59644 12.5268 3.68536C12.3007 3.77252 12.0897 3.86164 11.8965 3.94861C11.5102 4.12166 11.1959 4.28364 10.9805 4.40439C10.8725 4.46432 10.7891 4.51486 10.7327 4.54933C10.6767 4.58469 10.6465 4.60339 10.6465 4.60339C10.6465 4.60339 10.6744 4.58214 10.7276 4.54218C10.7822 4.50095 10.8617 4.44464 10.9648 4.37579Z" fill="#D3E3FF"/>
<path d="M22.1126 4.7503C22.0268 4.69585 21.9356 4.64737 21.8445 4.60507C21.7535 4.56217 21.6621 4.52554 21.575 4.49146C21.4873 4.45826 21.4036 4.428 21.3253 4.40136C21.2471 4.37512 21.1741 4.35298 21.1102 4.33261C21.0452 4.31322 20.9887 4.29638 20.9424 4.28267C20.8487 4.25593 20.7949 4.24075 20.7949 4.24075C20.7949 4.24075 20.8508 4.24056 20.9487 4.24653C20.9978 4.24927 21.0567 4.25535 21.1246 4.26201C21.1926 4.26876 21.2689 4.27963 21.3524 4.29305C21.519 4.31969 21.7123 4.36082 21.9164 4.42928C22.0179 4.46453 22.1227 4.50537 22.2253 4.56041C22.3281 4.61486 22.431 4.68204 22.5209 4.77684C22.566 4.82365 22.6059 4.87957 22.6359 4.94343C22.6662 5.00708 22.6835 5.07965 22.6865 5.15143C22.6866 5.16916 22.6865 5.18757 22.686 5.20412L22.6837 5.24437C22.6816 5.27336 22.6798 5.30215 22.677 5.32958C22.6708 5.38491 22.6631 5.43897 22.6535 5.49205C22.6337 5.59782 22.6078 5.69829 22.5763 5.79153C22.5466 5.88525 22.5081 5.97055 22.4717 6.04772C22.4331 6.1244 22.394 6.19276 22.3552 6.25074C22.3166 6.30862 22.2788 6.3569 22.247 6.39529C22.2153 6.43407 22.1869 6.46198 22.1676 6.48107C22.1489 6.50037 22.1376 6.50987 22.1376 6.50987C22.1376 6.50987 22.1403 6.49537 22.1465 6.46942C22.1519 6.44288 22.1637 6.40665 22.1745 6.35866C22.1801 6.33457 22.1877 6.3095 22.1954 6.28139C22.202 6.25319 22.209 6.22243 22.2178 6.19061C22.2334 6.12656 22.2514 6.05477 22.2707 5.97623C22.3075 5.81993 22.3475 5.63875 22.3815 5.44426C22.3897 5.39548 22.3988 5.34632 22.4055 5.29628C22.4092 5.2716 22.4127 5.24751 22.4165 5.22283L22.4213 5.18277C22.4225 5.17259 22.4225 5.16436 22.4235 5.15477C22.4256 5.082 22.3945 5.00855 22.3362 4.93814C22.2776 4.86831 22.1973 4.80544 22.1126 4.7503Z" fill="#D3E3FF"/>
<path d="M23.9047 8.36281C23.8312 8.42695 23.7583 8.48317 23.6882 8.53135C23.6523 8.55436 23.6195 8.57836 23.5859 8.59775C23.5523 8.61704 23.521 8.63575 23.4906 8.6521C23.4299 8.68501 23.3752 8.70949 23.3295 8.72917C23.2843 8.74896 23.2471 8.7609 23.2221 8.76952C23.1968 8.77765 23.1836 8.78206 23.1836 8.78206C23.1836 8.78206 23.1945 8.77275 23.2141 8.75552C23.2337 8.73789 23.2648 8.71566 23.3012 8.68334C23.3195 8.66728 23.3407 8.65093 23.3629 8.63251C23.3847 8.61332 23.4082 8.59226 23.4338 8.57121C23.4841 8.52753 23.5391 8.4769 23.5997 8.42264C23.6576 8.36555 23.7227 8.30698 23.7866 8.2399C23.8506 8.17281 23.9182 8.10289 23.9846 8.02738C24.0178 7.98948 24.0518 7.95119 24.0839 7.91114C24.1008 7.89126 24.1162 7.87157 24.1322 7.85208L24.1569 7.81986C24.1637 7.81085 24.1691 7.80214 24.1756 7.79342C24.2208 7.72164 24.2336 7.62997 24.2179 7.5338C24.2023 7.43753 24.1638 7.34068 24.118 7.24793C24.0714 7.15548 24.0155 7.06715 23.9573 6.98439C23.8997 6.90096 23.8396 6.82271 23.7802 6.75024C23.7205 6.67796 23.6626 6.61039 23.6077 6.54898C23.4976 6.42676 23.4018 6.32716 23.3335 6.25851C23.2657 6.18967 23.2252 6.15128 23.2252 6.15128C23.2252 6.15128 23.2715 6.18173 23.3495 6.2401C23.4272 6.29857 23.5367 6.38436 23.6607 6.49629C23.7855 6.60774 23.9242 6.74553 24.0586 6.90889C24.1245 6.99144 24.1895 7.08047 24.2466 7.1785C24.304 7.27633 24.3531 7.38426 24.3773 7.5053C24.3896 7.56553 24.394 7.62958 24.3868 7.69412C24.3798 7.75905 24.3585 7.82388 24.3262 7.88117C24.2607 7.98566 24.1938 8.06646 24.1225 8.14784C24.0522 8.22668 23.9791 8.29925 23.9047 8.36281Z" fill="#D3E3FF"/>
<path d="M8.73483 6.95519C9.04806 6.80337 9.17784 6.42854 9.0247 6.118C8.87156 5.80745 8.4935 5.67878 8.18027 5.83061C7.86704 5.98243 7.73726 6.35726 7.8904 6.66781C8.04353 6.97835 8.4216 7.10702 8.73483 6.95519Z" fill="#204E7C"/>
<path d="M15.083 17.6019C15.0918 17.5646 15.0983 17.5269 15.116 17.4919C15.1244 17.4746 15.1305 17.4558 15.1408 17.4402L15.1723 17.3929C15.1826 17.3762 15.1952 17.3634 15.2078 17.3503L15.2456 17.3105C15.2725 17.2879 15.3005 17.2666 15.3281 17.2466L15.371 17.2213L15.3926 17.2087L15.4034 17.2025L15.4089 17.1993L15.4119 17.1979C15.4147 17.1965 15.4089 17.1993 15.4193 17.1942L15.4957 17.1598C15.5487 17.1381 15.6126 17.1128 15.6659 17.0961C15.721 17.0776 15.7764 17.0599 15.831 17.0446C15.8859 17.0282 15.9407 17.0133 15.9955 16.9984C16.2146 16.94 16.4326 16.8888 16.6504 16.8372L17.3014 16.6829C17.7336 16.5778 18.1628 16.4638 18.5812 16.3216C18.6865 16.2873 18.7897 16.249 18.8936 16.2119C18.9958 16.1715 19.099 16.1331 19.1992 16.0887C19.3008 16.0471 19.399 15.9984 19.498 15.9515C19.5947 15.901 19.6923 15.8512 19.7847 15.7942C19.9711 15.682 20.1495 15.5578 20.3078 15.4124C20.4643 15.2658 20.5997 15.098 20.6958 14.9089C20.7077 14.8853 20.7223 14.8626 20.7317 14.8381L20.7604 14.7641L20.7891 14.6902L20.8165 14.6103L20.9256 14.2958C20.9524 14.2136 20.9824 14.132 21.0131 14.0505C21.018 14.0302 21.0235 14.0093 21.0297 13.9864C21.0586 13.891 21.0978 13.7759 21.1499 13.6484C21.2017 13.5215 21.2597 13.3779 21.3233 13.2218C21.3548 13.144 21.3861 13.0627 21.4169 12.9785C21.4321 12.9366 21.4478 12.8934 21.4634 12.8502C21.4778 12.8065 21.4928 12.7622 21.5078 12.7173C21.565 12.5369 21.6139 12.3448 21.6492 12.1445C21.6805 11.9553 21.6904 11.7588 21.6848 11.561C21.676 11.5266 21.6678 11.4924 21.6617 11.4592C21.6542 11.4222 21.6462 11.3863 21.6394 11.3514C21.6339 11.3165 21.6287 11.2829 21.6238 11.2502C21.6192 11.2178 21.6146 11.1869 21.6102 11.1571C21.6072 11.127 21.6046 11.0987 21.6015 11.0717C21.5986 11.041 21.5959 11.0124 21.5934 10.9856C21.5858 10.9577 21.5774 10.9302 21.5688 10.9023L21.5175 10.7506C21.4987 10.7008 21.4754 10.6525 21.4541 10.6033L21.4483 10.5893C21.4037 10.528 21.3608 10.4659 21.3157 10.4048C21.2218 10.2768 21.1248 10.1519 21.0253 10.0292C20.9264 9.90566 20.8219 9.78736 20.7157 9.67091C20.6088 9.55486 20.5003 9.44106 20.3862 9.33255C20.361 9.30758 20.3352 9.28349 20.3091 9.25949C20.2205 9.19417 20.1564 9.13404 20.1102 9.09546C20.0615 9.05286 20.0355 9.03043 20.0355 9.03043C20.0355 9.03043 20.0548 9.04238 20.0911 9.065C20.0729 9.04894 20.0544 9.03347 20.0362 9.01731C19.9869 8.97559 19.9368 8.93524 19.8862 8.89518C19.8415 8.9275 19.7847 8.96619 19.7202 9.01124C19.6418 9.06559 19.5519 9.12787 19.4639 9.19809C19.4417 9.21542 19.42 9.23403 19.398 9.25186C19.3773 9.27105 19.3549 9.28907 19.3344 9.30915C19.2924 9.34783 19.2533 9.38916 19.2173 9.43156C19.1806 9.47377 19.1505 9.51892 19.1218 9.56387C19.0966 9.61059 19.0715 9.65642 19.0554 9.7049C19.0368 9.75259 19.0254 9.80136 19.0163 9.84945C19.0083 9.89763 19.0025 9.94522 19.001 9.99018C18.9984 10.0129 18.9998 10.0345 18.9994 10.0556C18.9996 10.0768 18.9983 10.0969 18.9995 10.1161C19.0027 10.1537 19.0011 10.1891 19.0042 10.2172C19.0076 10.245 19.008 10.2687 19.0095 10.2843C19.0102 10.3002 19.0104 10.3088 19.0104 10.3088C19.0104 10.3088 19.0051 10.3022 18.9947 10.2904C18.9851 10.2783 18.9696 10.2604 18.9522 10.2357C18.9343 10.2118 18.9167 10.1802 18.8962 10.1438C18.8853 10.1257 18.8779 10.1049 18.8683 10.083C18.859 10.0611 18.8491 10.038 18.8423 10.0127C18.8263 9.96246 18.8142 9.90576 18.8086 9.84337C18.8042 9.78138 18.8048 9.71391 18.8182 9.64535C18.823 9.61049 18.833 9.5766 18.8443 9.54213C18.8542 9.50727 18.8698 9.47426 18.885 9.44048C18.9178 9.37476 18.9589 9.31257 19.0056 9.25636C19.0536 9.20162 19.1051 9.1501 19.1608 9.10789C19.2156 9.06402 19.2729 9.0271 19.3301 8.99635C19.4441 8.93338 19.557 8.89352 19.6551 8.86776C19.7131 8.85239 19.7654 8.84279 19.8108 8.83603C19.7635 8.79941 19.7163 8.76288 19.6679 8.72723C19.4895 8.59854 19.3052 8.47769 19.1159 8.36644C19.0752 8.39533 19.0264 8.42863 18.9723 8.46663C18.8938 8.52088 18.8041 8.58327 18.7159 8.65339C18.6937 8.67082 18.6722 8.68943 18.6502 8.70725C18.6293 8.72645 18.6069 8.74446 18.5865 8.76454C18.5446 8.80313 18.5053 8.84455 18.4693 8.88696C18.4326 8.92917 18.4026 8.97422 18.3739 9.01917C18.3488 9.06598 18.3236 9.11171 18.3075 9.16029C18.2889 9.20788 18.2776 9.25666 18.2685 9.30484C18.2604 9.35302 18.2546 9.40062 18.2532 9.44557C18.2505 9.46819 18.252 9.48993 18.2516 9.51099C18.2518 9.53224 18.2504 9.55222 18.2516 9.57141C18.2548 9.60912 18.2533 9.64447 18.2563 9.67248C18.2598 9.70029 18.2602 9.72399 18.2617 9.73956C18.2624 9.75553 18.2624 9.76414 18.2624 9.76414C18.2624 9.76414 18.2572 9.75749 18.2467 9.74583C18.2372 9.73369 18.2217 9.71577 18.2044 9.69109C18.1864 9.66719 18.1688 9.63556 18.1483 9.59913C18.1373 9.58111 18.1301 9.56015 18.1204 9.53841C18.1111 9.51647 18.1012 9.49326 18.0944 9.46809C18.0783 9.41785 18.0663 9.36115 18.0602 9.29887C18.0559 9.23697 18.0565 9.1695 18.0699 9.10094C18.0748 9.06598 18.0847 9.03219 18.096 8.99772C18.106 8.96286 18.1215 8.92985 18.1367 8.89607C18.1694 8.83035 18.2106 8.76817 18.2573 8.71195C18.3052 8.65711 18.3566 8.6053 18.4125 8.56348C18.4673 8.51961 18.5247 8.48308 18.5817 8.45194C18.6959 8.38897 18.8086 8.34901 18.9068 8.32335C18.9409 8.31444 18.9725 8.30778 19.0024 8.3019C18.9597 8.27781 18.9171 8.25372 18.874 8.2308C18.7041 8.14227 18.5305 8.06207 18.3539 7.98793C18.3211 8.00889 18.2857 8.03161 18.2475 8.05629C18.1527 8.11691 18.0429 8.18654 17.93 8.26254C17.8177 8.3399 17.7013 8.42324 17.5974 8.5154C17.5446 8.56025 17.497 8.60932 17.4516 8.65779C17.4399 8.66955 17.4307 8.68316 17.4199 8.6955C17.4097 8.70813 17.3976 8.72008 17.389 8.73281C17.3705 8.75867 17.3511 8.78383 17.3352 8.80988C17.3004 8.8613 17.2765 8.91457 17.2542 8.96716C17.245 8.99341 17.2365 9.01995 17.2283 9.0458C17.2227 9.07195 17.2155 9.09781 17.2115 9.12317C17.2078 9.14893 17.2047 9.1738 17.2014 9.19731C17.2006 9.22159 17.1995 9.24451 17.1985 9.26635C17.1975 9.31013 17.2004 9.3494 17.201 9.3827C17.2056 9.41501 17.2068 9.44145 17.2091 9.45957C17.2105 9.47828 17.2113 9.48807 17.2113 9.48807C17.2113 9.48807 17.2054 9.48024 17.1946 9.46565C17.1843 9.45086 17.1673 9.42902 17.1486 9.39944C17.133 9.36879 17.1107 9.33177 17.0936 9.28564C17.0851 9.26224 17.0773 9.23707 17.0683 9.21043C17.0619 9.18301 17.0568 9.15392 17.0513 9.12298C17.0469 9.09203 17.0466 9.05912 17.0444 9.02455C17.0449 8.99028 17.0484 8.95492 17.0519 8.9181C17.0642 8.84612 17.0831 8.76924 17.1178 8.69697C17.1496 8.62303 17.194 8.55369 17.2444 8.48856C17.2951 8.42373 17.353 8.36419 17.4141 8.31013C17.4763 8.25715 17.5402 8.20779 17.6071 8.16568C17.6399 8.14364 17.6733 8.12396 17.7073 8.10545C17.7402 8.08586 17.7742 8.06941 17.8076 8.05276C17.9368 7.99008 18.0617 7.94582 18.1721 7.91477C18.1203 7.89509 18.0683 7.87501 18.0159 7.85611C17.8511 7.79765 17.6833 7.7477 17.5142 7.70343C17.4696 7.73272 17.4182 7.76582 17.3612 7.80205C17.2664 7.86277 17.1564 7.9323 17.0436 8.0084C16.9314 8.08567 16.8149 8.16911 16.711 8.26116C16.6583 8.30611 16.6106 8.35518 16.5652 8.40356C16.5536 8.41531 16.5444 8.42902 16.5335 8.44136C16.5233 8.4539 16.5112 8.46584 16.5027 8.47867C16.4841 8.50453 16.4647 8.5297 16.4488 8.55565C16.4141 8.60706 16.3901 8.66044 16.3678 8.71303C16.3587 8.73927 16.3502 8.76581 16.3419 8.79167C16.3363 8.81782 16.329 8.84367 16.3251 8.86904C16.3214 8.89469 16.3183 8.91967 16.315 8.94307C16.3141 8.96746 16.3131 8.99028 16.312 9.01221C16.3111 9.05589 16.314 9.09516 16.3145 9.12856C16.3192 9.16088 16.3204 9.18722 16.3227 9.20544C16.3242 9.22404 16.325 9.23393 16.325 9.23393C16.325 9.23393 16.3191 9.2261 16.3082 9.21141C16.2978 9.19662 16.2809 9.17478 16.2623 9.14521C16.2467 9.11465 16.2243 9.07763 16.2071 9.03151C16.1987 9.0081 16.1909 8.98293 16.1819 8.9562C16.1755 8.92877 16.1704 8.89969 16.165 8.86884C16.1604 8.83789 16.1601 8.80499 16.158 8.77042C16.1584 8.73604 16.1621 8.70079 16.1656 8.66396C16.1779 8.59237 16.1968 8.51501 16.2314 8.44273C16.2633 8.36879 16.3076 8.29955 16.3581 8.23433C16.4088 8.1696 16.4666 8.10995 16.5277 8.05599C16.5898 8.00291 16.6538 7.95365 16.7208 7.91154C16.7535 7.88951 16.7869 7.86972 16.8209 7.85131C16.8539 7.83173 16.8878 7.81527 16.9211 7.79862C17.0546 7.73399 17.184 7.68845 17.2965 7.6574C17.3014 7.65603 17.306 7.65486 17.3105 7.65359C17.2446 7.6387 17.1782 7.62469 17.1117 7.61157C16.8624 7.56192 16.6098 7.52823 16.3561 7.50923C16.3437 7.51736 16.3308 7.52559 16.318 7.53381C16.2231 7.59453 16.1133 7.66406 16.0004 7.74016C15.8882 7.81743 15.7717 7.90087 15.6678 7.99292C15.6151 8.03788 15.5674 8.08694 15.522 8.13542C15.5104 8.14717 15.5012 8.16078 15.4903 8.17312C15.4801 8.18566 15.4685 8.19741 15.4595 8.21043C15.4409 8.23629 15.4216 8.26146 15.4056 8.28751C15.3709 8.33883 15.347 8.3922 15.3246 8.44479C15.3155 8.47103 15.3066 8.49777 15.2988 8.52343C15.2931 8.54958 15.2859 8.57543 15.282 8.6008C15.2782 8.62645 15.2752 8.65143 15.2718 8.67493C15.271 8.69922 15.2699 8.72214 15.2689 8.74398C15.2679 8.78765 15.2708 8.82692 15.2714 8.86032C15.276 8.89264 15.2772 8.91898 15.2795 8.9372C15.281 8.9558 15.2818 8.9657 15.2818 8.9657C15.2818 8.9657 15.2759 8.95786 15.2651 8.94327C15.2547 8.92838 15.2377 8.90664 15.2191 8.87697C15.2034 8.84641 15.1811 8.80939 15.164 8.76327C15.1555 8.73986 15.1477 8.71469 15.1387 8.68806C15.1325 8.66103 15.1273 8.63145 15.1218 8.6006C15.1173 8.56965 15.117 8.53675 15.1148 8.50218C15.1153 8.4678 15.1189 8.43255 15.1223 8.39572C15.1348 8.32413 15.1536 8.24677 15.1882 8.17449C15.22 8.10065 15.2644 8.03131 15.3149 7.96609C15.3655 7.90136 15.4234 7.84181 15.4846 7.78775C15.5467 7.73467 15.6106 7.68541 15.6776 7.6433C15.7104 7.62127 15.7438 7.60158 15.7778 7.58307C15.8106 7.56349 15.8446 7.54703 15.878 7.53039C15.9066 7.51648 15.9347 7.50385 15.9631 7.4917C15.88 7.49072 15.7965 7.49102 15.7131 7.49268C15.6352 7.49493 15.5575 7.49846 15.4801 7.50394C15.4038 7.50943 15.3235 7.51726 15.2532 7.52794L14.9004 7.58043L15.3201 7.13376C15.3778 7.06863 15.4378 7.00497 15.4939 6.93867C15.5505 6.87247 15.6088 6.80764 15.6639 6.74026C15.7198 6.67347 15.7752 6.60589 15.8286 6.53724C15.8834 6.46947 15.935 6.39916 15.988 6.32972C16.0397 6.2599 16.0905 6.18899 16.1411 6.1177C16.1902 6.04552 16.2408 5.97462 16.2885 5.90166C16.3376 5.82958 16.3837 5.75534 16.4305 5.6818C16.4757 5.60688 16.5218 5.53274 16.5645 5.45704C16.6089 5.38163 16.6496 5.30485 16.692 5.22836C16.7334 5.15129 16.7739 5.07422 16.8128 4.99577C16.8516 4.91743 16.8892 4.83869 16.9248 4.75887C16.9959 4.59924 17.0648 4.43814 17.1234 4.27283C17.1822 4.10801 17.2386 3.94133 17.2757 3.76906C17.2666 3.85652 17.2509 3.94348 17.2341 4.02996C17.2168 4.11672 17.197 4.20261 17.174 4.28801C17.1284 4.45871 17.0759 4.62813 17.0142 4.79442C16.9834 4.87757 16.9513 4.96022 16.9178 5.0421C16.8838 5.12416 16.8484 5.20545 16.812 5.28673C16.7748 5.36733 16.7367 5.44734 16.6962 5.52647C16.657 5.60609 16.6144 5.68424 16.5726 5.76298C16.4867 5.9186 16.3975 6.07275 16.3017 6.22298C16.2534 6.2977 16.2045 6.37232 16.1546 6.44587C16.1034 6.51903 16.0536 6.59297 16.0004 6.66407C15.9484 6.73664 15.8948 6.80783 15.8402 6.87815C15.7865 6.94944 15.7302 7.01839 15.6741 7.08783C15.6304 7.14159 15.5845 7.19438 15.5393 7.24736C15.5944 7.24246 15.6494 7.23864 15.7044 7.23551C15.8677 7.2265 16.0314 7.2265 16.1947 7.23286C16.521 7.2452 16.8462 7.28242 17.1671 7.34304C17.2836 7.36595 17.3992 7.39338 17.5145 7.42305C17.5168 7.42236 17.5185 7.42197 17.5208 7.42139C17.5527 7.41316 17.5864 7.40444 17.6213 7.39514C17.6562 7.38476 17.6924 7.37281 17.7302 7.36116C17.7681 7.34941 17.8072 7.33707 17.8482 7.32433C17.8889 7.31121 17.9301 7.29486 17.9728 7.27968C18.0157 7.26352 18.0603 7.24892 18.1051 7.23032C18.1495 7.21132 18.1949 7.19193 18.2419 7.17166C18.2888 7.15246 18.3358 7.12915 18.3833 7.10565C18.431 7.08156 18.481 7.0603 18.5285 7.03171C18.5766 7.00429 18.626 6.97638 18.676 6.94798C18.7243 6.91693 18.7733 6.8851 18.8237 6.85298C18.8729 6.81949 18.9212 6.78335 18.9711 6.748C19.0209 6.71264 19.067 6.67092 19.1166 6.63214C19.3082 6.47006 19.49 6.27674 19.647 6.05502C19.804 5.8334 19.937 5.58474 20.0363 5.31788C20.0887 5.18567 20.1264 5.0468 20.1636 4.90773C20.1971 4.76778 20.2227 4.6251 20.2412 4.48133C20.2586 4.33756 20.269 4.19311 20.2706 4.04886C20.27 3.97688 20.2695 3.90489 20.2649 3.8333C20.2636 3.79736 20.2605 3.76279 20.2572 3.72822C20.2546 3.69385 20.2513 3.65889 20.2458 3.62177L20.2386 3.56673L20.237 3.55282L20.2362 3.54607C20.2368 3.5493 20.2356 3.54381 20.2356 3.54283L20.2312 3.52051C20.229 3.50533 20.2251 3.49142 20.2208 3.47722C20.2171 3.46273 20.2129 3.44901 20.2073 3.4354C20.1876 3.38085 20.1585 3.3314 20.1204 3.28723C20.0448 3.1987 19.9341 3.13436 19.8143 3.08914C19.6933 3.04452 19.5638 3.01824 19.4345 2.99951C19.305 2.9814 19.1756 2.97289 19.0481 2.97054C18.7942 2.96646 18.5509 2.98107 18.3269 3.00218C17.8786 3.04647 17.5058 3.11063 17.2454 3.15796C16.9849 3.20643 16.8369 3.23905 16.8369 3.23905C16.8369 3.23905 16.872 3.22504 16.9394 3.20154C17.0067 3.17862 17.1053 3.14346 17.2327 3.10515C17.3598 3.06641 17.5149 3.02076 17.6951 2.97615C17.875 2.93114 18.0798 2.8843 18.3061 2.84684C18.5325 2.80837 18.7803 2.77479 19.0467 2.76672C19.1799 2.76217 19.3178 2.76401 19.4603 2.7759C19.6026 2.78779 19.749 2.81402 19.896 2.86234C20.0417 2.91228 20.1929 2.98904 20.3126 3.11829C20.3718 3.18215 20.4206 3.25922 20.4535 3.34148C20.4626 3.36205 20.4692 3.38271 20.4752 3.40426C20.482 3.42541 20.4874 3.44666 20.4913 3.46821L20.5 3.51081L20.5008 3.51757L20.5029 3.53128L20.5105 3.58612C20.5161 3.62157 20.5201 3.66084 20.5241 3.70012C20.5281 3.73939 20.532 3.77866 20.534 3.81695C20.5396 3.89402 20.5414 3.97149 20.5426 4.04876C20.5427 4.20398 20.533 4.35921 20.5159 4.51404C20.496 4.66819 20.467 4.82165 20.43 4.97237C20.3905 5.1223 20.3456 5.27077 20.287 5.41307C20.2606 5.48544 20.2262 5.55399 20.1965 5.62392C20.1604 5.6912 20.1293 5.76024 20.0899 5.82507C20.071 5.85768 20.0522 5.8902 20.0334 5.92271C20.0137 5.95464 19.9926 5.98578 19.9725 6.01683C19.933 6.08029 19.8879 6.13875 19.8441 6.19761C19.6686 6.43285 19.4602 6.6295 19.247 6.79128C19.0335 6.95375 18.8128 7.0796 18.6005 7.17234C18.3885 7.26596 18.1876 7.3353 18.0058 7.37976C17.9605 7.39093 17.9171 7.40386 17.8745 7.41335C17.832 7.42168 17.7905 7.4301 17.7513 7.43794C17.7159 7.4444 17.682 7.45165 17.6494 7.45733C17.8049 7.50101 17.9591 7.55036 18.1103 7.6053C18.2636 7.66122 18.4155 7.72145 18.5629 7.7904C18.7107 7.85915 18.8556 7.93348 18.9977 8.0132C19.0901 8.06549 19.1812 8.12112 19.2712 8.17772C19.368 8.19085 19.4765 8.20289 19.5965 8.21083C19.7667 8.22199 19.9585 8.22062 20.1643 8.19976C20.3698 8.17743 20.5894 8.1315 20.8097 8.05276C21.03 7.97393 21.2488 7.85876 21.4563 7.71235C21.6635 7.56554 21.8553 7.38407 22.0289 7.18037C22.2025 6.97667 22.3569 6.75074 22.4912 6.51217C22.6269 6.27439 22.7436 6.02495 22.8401 5.77219C22.8887 5.64585 22.9317 5.51864 22.9726 5.3925C22.9838 5.35803 22.9902 5.33355 22.9977 5.30505L23.0059 5.26343L23.0113 5.2221C23.0165 5.16716 23.0136 5.11359 23.0024 5.06158C22.9805 4.95778 22.9228 4.86258 22.8468 4.78032C22.7712 4.69688 22.6776 4.62676 22.5804 4.56604C22.4824 4.50562 22.3802 4.45548 22.2783 4.41121C22.1771 4.36616 22.0755 4.32787 21.9767 4.29389C21.7787 4.22758 21.5922 4.17705 21.4258 4.13611C21.2591 4.09684 21.1119 4.0659 20.9902 4.04298C20.747 3.99705 20.6059 3.97736 20.6059 3.97736C20.6059 3.97736 20.6414 3.97648 20.7084 3.97707C20.7752 3.97825 20.8729 3.97972 20.9976 3.98804C21.122 3.99587 21.2732 4.00802 21.446 4.03162C21.6191 4.05463 21.8132 4.08725 22.0235 4.14101C22.2331 4.19458 22.4597 4.2649 22.686 4.38663C22.7984 4.44813 22.9122 4.52178 23.0137 4.62157C23.1149 4.72058 23.203 4.85142 23.242 5.00547C23.2618 5.08186 23.2685 5.16206 23.2641 5.24051L23.2586 5.29917L23.249 5.35676C23.241 5.39368 23.231 5.43461 23.2221 5.46546C23.1849 5.59943 23.1403 5.73253 23.0913 5.86513C23.0887 5.87247 23.0852 5.87982 23.0826 5.88716C23.1349 5.90802 23.1983 5.93339 23.2726 5.96649C23.3835 6.01555 23.5174 6.07686 23.6668 6.15599C23.8164 6.23463 23.9834 6.32865 24.1574 6.44636C24.3316 6.56339 24.5142 6.70275 24.6846 6.88275C24.7683 6.97442 24.8491 7.07578 24.9162 7.19428C24.9838 7.3116 25.031 7.45409 25.034 7.60687C25.0381 7.75994 24.9877 7.91575 24.9057 8.04297L24.8751 8.09135C24.8643 8.1078 24.8553 8.11877 24.8451 8.13336C24.8255 8.16019 24.8054 8.18722 24.7856 8.21465C24.7476 8.26557 24.7078 8.31591 24.6681 8.36566C24.7076 8.39788 24.7555 8.43784 24.8107 8.48739C24.8904 8.5582 24.9861 8.64614 25.0898 8.75357C25.1938 8.86032 25.3082 8.98499 25.4206 9.13199C25.534 9.27849 25.6492 9.44557 25.7396 9.64643C25.784 9.74701 25.8236 9.85552 25.8432 9.97627C25.8637 10.096 25.8607 10.2314 25.8137 10.362C25.768 10.4931 25.6746 10.6085 25.5662 10.6895C25.4689 10.7627 25.3739 10.827 25.273 10.8912C25.2959 10.9406 25.3225 11.0051 25.3487 11.085C25.3822 11.1883 25.4179 11.316 25.4454 11.4654C25.4734 11.6148 25.4972 11.7848 25.5057 11.9725C25.5142 12.1597 25.5139 12.365 25.4836 12.5816C25.4686 12.6895 25.4477 12.801 25.4164 12.9134C25.3846 13.0259 25.3436 13.1404 25.2815 13.2509C25.221 13.3611 25.1415 13.4694 25.0347 13.5588C24.9289 13.6482 24.7938 13.7137 24.6526 13.7395C24.634 13.7423 24.6191 13.7454 24.5977 13.7477L24.5522 13.7524L24.5064 13.7574L24.4559 13.7599C24.4336 13.7616 24.4122 13.7618 24.3907 13.7621C24.3818 13.7898 24.3719 13.8196 24.36 13.8528C24.3298 13.9371 24.2931 14.0398 24.2443 14.1551C24.1954 14.2704 24.1394 14.4003 24.0699 14.5383C24.0007 14.6767 23.9194 14.824 23.8223 14.9748C23.7256 15.1254 23.6133 15.2796 23.477 15.4266C23.3404 15.5721 23.1789 15.714 22.9741 15.8117C22.8723 15.8601 22.7581 15.8951 22.6389 15.906C22.6091 15.9093 22.5788 15.9102 22.5489 15.91C22.5193 15.9101 22.4967 15.9093 22.4692 15.9085C22.4161 15.9072 22.3636 15.9036 22.3104 15.8999C22.1938 15.8913 22.0758 15.8768 21.9589 15.852C21.9418 15.8496 21.9241 15.847 21.9066 15.8437C21.891 15.9058 21.8684 15.9621 21.8457 16.0198L21.8002 16.1182L21.7487 16.2134C21.7323 16.2458 21.7113 16.2752 21.6928 16.3061C21.6733 16.3364 21.6557 16.3684 21.6346 16.3974C21.5918 16.4552 21.5533 16.5166 21.5071 16.5717C21.461 16.6271 21.4185 16.6854 21.3695 16.7381C21.3208 16.7913 21.2729 16.8449 21.2238 16.8973L21.069 17.0475C21.0436 17.0731 21.0169 17.0972 20.9894 17.1203L20.9077 17.1909C20.801 17.2879 20.6854 17.3729 20.5722 17.4618C20.5161 17.5073 20.4556 17.5458 20.3973 17.5878L20.2205 17.7112C20.0994 17.7882 19.9769 17.8634 19.8548 17.9393L19.4786 18.1497C19.3489 18.2177 19.2245 18.2794 19.097 18.3448C18.9692 18.4082 18.8362 18.4672 18.7055 18.528C18.5732 18.5855 18.4394 18.6387 18.3061 18.6931L18.1023 18.767L18.0003 18.8036C17.9662 18.8156 17.9316 18.8257 17.8972 18.8369L17.6895 18.9018L17.4785 18.9578C17.4089 18.9779 17.3364 18.9901 17.2655 19.0067C17.1946 19.0232 17.1219 19.035 17.0496 19.0467C16.9051 19.0719 16.7571 19.0842 16.6085 19.0906C16.5332 19.0909 16.4583 19.0921 16.3819 19.0859C16.3442 19.0844 16.3048 19.0785 16.2665 19.0747C16.2251 19.0678 16.1919 19.064 16.1395 19.0492L16.1191 19.0433L16.1004 19.029C15.9146 18.8876 15.745 18.7393 15.5824 18.5739C15.5017 18.4915 15.4241 18.4049 15.3517 18.3113C15.2798 18.2174 15.2122 18.1179 15.1592 18.0031C15.134 17.9446 15.1096 17.8848 15.097 17.8165C15.0742 17.7507 15.0723 17.6759 15.083 17.6019ZM24.6296 7.97637C24.6392 7.96354 24.6515 7.94895 24.659 7.93818L24.6824 7.90341C24.7461 7.81096 24.7825 7.7099 24.7841 7.60589C24.786 7.50159 24.7562 7.39543 24.707 7.29564C24.6582 7.19565 24.5927 7.10232 24.5226 7.01526C24.3767 6.84426 24.2145 6.69648 24.0563 6.57015C23.7377 6.31856 23.4453 6.1367 23.2402 6.01222C23.1726 5.97178 23.1141 5.9375 23.0659 5.90949C22.9707 6.15863 22.8594 6.4064 22.7248 6.6436C22.5816 6.89519 22.4152 7.13562 22.224 7.35038C22.034 7.56662 21.8167 7.75436 21.5867 7.90714C21.3566 8.06089 21.1088 8.17028 20.8668 8.24236C20.6244 8.31601 20.386 8.34558 20.168 8.35205C20.0589 8.35557 19.9545 8.35224 19.8557 8.34519C19.7572 8.33598 19.6639 8.3257 19.5776 8.31111C19.527 8.30308 19.4794 8.29407 19.4331 8.28447C19.5585 8.36918 19.6791 8.46075 19.7977 8.55447C19.8555 8.6007 19.9122 8.648 19.9682 8.69618C19.9914 8.70989 20.0145 8.72361 20.0385 8.7379C20.1044 8.77972 20.1707 8.828 20.2416 8.87599C20.3861 8.96932 20.5302 9.08772 20.6848 9.21072C20.7584 9.27673 20.8337 9.34509 20.9112 9.41492C20.9513 9.44831 20.9856 9.48876 21.0223 9.52685C21.0277 9.53244 21.033 9.53802 21.0384 9.5436C21.0636 9.5532 21.0886 9.5624 21.1152 9.57043C21.1614 9.58414 21.2087 9.59785 21.2569 9.61215C21.4513 9.66288 21.6656 9.69892 21.8924 9.70304C22.1189 9.70666 22.3566 9.67336 22.5921 9.60452C22.8287 9.53714 23.0578 9.42197 23.278 9.28476C23.4983 9.14648 23.7051 8.97804 23.8991 8.7949C24.094 8.61245 24.2754 8.41316 24.443 8.20769C24.4855 8.15657 24.526 8.10437 24.5665 8.05325C24.5887 8.02867 24.6091 8.00252 24.6296 7.97637ZM25.3358 10.5291C25.359 10.5137 25.3875 10.4958 25.4052 10.4827C25.4859 10.4268 25.5455 10.3571 25.5785 10.2751C25.6454 10.1102 25.608 9.90311 25.5405 9.72154C25.5066 9.63007 25.4648 9.54203 25.4206 9.45859C25.377 9.37447 25.3301 9.29495 25.2823 9.21983C25.0898 8.91996 24.8987 8.68541 24.7632 8.52314C24.7169 8.4677 24.6767 8.42158 24.6443 8.38387C24.6182 8.41639 24.5915 8.44861 24.5649 8.48093C24.5785 8.49924 24.6058 8.53685 24.6436 8.59277C24.6977 8.67336 24.773 8.78961 24.8533 8.93583C24.9345 9.08165 25.0203 9.25685 25.0938 9.45477C25.129 9.55418 25.1608 9.65936 25.1827 9.77032C25.2047 9.88127 25.2155 9.99919 25.1987 10.1212C25.1907 10.1821 25.1732 10.2441 25.1452 10.3029C25.1173 10.3617 25.0757 10.416 25.026 10.4599C24.9299 10.5375 24.8399 10.5924 24.7457 10.6461C24.6523 10.698 24.5595 10.743 24.4683 10.7785C24.3777 10.8154 24.2902 10.845 24.2079 10.8677C24.1664 10.8781 24.1275 10.8898 24.0895 10.897C24.0515 10.9043 24.0154 10.9121 23.9811 10.9175C23.9129 10.9293 23.8531 10.9348 23.8034 10.9381C23.754 10.9421 23.7151 10.9412 23.6885 10.9413C23.662 10.9409 23.6476 10.9408 23.6476 10.9408C23.6476 10.9408 23.6608 10.9353 23.6855 10.9259C23.7101 10.9155 23.7463 10.9047 23.7914 10.8858C23.8143 10.8769 23.839 10.8679 23.8663 10.8577C23.8933 10.8467 23.9224 10.8341 23.9536 10.8224C24.0158 10.7974 24.0847 10.7676 24.1592 10.7355C24.2327 10.7004 24.3139 10.6662 24.3965 10.6236C24.4791 10.581 24.5662 10.5367 24.6538 10.4867C24.6973 10.4615 24.7421 10.4368 24.7858 10.4089C24.8087 10.3958 24.8296 10.3821 24.8511 10.3686L24.8847 10.3462C24.8941 10.3402 24.9022 10.3337 24.9109 10.3275C24.9776 10.2743 25.0196 10.1918 25.0364 10.0957C25.0532 9.99997 25.049 9.89567 25.036 9.79313C25.0222 9.6904 24.9986 9.58943 24.9713 9.49228C24.9443 9.39494 24.9136 9.30141 24.881 9.21347C24.8484 9.12552 24.8159 9.04306 24.7842 8.96726C24.7204 8.81605 24.6628 8.6909 24.6209 8.60383C24.5925 8.54429 24.5721 8.50286 24.5615 8.48249C24.4152 8.65926 24.2586 8.83182 24.0893 8.99429C23.8832 9.18732 23.6614 9.36703 23.4192 9.51187C23.1792 9.65877 22.9198 9.77179 22.6568 9.83877C22.3942 9.90801 22.1287 9.9273 21.882 9.90899C21.6494 9.89303 21.4345 9.84102 21.2432 9.776C21.2769 9.81713 21.3106 9.85836 21.3446 9.90037C21.412 9.99027 21.4761 10.0849 21.538 10.1821C21.5663 10.2325 21.595 10.2832 21.6234 10.3335C21.6372 10.3594 21.6529 10.3839 21.6654 10.4103L21.7014 10.4906C21.7248 10.5444 21.7505 10.5976 21.7719 10.6523L21.8298 10.8196C21.8302 10.8214 21.831 10.8231 21.8314 10.825C21.8997 10.8783 21.9733 10.9317 22.0536 10.9833C22.2027 11.0774 22.3733 11.1621 22.5622 11.2237C22.7511 11.2852 22.9586 11.319 23.1741 11.323C23.3899 11.3277 23.6131 11.2953 23.8353 11.2411C24.0571 11.185 24.2779 11.1044 24.4914 11.0055C24.7059 10.9086 24.9142 10.7939 25.1128 10.6702C25.1628 10.6394 25.2117 10.6074 25.2602 10.5758C25.287 10.5603 25.3117 10.5448 25.3358 10.5291ZM24.4321 13.4932L24.4736 13.4919L24.5191 13.4876L24.5648 13.4834C24.5733 13.4828 24.5888 13.4798 24.6003 13.4783C24.6994 13.4628 24.7905 13.4238 24.8692 13.3627C24.948 13.3021 25.0139 13.2213 25.0678 13.1317C25.1745 12.9517 25.2396 12.7456 25.2794 12.5462C25.3179 12.3465 25.3392 12.1514 25.3458 11.9712C25.3516 11.7903 25.3494 11.6235 25.3379 11.4764C25.3263 11.3289 25.3107 11.2005 25.2908 11.0957C25.2763 11.0173 25.261 10.952 25.2472 10.9012C25.1645 10.9539 25.0792 11.005 24.9928 11.0545C25.0049 11.1498 25.0199 11.2831 25.0267 11.4436C25.0347 11.6096 25.0337 11.8045 25.011 12.0144C24.9985 12.1191 24.98 12.2274 24.9501 12.3365C24.9203 12.4456 24.8779 12.5561 24.8083 12.6586C24.7738 12.7094 24.7309 12.7577 24.6797 12.7983C24.6283 12.839 24.5669 12.8692 24.5027 12.887C24.3816 12.9142 24.2768 12.9244 24.1683 12.9311C24.0617 12.9365 23.958 12.9364 23.8607 12.9287C23.763 12.922 23.6711 12.9105 23.5874 12.8947C23.5456 12.886 23.5055 12.8795 23.4676 12.8693C23.4302 12.859 23.3946 12.8503 23.3614 12.8404C23.2955 12.821 23.2388 12.7997 23.1931 12.7811C23.1473 12.7631 23.1124 12.7453 23.0886 12.7335C23.0648 12.7216 23.0525 12.7154 23.0525 12.7154C23.0525 12.7154 23.0665 12.7167 23.0931 12.7186C23.1194 12.7201 23.1574 12.7261 23.206 12.7291C23.2305 12.7309 23.2566 12.734 23.2857 12.7367C23.3147 12.7384 23.3463 12.7399 23.3794 12.7437C23.446 12.7486 23.5215 12.7517 23.6027 12.756C23.6843 12.7572 23.7721 12.7614 23.8655 12.7594C23.9586 12.7576 24.0563 12.756 24.1571 12.7493C24.2075 12.7463 24.2587 12.7429 24.3104 12.7376C24.3367 12.7355 24.3614 12.7327 24.3873 12.7299L24.4277 12.7245C24.4388 12.7232 24.449 12.7208 24.4599 12.7191C24.5431 12.7006 24.6179 12.645 24.6755 12.5662C24.7333 12.4879 24.7759 12.3919 24.8099 12.2945C24.8436 12.1963 24.8671 12.0953 24.8856 11.9963C24.9049 11.8969 24.9189 11.7996 24.929 11.7067C24.9388 11.6139 24.9468 11.5251 24.952 11.4431C24.9612 11.2921 24.9654 11.1644 24.9669 11.0696C24.8512 11.1348 24.7328 11.1973 24.6108 11.2539C24.3833 11.3575 24.1452 11.444 23.9008 11.4988C23.6574 11.5548 23.4081 11.5769 23.1678 11.5631C22.9275 11.5513 22.6975 11.496 22.4943 11.4148C22.3926 11.3741 22.2965 11.328 22.2083 11.2761C22.1204 11.2236 22.0394 11.1677 21.9646 11.1109C21.9392 11.0916 21.9153 11.0722 21.8918 11.0526C21.9248 11.2049 21.9461 11.3595 21.9501 11.5132C21.954 11.6273 21.9491 11.7401 21.9384 11.8507C21.9441 11.8622 21.9491 11.8734 21.9543 11.8852C21.9934 11.9665 22.0402 12.0477 22.0893 12.1306C22.1151 12.1715 22.1411 12.2129 22.1676 12.255C22.1962 12.2955 22.2254 12.3369 22.2547 12.3787C22.2863 12.4187 22.318 12.4594 22.3507 12.5005C22.3854 12.5397 22.4201 12.5798 22.4558 12.619C22.5293 12.6963 22.6056 12.7738 22.69 12.8453C22.8577 12.9895 23.0487 13.1167 23.2559 13.2192C23.4623 13.3226 23.6865 13.4007 23.9156 13.4469C24.0301 13.4708 24.1462 13.4868 24.262 13.4917C24.3189 13.4946 24.3783 13.4964 24.4321 13.4932ZM22.8588 15.5746C23.0216 15.5032 23.1709 15.3887 23.3016 15.2623C23.4339 15.1361 23.5493 14.9977 23.6538 14.8621C23.7579 14.7256 23.8501 14.5909 23.9325 14.4635C24.0138 14.336 24.0873 14.2175 24.1488 14.1102C24.2105 14.0031 24.2643 13.9094 24.306 13.8306C24.3198 13.8056 24.3318 13.7829 24.3435 13.761C24.3122 13.7609 24.2813 13.7607 24.25 13.7595C24.1504 13.7564 24.051 13.7466 23.9528 13.7305C23.9209 13.8147 23.8774 13.9218 23.8206 14.044C23.7869 14.1184 23.7466 14.1969 23.7021 14.2795C23.6577 14.3621 23.6089 14.4483 23.5522 14.5343C23.4964 14.6209 23.4349 14.7086 23.3666 14.7937C23.2969 14.8783 23.2208 14.9611 23.1347 15.0364C23.0911 15.0748 23.0474 15.1082 22.9963 15.1436L22.9622 15.1653L22.9212 15.1882C22.894 15.2018 22.8677 15.2151 22.8396 15.2257C22.7289 15.2697 22.6114 15.2885 22.5005 15.2873C22.3894 15.2867 22.2844 15.2663 22.1896 15.2385C22.0941 15.2115 22.0101 15.1723 21.9351 15.1334C21.8606 15.0938 21.7966 15.0505 21.7413 15.0111C21.6876 14.97 21.6418 14.9332 21.6068 14.8998C21.5713 14.8672 21.5451 14.8401 21.528 14.8209C21.5108 14.8018 21.5016 14.7916 21.5016 14.7916C21.5016 14.7916 21.514 14.7977 21.5367 14.8096C21.5595 14.8214 21.5923 14.8391 21.6348 14.8608C21.6776 14.8817 21.728 14.9082 21.788 14.934C21.8467 14.9616 21.9145 14.9888 21.9885 15.0149C22.0621 15.0424 22.1439 15.0638 22.2295 15.0823C22.3154 15.1002 22.4068 15.1089 22.4992 15.1068C22.5914 15.1044 22.6852 15.0884 22.7737 15.0557C22.7958 15.0475 22.818 15.0382 22.8391 15.028L22.8691 15.013L22.9042 14.9924C22.9425 14.9682 22.9865 14.9378 23.0254 14.9061C23.1051 14.8421 23.1792 14.7685 23.2476 14.6917C23.3173 14.6157 23.3821 14.5358 23.4416 14.4566C23.5008 14.377 23.5568 14.298 23.608 14.2218C23.6593 14.1456 23.7055 14.0718 23.7484 14.0037C23.8159 13.8941 23.8722 13.7981 23.9156 13.7216C23.8971 13.7184 23.8788 13.7156 23.8605 13.7117C23.7322 13.6879 23.6065 13.6527 23.4847 13.6085C23.423 13.5885 23.3638 13.5622 23.3043 13.5382C23.2462 13.5109 23.1874 13.4854 23.1312 13.4547C22.9038 13.338 22.7002 13.1884 22.5235 13.0237C22.4346 12.9422 22.3541 12.855 22.2792 12.7666C22.2432 12.7215 22.2087 12.6757 22.1745 12.6312C22.1427 12.5845 22.1114 12.5387 22.0805 12.4936C22.0522 12.4467 22.024 12.4009 21.9963 12.3553C21.9712 12.3085 21.9466 12.2628 21.9223 12.2177C21.912 12.1957 21.9025 12.1744 21.8924 12.1528C21.8904 12.1634 21.8883 12.1747 21.8863 12.1853C21.8545 12.3391 21.8096 12.4844 21.7601 12.6224C21.7901 12.5906 21.8211 12.5597 21.8542 12.5311C21.8175 12.5682 21.7833 12.6071 21.7512 12.6481C21.7347 12.6937 21.7177 12.7382 21.7004 12.7822C21.6286 12.9666 21.5444 13.132 21.4662 13.2834C21.3951 13.4216 21.3246 13.5448 21.2624 13.6569C21.2446 13.7311 21.225 13.8155 21.2061 13.9101C21.1829 14.0307 21.161 14.1664 21.1476 14.3139C21.1356 14.4612 21.1331 14.6207 21.158 14.7805C21.1832 14.9397 21.2391 15.0989 21.3423 15.227C21.4441 15.3556 21.592 15.4513 21.764 15.513C21.9359 15.5763 22.1281 15.6071 22.3243 15.6241C22.3731 15.6284 22.4231 15.631 22.4722 15.6338C22.4955 15.6352 22.5244 15.6364 22.5456 15.6368C22.5664 15.6374 22.5874 15.6374 22.6085 15.6353C22.6933 15.6324 22.7772 15.609 22.8588 15.5746ZM15.7592 18.3738C15.7697 18.3742 15.7825 18.3751 15.7998 18.3759C15.8208 18.3769 15.8462 18.3784 15.8764 18.3794C15.9066 18.3812 15.9409 18.3834 15.9798 18.3818C16.0185 18.3813 16.0614 18.3809 16.1078 18.3803C16.1544 18.3801 16.2046 18.3746 16.2584 18.3714C16.2853 18.3696 16.3128 18.3674 16.3412 18.3654C16.3696 18.3617 16.3986 18.3579 16.4285 18.3541C16.4882 18.346 16.5513 18.3409 16.6161 18.3277C16.7464 18.3069 16.8866 18.277 17.0332 18.2411C17.1799 18.2045 17.3331 18.1604 17.4903 18.1096C17.5686 18.0844 17.6486 18.0582 17.7283 18.0282C17.8084 18.0001 17.8889 17.9698 17.9698 17.9382C18.132 17.8769 18.2943 17.8074 18.4551 17.736C18.5356 17.7006 18.616 17.6636 18.6961 17.6274C18.7752 17.589 18.8547 17.5526 18.9326 17.5138C19.0877 17.436 19.2416 17.3609 19.3876 17.2825C19.5341 17.2049 19.6746 17.1286 19.8077 17.055C19.94 16.9802 20.065 16.9099 20.1797 16.8427C20.4087 16.7087 20.5986 16.5943 20.7303 16.5126C20.8625 16.4312 20.937 16.3835 20.937 16.3835C20.937 16.3835 20.8692 16.4407 20.746 16.5351C20.6226 16.6295 20.4435 16.7606 20.2217 16.9093C20.1112 16.9837 19.9898 17.0623 19.8598 17.1432C19.7294 17.2232 19.5917 17.3073 19.446 17.3885C19.3735 17.4298 19.2993 17.4708 19.2235 17.5117C19.1481 17.5533 19.0707 17.5929 18.9927 17.6327C18.9144 17.6727 18.8345 17.7104 18.7548 17.7495C18.6743 17.787 18.5935 17.8252 18.5119 17.8617C18.3478 17.9326 18.183 18.0012 18.0177 18.0625C17.9766 18.0779 17.9354 18.0933 17.8946 18.1085C17.8532 18.1225 17.8117 18.136 17.7711 18.1495C17.6894 18.1774 17.6075 18.2018 17.5269 18.2256C17.3661 18.2741 17.2079 18.3111 17.0567 18.3416C16.9054 18.3722 16.7609 18.3934 16.6272 18.4064C16.5607 18.4152 16.496 18.417 16.4346 18.4208C16.4041 18.4223 16.3745 18.4235 16.3453 18.4249C16.3165 18.4247 16.288 18.4242 16.2608 18.4242C16.2062 18.4226 16.1553 18.4255 16.1081 18.4204C16.0609 18.4163 16.0176 18.4128 15.9791 18.4096C15.9401 18.4076 15.9058 18.4014 15.8755 18.3962C15.8458 18.3913 15.8201 18.387 15.7995 18.3837C15.7845 18.3813 15.7728 18.3793 15.7631 18.3775C15.7662 18.3805 15.7688 18.3838 15.7716 18.3865C15.9147 18.534 16.0738 18.6746 16.2348 18.8001C16.2531 18.8039 16.2772 18.808 16.2973 18.8114C16.3297 18.8147 16.3611 18.8202 16.3945 18.8213C16.4603 18.8266 16.5277 18.826 16.5951 18.8264C16.7305 18.8208 16.8675 18.8103 17.0039 18.7895C17.0721 18.7799 17.1406 18.7701 17.2082 18.7551C17.2759 18.7406 17.3443 18.7303 17.4117 18.7119L17.6142 18.6616L17.8154 18.6022C17.8489 18.5921 17.8823 18.583 17.9158 18.5719L18.0149 18.5376L18.2137 18.4692C18.3444 18.418 18.476 18.3686 18.6055 18.3149C18.7337 18.2584 18.863 18.2064 18.9912 18.1467C19.1188 18.0859 19.2506 18.0246 19.3741 17.9637L19.748 17.7677L20.1122 17.555L20.2891 17.4413C20.3474 17.4025 20.4085 17.3672 20.4646 17.3248C20.5779 17.2423 20.6945 17.1634 20.8015 17.0734L20.8836 17.0077C20.9113 16.986 20.9384 16.9638 20.9636 16.9399L21.1198 16.8001C21.1699 16.7519 21.2186 16.7018 21.2688 16.6526C21.3192 16.6037 21.3627 16.5496 21.4098 16.4982C21.4573 16.4467 21.497 16.3898 21.5411 16.3359C21.5633 16.3088 21.5814 16.2792 21.6015 16.2511C21.6208 16.2225 21.6424 16.1946 21.6594 16.1646L21.713 16.0756L21.7616 15.9838C21.7868 15.9308 21.8123 15.8753 21.8293 15.8212C21.7748 15.8064 21.7209 15.7888 21.6675 15.7689C21.5646 15.7288 21.465 15.6778 21.374 15.613C21.2835 15.548 21.2036 15.4682 21.1394 15.3797C21.0107 15.2009 20.9559 14.994 20.9425 14.8076C20.9394 14.7629 20.9382 14.7187 20.9386 14.6757L20.9226 14.7288L20.8663 14.8934C20.8567 14.9209 20.8421 14.9464 20.8303 14.9724C20.7333 15.1838 20.5919 15.3724 20.43 15.5363C20.2662 15.6997 20.0819 15.8379 19.8887 15.96C19.7925 16.0224 19.6929 16.0773 19.593 16.1328C19.4918 16.1845 19.3911 16.2373 19.2872 16.2837C19.0813 16.3793 18.871 16.464 18.6583 16.5402C18.2325 16.6925 17.7986 16.8158 17.3643 16.9291C17.1471 16.9861 16.9296 17.0402 16.7126 17.0925C16.4954 17.1453 16.2789 17.1974 16.0664 17.2556C16.0134 17.27 15.9601 17.2847 15.9084 17.3006C15.856 17.3159 15.8046 17.3326 15.7539 17.3496C15.7278 17.3577 15.704 17.3667 15.6811 17.3756C15.6575 17.385 15.6357 17.3916 15.6102 17.4034L15.5377 17.4365C15.5368 17.4369 15.5369 17.4369 15.5377 17.4365L15.5349 17.4379L15.5313 17.4402L15.5243 17.4446L15.5096 17.4533L15.4803 17.4699C15.406 17.5192 15.3672 17.5778 15.3542 17.645C15.3538 17.6493 15.3533 17.6537 15.3529 17.658C15.3679 17.6573 15.3846 17.6568 15.4032 17.6559C15.4473 17.6539 15.501 17.6543 15.5624 17.6499C15.624 17.6445 15.693 17.6391 15.7682 17.6342C15.8059 17.6327 15.8447 17.6271 15.8853 17.6221C15.9258 17.6178 15.9671 17.6131 16.0104 17.6083C16.0962 17.6014 16.1857 17.5829 16.2793 17.5717C16.3725 17.5611 16.4675 17.5384 16.5652 17.5241C16.6627 17.5084 16.7604 17.486 16.8589 17.4673C16.9573 17.447 17.0554 17.4255 17.1519 17.4036C17.2474 17.3787 17.3432 17.3607 17.4346 17.3358C17.5261 17.3123 17.6142 17.2899 17.698 17.2686C17.782 17.2463 17.8609 17.2253 17.9341 17.2061C18.0804 17.1657 18.2018 17.1318 18.2871 17.1083C18.3727 17.0841 18.4213 17.0702 18.4213 17.0702C18.4213 17.0702 18.4099 17.0762 18.3892 17.0872C18.3678 17.0981 18.3369 17.1146 18.297 17.1334C18.2171 17.1722 18.1011 17.2243 17.9594 17.2803C17.8884 17.3081 17.8114 17.3383 17.7287 17.3662C17.6462 17.3955 17.5591 17.425 17.4671 17.4518C17.3761 17.4806 17.2809 17.506 17.1839 17.532C17.0864 17.5559 16.987 17.5791 16.8876 17.6014C16.7871 17.6191 16.6872 17.6405 16.5875 17.6547C16.538 17.6625 16.4885 17.6692 16.4398 17.6755C16.391 17.6828 16.3425 17.6875 16.2947 17.6914C16.199 17.6996 16.1073 17.71 16.0192 17.7105C15.9314 17.7123 15.8484 17.7169 15.7715 17.7129C15.6947 17.7101 15.625 17.7061 15.5626 17.7023C15.5008 17.6987 15.4468 17.6882 15.4027 17.6831C15.384 17.6805 15.3675 17.6783 15.3525 17.6759C15.3504 17.7394 15.3711 17.8145 15.4042 17.889C15.4171 17.9184 15.4331 17.9476 15.45 17.9766C15.4589 17.9769 15.469 17.9776 15.4821 17.9784C15.5232 17.9794 15.5834 17.9858 15.66 17.9853C15.7368 17.9848 15.8297 17.9859 15.936 17.9777C15.9624 17.976 15.9898 17.9745 16.0183 17.9729C16.0465 17.9709 16.0753 17.9666 16.105 17.9634C16.1644 17.956 16.2265 17.9528 16.2911 17.9414C16.4206 17.9229 16.5598 17.8971 16.7061 17.866C16.8524 17.8338 17.0049 17.7944 17.1619 17.7497C17.3191 17.7052 17.4795 17.6529 17.6419 17.597C17.8042 17.5422 17.9673 17.4795 18.1295 17.4151C18.2111 17.3838 18.2911 17.3495 18.3716 17.3171C18.4515 17.2824 18.5308 17.2486 18.6099 17.2143C18.7664 17.1435 18.9217 17.0754 19.0687 17.0042C19.3648 16.8636 19.6379 16.7252 19.8701 16.603C20.3349 16.3583 20.6392 16.1823 20.6392 16.1823C20.6392 16.1823 20.5696 16.2359 20.4437 16.3239C20.3178 16.412 20.1352 16.534 19.9099 16.6712C19.7975 16.7399 19.6743 16.8128 19.5425 16.8869C19.4106 16.9606 19.2707 17.038 19.1234 17.112C18.9763 17.1873 18.8232 17.263 18.6651 17.3346C18.5859 17.3694 18.5059 17.4051 18.4253 17.4406C18.344 17.4744 18.2633 17.5095 18.1814 17.5421C18.0169 17.6061 17.8513 17.6679 17.6857 17.7223C17.6442 17.7358 17.6032 17.7496 17.562 17.7629C17.5207 17.7748 17.4795 17.7871 17.4384 17.7995C17.3569 17.8246 17.2751 17.845 17.1947 17.8662C17.0343 17.9083 16.8766 17.94 16.7264 17.9665C16.6517 17.9804 16.5778 17.9887 16.5069 17.9991C16.4359 18.0091 16.3664 18.0128 16.3003 18.0193C16.2341 18.0265 16.17 18.0266 16.1097 18.0293C16.0794 18.0303 16.0499 18.0319 16.0214 18.0314C15.9928 18.0305 15.9649 18.0303 15.938 18.0296C15.8299 18.0301 15.7362 18.019 15.6594 18.0121C15.6206 18.0094 15.5867 18.003 15.557 17.9981C15.5273 17.9931 15.5025 17.9884 15.4819 17.9852C15.4707 17.9834 15.4617 17.9816 15.4533 17.9802C15.486 18.0361 15.5234 18.0912 15.5642 18.1447C15.6228 18.2251 15.6893 18.3008 15.7592 18.3738Z" fill="#D3E3FF"/>
<path d="M9.07119 6.10936L9.07198 6.11103L9.07336 6.11387L9.07603 6.12023L9.08107 6.13258L9.09114 6.15716C9.09865 6.17341 9.10339 6.19045 9.10863 6.2072C9.12048 6.24059 9.12661 6.27585 9.13184 6.31042C9.14073 6.38044 9.13965 6.45115 9.1269 6.51892C9.11347 6.5865 9.09085 6.65084 9.05934 6.70989C9.02644 6.76806 8.98782 6.82085 8.94189 6.86502C8.89507 6.90958 8.84795 6.94513 8.79125 6.9747C8.76221 6.99174 8.73988 6.9985 8.71568 7.00879C8.698 7.01682 8.68714 7.01848 8.67301 7.02328C8.65958 7.02729 8.64654 7.03209 8.63291 7.03464C8.52484 7.05902 8.4208 7.05501 8.3319 7.03503C8.24218 7.01437 8.16766 6.97774 8.10761 6.93817C8.04756 6.89861 8.00342 6.85385 7.97078 6.81576C7.95486 6.79598 7.94018 6.77864 7.92981 6.7618C7.91882 6.74574 7.90947 6.73202 7.90339 6.71968C7.90947 6.73202 7.92006 6.74515 7.93189 6.76082C7.94246 6.77707 7.95674 6.7946 7.9743 6.81253C8.00904 6.84856 8.05547 6.8897 8.11787 6.92045C8.17966 6.95208 8.25574 6.97529 8.33922 6.97803C8.42228 6.98097 8.51131 6.96178 8.59191 6.92123C8.60209 6.91682 8.61137 6.90968 8.62155 6.90429C8.63004 6.89861 8.64348 6.89264 8.64812 6.88735C8.66847 6.87236 8.69267 6.85708 8.70561 6.84269C8.73653 6.81595 8.76705 6.77678 8.79204 6.74025C8.81693 6.70216 8.83531 6.66024 8.84993 6.61803C8.86366 6.57523 8.87087 6.53058 8.87462 6.48602C8.8766 6.44126 8.87274 6.3969 8.86484 6.3539C8.85882 6.33236 8.85496 6.31091 8.84686 6.29034C8.84321 6.27987 8.84044 6.269 8.83521 6.2594L8.82829 6.24441L8.82503 6.23678L8.82325 6.23315L8.82227 6.2311C8.80943 6.20838 8.79491 6.1787 8.78592 6.16881C8.77693 6.15383 8.76142 6.13688 8.74838 6.11877C8.71875 6.08586 8.68565 6.05609 8.64921 6.03004C8.61167 6.00595 8.57186 5.98352 8.52909 5.96864C8.48661 5.95414 8.44194 5.94268 8.3964 5.93886C8.35128 5.93583 8.30468 5.93495 8.25986 5.94396C8.23695 5.9464 8.21543 5.95385 8.19312 5.95953L8.18898 5.96051L8.18671 5.96109C8.19231 5.95786 8.18671 5.96109 8.18795 5.96051L8.17905 5.96433L8.16105 5.97147C8.15008 5.97637 8.13643 5.98088 8.12711 5.98597C8.09024 6.00379 8.04962 6.02651 8.0168 6.05462C7.98253 6.08194 7.9542 6.11397 7.92875 6.14668C7.87969 6.21376 7.8514 6.28751 7.83842 6.35479C7.8242 6.42275 7.8288 6.48416 7.8362 6.53351C7.83969 6.55819 7.84485 6.58013 7.85148 6.59884C7.85709 6.61744 7.86189 6.63341 7.86755 6.64594C7.86148 6.6337 7.85543 6.61823 7.84942 6.59981C7.84236 6.58131 7.8372 6.55947 7.83165 6.53469C7.82117 6.48533 7.81285 6.42373 7.81762 6.35214C7.823 6.28085 7.83961 6.20005 7.87788 6.1174C7.89845 6.07695 7.9211 6.03445 7.953 5.99498C7.98286 5.95355 8.02009 5.91771 8.06578 5.8803C8.14699 5.81498 8.26296 5.75984 8.38847 5.74378C8.45184 5.73487 8.51783 5.73751 8.58411 5.74711C8.64999 5.75896 8.71598 5.78041 8.77772 5.81204C8.83955 5.84357 8.89625 5.88686 8.94653 5.93681C8.97063 5.96276 8.99395 5.98812 9.01627 6.02201C9.02773 6.03787 9.03928 6.05511 9.04472 6.06618L9.06625 6.10359C9.07376 6.11475 9.06951 6.10613 9.07119 6.10936Z" fill="#D3E3FF"/>
<path d="M8.12652 6.40796C8.25036 6.34793 8.3996 6.39876 8.46014 6.52156C8.52071 6.64427 8.46904 6.79245 8.34562 6.85228C8.22178 6.91232 8.07254 6.86149 8.012 6.73878C7.95103 6.61617 8.00268 6.468 8.12652 6.40796Z" fill="#D3E3FF"/>
<defs>
<linearGradient id="paint0_linear_58127_1496" x1="9.65755" y1="4.84295" x2="30.6332" y2="14.1608" gradientUnits="userSpaceOnUse">
<stop stop-color="#FDAC34"/>
<stop offset="1" stop-color="#FF900E"/>
</linearGradient>
<linearGradient id="paint1_linear_58127_1496" x1="8.96373" y1="3.56232" x2="27.0279" y2="2.92511" gradientUnits="userSpaceOnUse">
<stop stop-color="#FDAC34"/>
<stop offset="1" stop-color="#FF900E"/>
</linearGradient>
<linearGradient id="paint2_linear_58127_1496" x1="19.2633" y1="2.51663" x2="11.4371" y2="12.449" gradientUnits="userSpaceOnUse">
<stop stop-color="#FDAC34"/>
<stop offset="1" stop-color="#FF900E"/>
</linearGradient>
<linearGradient id="paint3_linear_58127_1496" x1="12.3919" y1="10.7973" x2="26.1272" y2="6.84306" gradientUnits="userSpaceOnUse">
<stop stop-color="#FDAC34"/>
<stop offset="1" stop-color="#FF9412"/>
</linearGradient>
</defs>
</svg>
