<svg width="98" height="23" viewBox="0 0 98 23" fill="none" xmlns="http://www.w3.org/2000/svg">
<path d="M6.04144 15.382C6.52544 15.382 6.92144 15.3453 7.22944 15.272C7.5521 15.184 7.80877 15.074 7.99944 14.942C8.1901 14.7953 8.3221 14.6267 8.39544 14.436C8.46877 14.2453 8.50544 14.0327 8.50544 13.798C8.50544 13.2993 8.27077 12.8887 7.80144 12.566C7.3321 12.2287 6.52544 11.8693 5.38144 11.488C4.88277 11.312 4.3841 11.114 3.88544 10.894C3.38677 10.6593 2.93944 10.3733 2.54344 10.036C2.14744 9.684 1.82477 9.266 1.57544 8.782C1.3261 8.28333 1.20144 7.682 1.20144 6.978C1.20144 6.274 1.33344 5.64333 1.59744 5.086C1.86144 4.514 2.23544 4.03 2.71944 3.634C3.20344 3.238 3.7901 2.93733 4.47944 2.732C5.16877 2.512 5.9461 2.402 6.81144 2.402C7.8381 2.402 8.72544 2.512 9.47344 2.732C10.2214 2.952 10.8374 3.194 11.3214 3.458L10.3314 6.164C9.9061 5.944 9.42944 5.75333 8.90144 5.592C8.3881 5.416 7.76477 5.328 7.03144 5.328C6.2101 5.328 5.6161 5.44533 5.24944 5.68C4.89744 5.9 4.72144 6.24467 4.72144 6.714C4.72144 6.99267 4.78744 7.22733 4.91944 7.418C5.05144 7.60867 5.23477 7.78467 5.46944 7.946C5.71877 8.09267 5.99744 8.232 6.30544 8.364C6.6281 8.48133 6.9801 8.606 7.36144 8.738C8.15344 9.03133 8.84277 9.32467 9.42944 9.618C10.0161 9.89667 10.5001 10.2267 10.8814 10.608C11.2774 10.9893 11.5708 11.4367 11.7614 11.95C11.9521 12.4633 12.0474 13.0867 12.0474 13.82C12.0474 15.2427 11.5488 16.35 10.5514 17.142C9.5541 17.9193 8.05077 18.308 6.04144 18.308C5.36677 18.308 4.7581 18.264 4.21544 18.176C3.67277 18.1027 3.18877 18.0073 2.76344 17.89C2.35277 17.7727 1.99344 17.648 1.68544 17.516C1.3921 17.384 1.14277 17.2593 0.937436 17.142L1.90544 14.414C2.3601 14.6633 2.91744 14.8907 3.57744 15.096C4.2521 15.2867 5.07344 15.382 6.04144 15.382ZM17.1461 18H13.8681V6.428H17.1461V18ZM17.4541 3.084C17.4541 3.68533 17.2561 4.162 16.8601 4.514C16.4788 4.85133 16.0241 5.02 15.4961 5.02C14.9681 5.02 14.5061 4.85133 14.1101 4.514C13.7288 4.162 13.5381 3.68533 13.5381 3.084C13.5381 2.48267 13.7288 2.01333 14.1101 1.676C14.5061 1.324 14.9681 1.148 15.4961 1.148C16.0241 1.148 16.4788 1.324 16.8601 1.676C17.2561 2.01333 17.4541 2.48267 17.4541 3.084ZM25.9855 11.862C25.9855 10.806 25.8462 10.058 25.5675 9.618C25.3035 9.178 24.8415 8.958 24.1815 8.958C23.9762 8.958 23.7635 8.97267 23.5435 9.002C23.3235 9.01667 23.1108 9.03867 22.9055 9.068V18H19.6275V6.824C19.9062 6.75067 20.2288 6.67733 20.5955 6.604C20.9768 6.516 21.3728 6.44267 21.7835 6.384C22.2088 6.31067 22.6415 6.25933 23.0815 6.23C23.5215 6.186 23.9542 6.164 24.3795 6.164C25.2155 6.164 25.8902 6.274 26.4035 6.494C26.9315 6.69933 27.3642 6.94867 27.7015 7.242C28.1708 6.90467 28.7062 6.64067 29.3075 6.45C29.9235 6.25933 30.4882 6.164 31.0015 6.164C31.9255 6.164 32.6808 6.296 33.2675 6.56C33.8688 6.80933 34.3455 7.16867 34.6975 7.638C35.0495 8.10733 35.2915 8.66467 35.4235 9.31C35.5555 9.95533 35.6215 10.674 35.6215 11.466V18H32.3435V11.862C32.3435 10.806 32.2042 10.058 31.9255 9.618C31.6615 9.178 31.1995 8.958 30.5395 8.958C30.3635 8.958 30.1142 9.002 29.7915 9.09C29.4835 9.178 29.2268 9.288 29.0215 9.42C29.1242 9.75733 29.1902 10.1167 29.2195 10.498C29.2488 10.8647 29.2635 11.2607 29.2635 11.686V18H25.9855V11.862ZM48.8222 12.192C48.8222 13.1013 48.6902 13.9373 48.4262 14.7C48.1622 15.448 47.7809 16.0933 47.2822 16.636C46.7835 17.164 46.1822 17.5747 45.4782 17.868C44.7889 18.1613 44.0115 18.308 43.1462 18.308C42.2955 18.308 41.5182 18.1613 40.8142 17.868C40.1249 17.5747 39.5309 17.164 39.0322 16.636C38.5335 16.0933 38.1449 15.448 37.8662 14.7C37.5875 13.9373 37.4482 13.1013 37.4482 12.192C37.4482 11.2827 37.5875 10.454 37.8662 9.706C38.1595 8.958 38.5555 8.32 39.0542 7.792C39.5675 7.264 40.1689 6.85333 40.8582 6.56C41.5622 6.26667 42.3249 6.12 43.1462 6.12C43.9822 6.12 44.7449 6.26667 45.4342 6.56C46.1382 6.85333 46.7395 7.264 47.2382 7.792C47.7369 8.32 48.1255 8.958 48.4042 9.706C48.6829 10.454 48.8222 11.2827 48.8222 12.192ZM45.4782 12.192C45.4782 11.18 45.2729 10.388 44.8622 9.816C44.4662 9.22933 43.8942 8.936 43.1462 8.936C42.3982 8.936 41.8189 9.22933 41.4082 9.816C40.9975 10.388 40.7922 11.18 40.7922 12.192C40.7922 13.204 40.9975 14.0107 41.4082 14.612C41.8189 15.1987 42.3982 15.492 43.1462 15.492C43.8942 15.492 44.4662 15.1987 44.8622 14.612C45.2729 14.0107 45.4782 13.204 45.4782 12.192ZM53.5555 12.126C53.5555 13.138 53.7828 13.952 54.2375 14.568C54.6921 15.184 55.3668 15.492 56.2615 15.492C56.5548 15.492 56.8261 15.4847 57.0755 15.47C57.3248 15.4407 57.5301 15.4113 57.6915 15.382V9.42C57.4861 9.288 57.2148 9.178 56.8775 9.09C56.5548 9.002 56.2248 8.958 55.8875 8.958C54.3328 8.958 53.5555 10.014 53.5555 12.126ZM60.9695 17.626C60.6761 17.714 60.3388 17.802 59.9575 17.89C59.5761 17.9633 59.1728 18.0293 58.7475 18.088C58.3368 18.1467 57.9115 18.1907 57.4715 18.22C57.0461 18.264 56.6355 18.286 56.2395 18.286C55.2861 18.286 54.4355 18.1467 53.6875 17.868C52.9395 17.5893 52.3088 17.1933 51.7955 16.68C51.2821 16.152 50.8861 15.5213 50.6075 14.788C50.3435 14.04 50.2115 13.204 50.2115 12.28C50.2115 11.3413 50.3288 10.498 50.5635 9.75C50.7981 8.98733 51.1355 8.342 51.5755 7.814C52.0155 7.286 52.5508 6.88267 53.1815 6.604C53.8268 6.32533 54.5601 6.186 55.3815 6.186C55.8361 6.186 56.2395 6.23 56.5915 6.318C56.9581 6.406 57.3248 6.53067 57.6915 6.692V1.456L60.9695 0.927999V17.626ZM67.8608 15.712C68.1835 15.712 68.4915 15.7047 68.7848 15.69C69.0782 15.6753 69.3128 15.6533 69.4888 15.624V13.138C69.3568 13.1087 69.1588 13.0793 68.8948 13.05C68.6308 13.0207 68.3888 13.006 68.1688 13.006C67.8608 13.006 67.5675 13.028 67.2888 13.072C67.0248 13.1013 66.7902 13.1673 66.5848 13.27C66.3795 13.3727 66.2182 13.512 66.1008 13.688C65.9835 13.864 65.9248 14.084 65.9248 14.348C65.9248 14.8613 66.0935 15.2207 66.4308 15.426C66.7828 15.6167 67.2595 15.712 67.8608 15.712ZM67.5968 6.12C68.5648 6.12 69.3715 6.23 70.0168 6.45C70.6622 6.67 71.1755 6.98533 71.5568 7.396C71.9528 7.80667 72.2315 8.30533 72.3928 8.892C72.5542 9.47867 72.6348 10.1313 72.6348 10.85V17.67C72.1655 17.7727 71.5128 17.89 70.6768 18.022C69.8408 18.1687 68.8288 18.242 67.6408 18.242C66.8928 18.242 66.2108 18.176 65.5948 18.044C64.9935 17.912 64.4728 17.6993 64.0328 17.406C63.5928 17.098 63.2555 16.702 63.0208 16.218C62.7862 15.734 62.6688 15.14 62.6688 14.436C62.6688 13.7613 62.8008 13.1893 63.0648 12.72C63.3435 12.2507 63.7102 11.8767 64.1648 11.598C64.6195 11.3193 65.1402 11.1213 65.7268 11.004C66.3135 10.872 66.9222 10.806 67.5528 10.806C67.9782 10.806 68.3522 10.828 68.6748 10.872C69.0122 10.9013 69.2835 10.9453 69.4888 11.004V10.696C69.4888 10.1387 69.3202 9.69133 68.9828 9.354C68.6455 9.01667 68.0588 8.848 67.2228 8.848C66.6655 8.848 66.1155 8.892 65.5728 8.98C65.0302 9.05333 64.5608 9.16333 64.1648 9.31L63.7468 6.67C63.9375 6.61133 64.1722 6.55267 64.4508 6.494C64.7442 6.42067 65.0595 6.362 65.3968 6.318C65.7342 6.25933 66.0862 6.21533 66.4528 6.186C66.8342 6.142 67.2155 6.12 67.5968 6.12ZM74.999 6.824C75.5563 6.66267 76.275 6.516 77.155 6.384C78.035 6.23733 78.959 6.164 79.927 6.164C80.9097 6.164 81.7237 6.296 82.369 6.56C83.029 6.80933 83.5497 7.16867 83.931 7.638C84.3123 8.10733 84.5837 8.66467 84.745 9.31C84.9063 9.95533 84.987 10.674 84.987 11.466V18H81.709V11.862C81.709 10.806 81.5697 10.058 81.291 9.618C81.0123 9.178 80.4917 8.958 79.729 8.958C79.4943 8.958 79.245 8.97267 78.981 9.002C78.717 9.01667 78.4823 9.03867 78.277 9.068V18H74.999V6.824ZM90.1481 11.84C90.1481 13.6733 90.8887 14.59 92.3701 14.59C92.7074 14.59 93.0227 14.546 93.3161 14.458C93.6094 14.37 93.8587 14.2673 94.0641 14.15V8.914C93.9027 8.88467 93.7121 8.86267 93.4921 8.848C93.2721 8.81867 93.0154 8.804 92.7221 8.804C91.8567 8.804 91.2114 9.09 90.7861 9.662C90.3607 10.234 90.1481 10.96 90.1481 11.84ZM97.3421 16.548C97.3421 18.44 96.8581 19.8407 95.8901 20.75C94.9367 21.674 93.4554 22.136 91.4461 22.136C90.7421 22.136 90.0381 22.07 89.3341 21.938C88.6301 21.8207 87.9774 21.6593 87.3761 21.454L87.9481 18.704C88.4614 18.9093 88.9967 19.0707 89.5541 19.188C90.1261 19.3053 90.7714 19.364 91.4901 19.364C92.4287 19.364 93.0887 19.1587 93.4701 18.748C93.8661 18.3373 94.0641 17.8093 94.0641 17.164V16.746C93.7121 16.9073 93.3454 17.032 92.9641 17.12C92.5974 17.1933 92.1941 17.23 91.7541 17.23C90.1554 17.23 88.9307 16.7607 88.0801 15.822C87.2294 14.8687 86.8041 13.5413 86.8041 11.84C86.8041 10.9893 86.9361 10.2193 87.2001 9.53C87.4641 8.826 87.8454 8.22467 88.3441 7.726C88.8574 7.22733 89.4807 6.846 90.2141 6.582C90.9474 6.30333 91.7761 6.164 92.7001 6.164C93.0961 6.164 93.4994 6.186 93.9101 6.23C94.3354 6.25933 94.7534 6.30333 95.1641 6.362C95.5747 6.42067 95.9634 6.494 96.3301 6.582C96.7114 6.65533 97.0487 6.736 97.3421 6.824V16.548Z" fill="#4C4C4D"/>
</svg>
